<svg width="124" height="126" viewBox="0 0 124 126" fill="none" xmlns="http://www.w3.org/2000/svg">
<path d="M63.8027 3.84524C63.0187 4.05057 62.384 4.44257 61.7307 5.0959C60.76 6.06657 60.3494 7.0559 60.3494 8.43724C60.3494 9.78124 60.7974 10.8826 61.712 11.7786C63.5974 13.6079 66.472 13.6266 68.3014 11.7786C70.8774 9.20257 69.7014 4.7599 66.2107 3.84524C65.632 3.67724 64.3814 3.67724 63.8027 3.84524Z" fill="#30394A"/>
<path d="M54.3948 5.18925C53.0881 6.08525 52.3228 7.54125 52.3228 9.14658C52.3228 10.4719 52.7708 11.5546 53.7041 12.5066C54.2828 13.0852 55.3654 13.6826 55.8134 13.6826C55.9441 13.6826 56.2801 13.5146 56.5788 13.2906C58.0721 12.1892 58.7814 10.3786 58.4454 8.58658C58.1654 7.18658 57.2508 5.93592 56.0188 5.30125C55.1228 4.81592 54.9548 4.81592 54.3948 5.18925Z" fill="#30394A"/>
<path d="M44.7067 5.78665C43.4187 6.12265 42.2241 7.09332 41.6454 8.28798C41.2534 9.12798 41.0667 10.0053 41.1414 10.7893C41.4027 13.272 43.4374 15.12 45.9201 15.12C47.1707 15.12 48.2534 14.6533 49.1867 13.7387C50.1387 12.768 50.6241 11.4613 50.5307 10.0613C50.4001 8.17598 49.1681 6.57065 47.3947 5.93598C46.7227 5.69332 45.3601 5.61865 44.7067 5.78665Z" fill="#30394A"/>
<path d="M74.7041 6.70113C73.1174 7.13046 71.7734 8.47446 71.3441 10.0798C71.1761 10.6585 71.1947 11.9091 71.3441 12.5251C71.5307 13.2905 71.9227 13.9438 72.5014 14.5598C73.1361 15.2131 73.3227 15.2505 74.2561 14.9145C75.8054 14.3545 76.8507 13.2531 77.3174 11.7225C77.5414 10.9571 77.5041 9.70646 77.2427 8.92246C76.9627 8.13846 76.4774 7.39179 75.9547 6.92513C75.5254 6.51446 75.4134 6.49579 74.7041 6.70113Z" fill="#30394A"/>
<path d="M82.4507 8.92264C80.08 9.55731 78.568 11.9093 78.96 14.2986C79.2774 16.1466 80.7894 17.752 82.6 18.1253C85.064 18.6293 87.5467 17.08 88.1814 14.616C88.7974 12.1706 87.2667 9.55731 84.8027 8.92264C84.1494 8.73598 83.104 8.75464 82.4507 8.92264Z" fill="#30394A"/>
<path d="M35.0374 10.8825C34.0481 11.9465 33.6747 13.9625 34.1787 15.4185C34.8694 17.3598 36.6427 18.6665 38.6401 18.6665C39.2187 18.6665 39.2374 18.6665 39.4987 18.3491C40.0961 17.6211 40.4881 16.4638 40.4881 15.4185C40.4881 14.1305 40.0401 13.0665 39.1067 12.1145C38.3974 11.3865 37.6694 10.9945 36.6987 10.7891C35.7094 10.5838 35.3174 10.6025 35.0374 10.8825Z" fill="#30394A"/>
<path d="M27.9254 14.4853C26.9174 14.6533 25.8347 15.232 25.1814 15.96C24.7707 16.4453 24.2481 17.3973 24.0987 17.9947C23.9307 18.6853 23.9681 19.8613 24.1734 20.5333C24.5094 21.5973 25.3494 22.6613 26.3387 23.24C28.1307 24.304 30.8374 23.8933 32.1627 22.3627C32.9654 21.4293 33.3574 20.4027 33.3574 19.152C33.3574 18.144 33.1521 17.3973 32.6481 16.6507C31.6027 15.0453 29.7547 14.2053 27.9254 14.4853Z" fill="#30394A"/>
<path d="M91.5788 15.5118C89.4881 16.0531 88.0134 17.9385 88.0134 20.1038C88.0134 21.3358 88.5174 22.6985 89.0028 22.8105C90.7388 23.1651 92.2321 22.7171 93.4454 21.5038C94.4161 20.5331 94.8081 19.5811 94.8081 18.1998C94.8081 17.0985 94.3601 15.6985 93.9494 15.5305C93.6508 15.3811 92.1201 15.3811 91.5788 15.5118Z" fill="#30394A"/>
<path d="M97.7574 20.4399C95.4428 21.1866 94.0428 23.4452 94.4534 25.7599C95.1068 29.5119 99.6801 30.9679 102.405 28.2799C103.413 27.2906 103.861 26.0959 103.787 24.6399C103.675 22.6799 102.424 21.0372 100.52 20.4586C99.7921 20.2159 98.4668 20.2159 97.7574 20.4399Z" fill="#30394A"/>
<path d="M19.9175 22.8853C18.9841 23.1466 18.8721 23.24 18.7041 23.8C18.1815 25.6106 18.9281 27.7573 20.4961 28.8773C21.8588 29.848 23.4081 30.0533 25.0135 29.456C25.5175 29.2693 25.5175 29.2506 25.6668 28.7653C25.7601 28.4666 25.8161 27.9626 25.8161 27.4586C25.8161 25.312 24.3788 23.464 22.2695 22.9226C21.6535 22.736 20.4588 22.736 19.9175 22.8853Z" fill="#30394A"/>
<path d="M14.672 28.9518C12.264 29.5305 10.696 32.0131 11.2 34.4211C11.592 36.3064 13.0107 37.7438 14.8773 38.1358C15.6987 38.3225 16.184 38.3038 16.9867 38.0985C17.9013 37.8745 18.5547 37.4825 19.2453 36.7918C20.1413 35.8771 20.5147 34.9251 20.5147 33.5438C20.5333 30.4825 17.6587 28.2238 14.672 28.9518Z" fill="#30394A"/>
<path d="M103.973 29.8479C101.957 30.4079 100.52 32.2746 100.52 34.3653C100.52 35.4479 100.52 35.4479 101.36 35.8586C102.797 36.5679 104.123 36.5866 105.579 35.8773C106.773 35.3173 107.781 34.0479 108.099 32.7413C108.267 32.0319 108.248 30.8186 108.061 30.6133C107.856 30.3893 107.053 29.9973 106.493 29.8479C105.896 29.6799 104.552 29.6799 103.973 29.8479Z" fill="#30394A"/>
<path d="M108.715 36.5678C107.595 36.7545 106.661 37.2772 105.952 38.0798C104.627 39.5358 104.365 41.6452 105.243 43.4185C105.579 44.0718 106.512 45.0052 107.203 45.3785C110.376 47.0398 114.184 44.7812 114.184 41.2158C114.184 38.7518 112.28 36.7358 109.76 36.5492C109.405 36.5118 108.939 36.5305 108.715 36.5678Z" fill="#30394A"/>
<path d="M10.528 39.4611C9.81867 39.6478 9.14667 40.0398 8.62401 40.5251L8.13867 40.9731L8.23201 41.6451C8.54934 43.7358 10.2107 45.3598 12.3013 45.6771C13.608 45.8638 15.0453 45.4345 16.072 44.5198C16.5947 44.0718 16.632 43.8665 16.3893 42.9331C15.96 41.2531 14.7093 39.9465 13.0667 39.4611C12.4693 39.3118 11.144 39.2931 10.528 39.4611Z" fill="#30394A"/>
<path d="M8.32538 46.9093C4.94671 47.4693 3.24804 51.2213 5.07738 54.096C5.91738 55.4213 7.22405 56.168 8.86671 56.2426C10.2107 56.2986 11.2374 55.9253 12.2454 55.0293C13.9254 53.5173 14.28 50.9413 13.048 49.0746C12.0027 47.4693 10.136 46.6106 8.32538 46.9093Z" fill="#30394A"/>
<path d="M110.619 47.6559C108.957 48.0666 107.576 49.4292 107.109 51.1092C106.997 51.5012 107.016 51.5386 107.221 51.8186C107.837 52.6212 108.64 53.1999 109.573 53.5546C110.32 53.8159 111.608 53.8532 112.373 53.6292C113.848 53.1999 115.005 52.0986 115.565 50.6239C115.845 49.8399 115.827 49.7466 115.173 49.0559C113.997 47.8052 112.243 47.2639 110.619 47.6559Z" fill="#30394A"/>
<path d="M111.944 55.608C110.339 56.0373 109.013 57.3626 108.584 58.9866C108.509 59.2293 108.453 59.752 108.453 60.144C108.453 61.4693 108.92 62.552 109.872 63.4853C110.824 64.4186 111.832 64.8293 113.176 64.8293C114.52 64.8293 115.584 64.3813 116.517 63.448C119.056 60.9093 117.917 56.6346 114.427 55.6266C113.829 55.4213 112.597 55.4213 111.944 55.608Z" fill="#30394A"/>
<path d="M7.82139 58.2585C6.49606 58.6132 5.22673 59.7332 4.72273 60.9279C4.59206 61.2452 4.59206 61.2639 4.87206 61.8052C5.41339 62.8692 6.62673 63.8212 7.80273 64.1385C8.40006 64.3065 9.66939 64.3065 10.2481 64.1385C11.4427 63.8212 12.6561 62.8505 13.2161 61.7492L13.5334 61.1519L13.2721 60.6479C12.8987 59.9199 11.9094 58.9305 11.1814 58.5945C10.8641 58.4452 10.4161 58.2772 10.2107 58.2212C9.63206 58.0905 8.38139 58.1279 7.82139 58.2585Z" fill="#30394A"/>
<path d="M8.0827 66.2852C5.65603 66.9385 4.12536 69.3652 4.62936 71.7545C5.0027 73.4905 6.27203 74.8532 7.98936 75.3758C8.62403 75.5625 9.83736 75.5625 10.5094 75.3758C12.3574 74.8345 13.664 73.3412 13.944 71.4558C14.2987 69.1412 12.7494 66.8825 10.416 66.2852C9.7627 66.1172 8.71736 66.1172 8.0827 66.2852Z" fill="#30394A"/>
<path d="M110.283 66.6398C109.984 66.7145 109.499 66.8825 109.2 67.0318C108.603 67.3305 107.688 68.1332 107.389 68.5998C107.221 68.8612 107.203 68.9545 107.296 69.2905C107.557 70.2985 108.397 71.4185 109.312 72.0345C111.328 73.3785 114.184 72.8745 115.621 70.9518L116.013 70.4478L115.864 69.9812C115.285 68.0212 113.587 66.6772 111.533 66.5838C111.104 66.5278 110.6 66.5652 110.283 66.6398Z" fill="#30394A"/>
<path d="M108.547 74.5733C107.8 74.76 107.035 75.2266 106.419 75.8426C103.507 78.7546 105.672 83.832 109.816 83.8133C111.571 83.8133 113.195 82.8426 113.979 81.312C114.371 80.528 114.539 79.912 114.52 78.9973C114.501 76.4586 112.373 74.4053 109.816 74.424C109.387 74.4426 108.827 74.4986 108.547 74.5733Z" fill="#30394A"/>
<path d="M12.4134 76.7012C10.6214 77.0745 9.20271 78.4372 8.73604 80.2665C8.53071 81.0879 8.54938 81.4799 8.84805 81.7599C9.27738 82.1519 9.91205 82.5439 10.528 82.7865C11.3867 83.1225 12.7307 83.1412 13.608 82.8239C14.3547 82.5625 15.1387 82.0399 15.68 81.4612C16.352 80.7145 16.8747 79.4079 16.8747 78.4932C16.8747 78.2505 16.8 78.1199 16.5014 77.8399C15.4747 76.8692 13.8134 76.4212 12.4134 76.7012Z" fill="#30394A"/>
<path d="M15.0081 84.2612C12.9734 84.9519 11.7228 86.6692 11.7228 88.7786C11.7228 90.6079 12.6934 92.1759 14.3361 92.9599C16.8374 94.1546 19.7308 93.0532 20.7948 90.4772C20.9068 90.2159 21.0374 89.6932 21.0934 89.3012C21.2801 87.9386 20.7948 86.4639 19.7868 85.4372C18.8534 84.4852 17.7334 84.0559 16.3521 84.0559C15.8108 84.0559 15.4188 84.1119 15.0081 84.2612Z" fill="#30394A"/>
<path d="M103.059 84.1865C102.517 84.2985 101.771 84.6345 101.304 84.9705C101.061 85.1385 101.061 85.1572 101.061 85.9785C101.061 88.1439 102.368 89.9172 104.44 90.5519C105.784 90.9625 107.781 90.6079 108.603 89.7865C108.789 89.5999 108.808 89.4879 108.808 88.8719C108.808 86.9865 107.781 85.3252 106.12 84.5412C105.093 84.0559 104.141 83.9439 103.059 84.1865Z" fill="#30394A"/>
<path d="M98.5787 91.0559C95.7974 91.8026 94.3414 94.9386 95.5734 97.5519C95.984 98.4106 96.488 99.0079 97.1974 99.4933C98.2987 100.24 99.5494 100.483 100.763 100.24C104.029 99.5493 105.541 96.0026 103.805 93.1093C103.227 92.1386 102.125 91.3546 101.005 91.0559C100.371 90.8879 99.2134 90.8879 98.5787 91.0559Z" fill="#30394A"/>
<path d="M22.8667 92.456C21.1493 92.8853 19.712 94.36 19.3573 96.04C19.2267 96.656 19.2827 98 19.4693 98.5226C19.6747 99.0826 20.4587 99.3626 21.8213 99.3626C23.968 99.3626 25.7227 98 26.3387 95.8346C26.5253 95.2186 26.488 93.744 26.2827 93.1653C26.1707 92.848 26.096 92.7733 25.6293 92.5866C24.9947 92.3626 23.6133 92.2693 22.8667 92.456Z" fill="#30394A"/>
<path d="M89.9547 97.9439C89.5441 98.0372 89.4694 98.1119 89.2641 98.5599C88.8347 99.5305 88.7227 100.8 88.9841 101.771C89.4321 103.469 90.8881 104.851 92.5681 105.205C93.3147 105.373 93.7067 105.373 94.4534 105.243L95.0321 105.149L95.2747 104.589C95.7227 103.581 95.8347 102.499 95.5921 101.435C95.2001 99.8106 93.8374 98.4292 92.2134 97.9999C91.6534 97.8692 90.4587 97.8319 89.9547 97.9439Z" fill="#30394A"/>
<path d="M28.3361 98.2985C26.7868 98.7465 25.5921 99.8665 25.0508 101.416C24.7708 102.2 24.7894 103.581 25.0881 104.44C26.0588 107.147 29.0081 108.341 31.6401 107.072C32.3308 106.736 33.4134 105.653 33.7308 104.981C34.6454 103.059 34.3094 100.968 32.8534 99.5119C31.6774 98.3172 29.8854 97.8505 28.3361 98.2985Z" fill="#30394A"/>
<path d="M83.3467 102.816C82.5254 103.021 81.8907 103.395 81.2747 104.011C79.3894 105.877 79.3894 108.808 81.2747 110.693C83.7761 113.195 87.9201 112.224 89.0401 108.901C89.9174 106.325 88.3681 103.488 85.6987 102.816C85.0454 102.629 83.9814 102.648 83.3467 102.816Z" fill="#30394A"/>
<path d="M38.5468 103.245C37.7068 103.45 36.9228 103.898 36.2881 104.552C34.6641 106.194 34.4401 108.621 35.7281 110.544C36.1948 111.253 36.3628 111.309 37.2961 111.141C38.9761 110.88 40.2268 109.965 40.9361 108.509C41.7388 106.848 41.5521 105 40.4321 103.525L40.1148 103.115H39.5548C39.2748 103.133 38.8081 103.189 38.5468 103.245Z" fill="#30394A"/>
<path d="M73.4907 106.53C70.9707 109.256 72.3334 113.568 75.9734 114.389C76.5894 114.538 76.5894 114.538 76.8694 114.314C77.0374 114.202 77.3174 113.885 77.5227 113.624C78.68 112.112 78.848 110.114 77.952 108.434C77.392 107.389 76.1787 106.418 75.0027 106.101C74.1814 105.877 74.0694 105.914 73.4907 106.53Z" fill="#30394A"/>
<path d="M45.9201 106.643C43.7548 107.109 42.1868 109.051 42.1868 111.272C42.1868 113.288 43.5121 115.136 45.4721 115.789C46.1254 116.013 47.4694 116.032 48.1414 115.827C49.4668 115.435 50.4934 114.557 51.0908 113.344C51.7814 111.944 51.7814 110.488 51.0908 109.088C50.6988 108.267 49.8028 107.408 48.9441 106.997C47.8988 106.512 47.0214 106.4 45.9201 106.643Z" fill="#30394A"/>
<path d="M55.9814 108.08C54.8054 108.659 53.8721 109.816 53.5361 111.085C53.4614 111.328 53.4054 111.869 53.4054 112.28C53.4054 113.176 53.5361 113.717 53.9467 114.501C54.3947 115.397 55.6641 116.555 56.1867 116.555C56.2614 116.555 56.5974 116.405 56.9707 116.237C58.1467 115.659 59.1734 114.389 59.4721 113.12C59.6027 112.541 59.6027 111.459 59.4721 110.899C59.2854 110.133 58.8374 109.331 58.2214 108.715C57.6801 108.155 57.0454 107.744 56.7654 107.744C56.6907 107.744 56.3361 107.912 55.9814 108.08Z" fill="#30394A"/>
<path d="M64.848 108.285C63.28 108.733 62.0293 109.984 61.5627 111.589C61.488 111.869 61.4133 112.392 61.4133 112.84C61.4133 114.24 61.8053 115.229 62.776 116.2C63.7467 117.171 64.736 117.563 66.1733 117.563C67.4987 117.563 68.6 117.077 69.5333 116.051C70.3547 115.155 70.7653 114.128 70.7653 112.877C70.7653 111.533 70.2987 110.413 69.384 109.499C68.208 108.304 66.3973 107.837 64.848 108.285Z" fill="#30394A"/>
</svg>
