<svg width="35" height="37" viewBox="0 0 35 37" fill="none" xmlns="http://www.w3.org/2000/svg">
  <path d="M32.06 15.4167C32.006 13.3956 31.8252 12.1067 31.2127 11.0075C30.3406 9.44272 28.7715 8.57168 25.6346 6.83268L22.7179 5.21393C20.1571 3.79405 18.8767 3.08334 17.5 3.08334C16.1233 3.08334 14.8429 3.79251 12.2821 5.21393L9.36542 6.83268C6.22854 8.57168 4.65937 9.44272 3.78729 11.0075C2.91667 12.5708 2.91667 14.5179 2.91667 18.4075V18.5879C2.91667 22.4806 2.91667 24.4277 3.78729 25.991C4.65937 27.5558 6.22854 28.4268 9.36542 30.1673L12.2821 31.7846C14.8429 33.206 16.1233 33.9167 17.5 33.9167C18.8767 33.9167 20.1571 33.2075 22.7179 31.7861L25.6346 30.1673C28.7715 28.4268 30.3406 27.5573 31.2127 25.9925C31.8252 24.8933 32.006 23.6045 32.06 21.5833M30.625 11.5625L24.7917 14.6458M24.7917 14.6458L24.0625 15.0313L17.5 18.5M24.7917 14.6458V20.0417M24.7917 14.6458L10.9375 6.93751M17.5 18.5L4.375 11.5625M17.5 18.5V33.1458" stroke="#9EBE8F" stroke-width="1.5" stroke-linecap="round"/>
</svg>