<svg width="38" height="38" viewBox="0 0 38 38" fill="none" xmlns="http://www.w3.org/2000/svg">
  <path d="M29.6875 23.75C29.6875 30.3087 25.5587 34.4375 19 34.4375C12.4413 34.4375 8.3125 30.3087 8.3125 23.75C8.3125 16.7119 15.9741 7.21037 18.3239 4.46205C18.4075 4.3644 18.5112 4.28602 18.628 4.23227C18.7448 4.17852 18.8718 4.1507 19.0004 4.1507C19.1289 4.1507 19.256 4.17852 19.3727 4.23227C19.4895 4.28602 19.5933 4.3644 19.6769 4.46205C22.0259 7.21037 29.6875 16.7119 29.6875 23.75Z" stroke="#9EBE8F" stroke-width="2.375" stroke-miterlimit="10"/>
  <path d="M25.5312 24.3438C25.5312 25.761 24.9682 27.1202 23.9661 28.1224C22.964 29.1245 21.6048 29.6875 20.1875 29.6875" stroke="#9EBE8F" stroke-width="2.375" stroke-linecap="round" stroke-linejoin="round"/>
</svg>