<svg width="156" height="156" viewBox="0 0 156 156" fill="none" xmlns="http://www.w3.org/2000/svg">
<path d="M81.8705 0.235764C80.803 0.515336 79.9389 1.04906 79.0493 1.93861C77.7277 3.26022 77.1686 4.60724 77.1686 6.488C77.1686 8.31792 77.7786 9.81744 79.0239 11.0374C81.5909 13.5281 85.5049 13.5535 87.9956 11.0374C91.503 7.53004 89.9018 1.48113 85.1491 0.235764C84.3612 0.00702392 82.6583 0.00702392 81.8705 0.235764Z" fill="#646E4C"/>
<path d="M69.061 2.0657C67.2819 3.28565 66.2399 5.26807 66.2399 7.45381C66.2399 9.25831 66.8498 10.7324 68.1206 12.0286C68.9085 12.8165 70.3826 13.6298 70.9926 13.6298C71.1705 13.6298 71.628 13.4011 72.0346 13.0961C74.0679 11.5965 75.0337 9.13124 74.5762 6.69134C74.195 4.78517 72.9496 3.08233 71.2722 2.2182C70.0522 1.55739 69.8235 1.55739 69.061 2.0657Z" fill="#646E4C"/>
<path d="M55.8703 2.87898C54.1166 3.33646 52.49 4.65807 51.7021 6.28467C51.1684 7.42837 50.9142 8.6229 51.0159 9.69036C51.3717 13.0706 54.142 15.5868 57.5223 15.5868C59.2251 15.5868 60.6992 14.9514 61.97 13.706C63.2662 12.3844 63.927 10.6053 63.8 8.69915C63.622 6.13217 61.9446 3.94643 59.5301 3.0823C58.6152 2.7519 56.7598 2.65024 55.8703 2.87898Z" fill="#646E4C"/>
<path d="M96.7132 4.12441C94.5528 4.70896 92.7229 6.53889 92.1384 8.72463C91.9096 9.51251 91.935 11.2154 92.1384 12.0541C92.3925 13.0961 92.9262 13.9857 93.7141 14.8244C94.5783 15.7139 94.8324 15.7647 96.1032 15.3073C98.2127 14.5448 99.636 13.0453 100.271 10.9612C100.576 9.91916 100.525 8.21631 100.17 7.14886C99.7884 6.08141 99.1276 5.06478 98.416 4.42939C97.8314 3.87025 97.679 3.84483 96.7132 4.12441Z" fill="#646E4C"/>
<path d="M107.261 7.14874C104.033 8.01287 101.974 11.2152 102.508 14.4684C102.94 16.9846 104.999 19.1703 107.464 19.6786C110.819 20.3648 114.199 18.2554 115.063 14.9005C115.902 11.5711 113.818 8.01287 110.463 7.14874C109.573 6.89458 108.15 6.92 107.261 7.14874Z" fill="#646E4C"/>
<path d="M42.705 9.81734C41.358 11.266 40.8497 14.0109 41.5359 15.9933C42.4763 18.6365 44.8907 20.4156 47.6102 20.4156C48.3981 20.4156 48.4235 20.4156 48.7793 19.9836C49.5926 18.9924 50.1263 17.4166 50.1263 15.9933C50.1263 14.2396 49.5164 12.791 48.2456 11.4948C47.2798 10.5036 46.2886 9.96983 44.967 9.69026C43.62 9.41069 43.0862 9.4361 42.705 9.81734Z" fill="#646E4C"/>
<path d="M33.0217 14.7226C31.6493 14.9513 30.1752 15.7392 29.2856 16.7304C28.7265 17.3912 28.0149 18.6874 27.8115 19.5007C27.5828 20.4411 27.6336 22.0423 27.9132 22.9572C28.3707 24.4059 29.5144 25.8546 30.8614 26.6425C33.3013 28.0912 36.9866 27.5321 38.7911 25.448C39.8839 24.1772 40.4177 22.7793 40.4177 21.0765C40.4177 19.7041 40.1381 18.6874 39.4519 17.6708C38.0286 15.4851 35.5125 14.3414 33.0217 14.7226Z" fill="#646E4C"/>
<path d="M119.689 16.1204C116.842 16.8575 114.834 19.4244 114.834 22.3726C114.834 24.0501 115.521 25.9054 116.181 26.0579C118.545 26.5408 120.578 25.9308 122.23 24.2788C123.552 22.9572 124.086 21.661 124.086 19.7802C124.086 18.2807 123.476 16.3746 122.917 16.1458C122.51 15.9425 120.426 15.9425 119.689 16.1204Z" fill="#646E4C"/>
<path d="M128.101 22.8302C124.95 23.8468 123.044 26.9221 123.603 30.0736C124.492 35.1821 130.719 37.1645 134.43 33.5047C135.802 32.1577 136.412 30.5311 136.311 28.5487C136.158 25.88 134.455 23.6434 131.863 22.8556C130.872 22.5252 129.067 22.5252 128.101 22.8302Z" fill="#646E4C"/>
<path d="M22.1185 26.1596C20.8477 26.5154 20.6952 26.6425 20.4665 27.405C19.7549 29.8703 20.7715 32.7931 22.9064 34.318C24.7617 35.6396 26.8712 35.9192 29.057 35.1059C29.7432 34.8517 29.7432 34.8263 29.9465 34.1655C30.0736 33.7589 30.1498 33.0726 30.1498 32.3864C30.1498 29.4636 28.1928 26.9475 25.3209 26.2104C24.4822 25.9563 22.8556 25.9563 22.1185 26.1596Z" fill="#646E4C"/>
<path d="M14.9767 34.4197C11.698 35.2075 9.56313 38.5878 10.2494 41.8664C10.7831 44.4334 12.7147 46.3904 15.2562 46.9241C16.3745 47.1783 17.0353 47.1529 18.1282 46.8733C19.3735 46.5683 20.2631 46.0346 21.2035 45.0942C22.4234 43.8488 22.9317 42.5526 22.9317 40.6719C22.9571 36.5037 19.0431 33.4284 14.9767 34.4197Z" fill="#646E4C"/>
<path d="M136.565 35.6396C133.82 36.402 131.863 38.9436 131.863 41.7901C131.863 43.2643 131.863 43.2643 133.007 43.8234C134.964 44.7892 136.768 44.8146 138.751 43.8488C140.377 43.0863 141.75 41.3581 142.182 39.579C142.41 38.6132 142.385 36.9612 142.131 36.6816C141.851 36.3766 140.758 35.8429 139.996 35.6396C139.183 35.4108 137.353 35.4108 136.565 35.6396Z" fill="#646E4C"/>
<path d="M143.02 44.7892C141.495 45.0434 140.225 45.755 139.259 46.8479C137.454 48.8303 137.098 51.7022 138.293 54.1167C138.75 55.0063 140.021 56.2771 140.962 56.7854C145.282 59.0473 150.467 55.9721 150.467 51.1177C150.467 47.7628 147.875 45.0179 144.444 44.7638C143.961 44.713 143.325 44.7384 143.02 44.7892Z" fill="#646E4C"/>
<path d="M9.33437 48.7286C8.36858 48.9827 7.45362 49.5165 6.74198 50.1773L6.08118 50.7872L6.20825 51.7022C6.64032 54.5487 8.90231 56.7599 11.7489 57.192C13.5279 57.4461 15.4849 56.8616 16.8828 55.6162C17.5944 55.0062 17.6453 54.7266 17.3149 53.4559C16.7303 51.1685 15.0275 49.3894 12.7909 48.7286C11.9776 48.5252 10.1731 48.4998 9.33437 48.7286Z" fill="#646E4C"/>
<path d="M6.33535 58.8695C1.73513 59.632 -0.577689 64.7405 1.91304 68.6545C3.05674 70.459 4.83583 71.4756 7.0724 71.5773C8.90232 71.6535 10.3002 71.1452 11.6726 69.9253C13.96 67.8666 14.4429 64.3593 12.7655 61.8177C11.3422 59.632 8.80066 58.4629 6.33535 58.8695Z" fill="#646E4C"/>
<path d="M145.613 59.8861C143.351 60.4453 141.47 62.3006 140.835 64.588C140.682 65.1218 140.708 65.1726 140.987 65.5538C141.826 66.6467 142.919 67.4346 144.19 67.9175C145.206 68.2733 146.96 68.3241 148.002 68.0191C150.01 67.4346 151.585 65.9351 152.348 63.9272C152.729 62.8598 152.704 62.7327 151.814 61.7923C150.213 60.0895 147.824 59.3524 145.613 59.8861Z" fill="#646E4C"/>
<path d="M147.417 70.7132C145.232 71.2977 143.427 73.1023 142.842 75.3134C142.741 75.6438 142.665 76.3555 142.665 76.8892C142.665 78.6937 143.3 80.1678 144.596 81.4386C145.892 82.7093 147.265 83.2685 149.095 83.2685C150.925 83.2685 152.373 82.6585 153.644 81.3877C157.101 77.9312 155.55 72.111 150.798 70.7386C149.984 70.459 148.307 70.459 147.417 70.7132Z" fill="#646E4C"/>
<path d="M5.64916 74.3222C3.84465 74.8051 2.11639 76.33 1.43017 77.9566C1.25226 78.3887 1.25226 78.4141 1.6335 79.1511C2.37055 80.5998 4.02256 81.896 5.62374 82.3281C6.43704 82.5568 8.1653 82.5568 8.95318 82.3281C10.5798 81.896 12.2318 80.5744 12.9943 79.0749L13.4263 78.2616L13.0705 77.5754C12.5622 76.5842 11.2152 75.2371 10.224 74.7797C9.7919 74.5763 9.18192 74.3476 8.90235 74.2713C8.11447 74.0934 6.41163 74.1443 5.64916 74.3222Z" fill="#646E4C"/>
<path d="M6.00496 85.2509C2.70094 86.1404 0.616861 89.4445 1.30308 92.6977C1.81139 95.0613 3.53965 96.9166 5.87789 97.6283C6.74202 97.8824 8.39403 97.8824 9.30899 97.6283C11.8251 96.8912 13.6042 94.858 13.9855 92.291C14.4684 89.1395 12.3589 86.0642 9.18191 85.2509C8.29237 85.0222 6.86909 85.0222 6.00496 85.2509Z" fill="#646E4C"/>
<path d="M145.155 85.7338C144.749 85.8355 144.088 86.0642 143.681 86.2675C142.868 86.6742 141.623 87.7671 141.216 88.4024C140.987 88.7583 140.962 88.8853 141.089 89.3428C141.445 90.7153 142.588 92.2402 143.834 93.0789C146.579 94.9088 150.467 94.2226 152.424 91.6048L152.958 90.9186L152.755 90.2832C151.967 87.6146 149.654 85.7846 146.858 85.6576C146.274 85.5813 145.587 85.6321 145.155 85.7338Z" fill="#646E4C"/>
<path d="M142.792 96.5355C141.775 96.7897 140.733 97.4251 139.894 98.2638C135.929 102.229 138.878 109.142 144.52 109.116C146.909 109.116 149.12 107.795 150.188 105.711C150.721 104.643 150.95 103.804 150.925 102.559C150.899 99.1025 148.002 96.3068 144.52 96.3322C143.935 96.3576 143.173 96.4339 142.792 96.5355Z" fill="#646E4C"/>
<path d="M11.9014 99.4326C9.46151 99.9409 7.52993 101.796 6.89454 104.287C6.61497 105.405 6.64038 105.939 7.04703 106.32C7.63159 106.854 8.49572 107.388 9.33443 107.718C10.5036 108.176 12.3335 108.201 13.528 107.769C14.5446 107.413 15.6121 106.701 16.3491 105.914C17.2641 104.897 17.9757 103.118 17.9757 101.872C17.9757 101.542 17.8741 101.364 17.4674 100.983C16.0696 99.6613 13.8076 99.0514 11.9014 99.4326Z" fill="#646E4C"/>
<path d="M15.4341 109.726C12.6638 110.666 10.9609 113.005 10.9609 115.877C10.9609 118.367 12.2825 120.502 14.5191 121.57C17.9248 123.196 21.8642 121.697 23.3129 118.19C23.4654 117.834 23.6433 117.122 23.7196 116.588C23.9737 114.733 23.3129 112.725 21.9405 111.327C20.6697 110.031 19.1448 109.447 17.264 109.447C16.5269 109.447 15.9932 109.523 15.4341 109.726Z" fill="#646E4C"/>
<path d="M135.319 109.624C134.582 109.777 133.566 110.234 132.93 110.692C132.6 110.921 132.6 110.946 132.6 112.064C132.6 115.012 134.379 117.427 137.2 118.291C139.03 118.85 141.75 118.367 142.868 117.249C143.122 116.995 143.147 116.842 143.147 116.004C143.147 113.437 141.75 111.175 139.488 110.107C138.09 109.446 136.794 109.294 135.319 109.624Z" fill="#646E4C"/>
<path d="M129.22 118.977C125.433 119.994 123.45 124.264 125.128 127.822C125.687 128.991 126.373 129.805 127.339 130.465C128.838 131.482 130.541 131.812 132.193 131.482C136.641 130.542 138.7 125.713 136.336 121.773C135.548 120.452 134.049 119.384 132.524 118.977C131.66 118.749 130.084 118.749 129.22 118.977Z" fill="#646E4C"/>
<path d="M26.1341 120.884C23.7959 121.468 21.8389 123.476 21.356 125.763C21.1781 126.602 21.2543 128.432 21.5085 129.144C21.7881 129.906 22.8555 130.287 24.7109 130.287C27.6336 130.287 30.0227 128.432 30.8614 125.484C31.1156 124.645 31.0647 122.637 30.7852 121.849C30.6327 121.417 30.531 121.316 29.8956 121.062C29.0315 120.757 27.1507 120.629 26.1341 120.884Z" fill="#646E4C"/>
<path d="M117.478 128.355C116.918 128.483 116.817 128.584 116.537 129.194C115.953 130.516 115.8 132.244 116.156 133.566C116.766 135.878 118.748 137.759 121.036 138.242C122.052 138.471 122.586 138.471 123.603 138.293L124.391 138.166L124.721 137.403C125.331 136.031 125.484 134.557 125.153 133.108C124.619 130.897 122.764 129.016 120.553 128.432C119.79 128.254 118.164 128.203 117.478 128.355Z" fill="#646E4C"/>
<path d="M33.5809 128.839C31.4714 129.449 29.8448 130.973 29.1078 133.083C28.7265 134.15 28.7519 136.031 29.1586 137.2C30.4802 140.886 34.4959 142.512 38.0795 140.784C39.0198 140.326 40.4939 138.852 40.926 137.937C42.1714 135.32 41.7139 132.473 39.7315 130.491C38.1303 128.864 35.6904 128.229 33.5809 128.839Z" fill="#646E4C"/>
<path d="M108.481 134.989C107.362 135.269 106.498 135.777 105.659 136.616C103.093 139.157 103.093 143.147 105.659 145.714C109.065 149.12 114.707 147.799 116.232 143.275C117.427 139.767 115.317 135.904 111.683 134.989C110.793 134.735 109.345 134.76 108.481 134.989Z" fill="#646E4C"/>
<path d="M47.4832 135.574C46.3395 135.853 45.272 136.463 44.4079 137.353C42.1967 139.589 41.8917 142.893 43.6454 145.511C44.2808 146.477 44.5095 146.553 45.7803 146.324C48.0677 145.969 49.7706 144.723 50.7364 142.741C51.8292 140.479 51.5751 137.963 50.0501 135.955L49.6181 135.396H48.8556C48.4744 135.421 47.839 135.497 47.4832 135.574Z" fill="#646E4C"/>
<path d="M95.0611 140.047C91.63 143.757 93.4853 149.628 98.4414 150.747C99.2801 150.95 99.2801 150.95 99.6613 150.645C99.8901 150.493 100.271 150.061 100.551 149.705C102.127 147.646 102.355 144.927 101.135 142.639C100.373 141.216 98.7209 139.894 97.1198 139.462C96.0015 139.157 95.849 139.208 95.0611 140.047Z" fill="#646E4C"/>
<path d="M57.5223 140.199C54.5741 140.835 52.4392 143.478 52.4392 146.502C52.4392 149.247 54.2437 151.763 56.9124 152.653C57.8019 152.958 59.6318 152.983 60.5468 152.704C62.3513 152.17 63.7491 150.976 64.5624 149.324C65.5028 147.417 65.5028 145.435 64.5624 143.529C64.0287 142.41 62.8088 141.241 61.6397 140.682C60.2164 140.021 59.0218 139.869 57.5223 140.199Z" fill="#646E4C"/>
<path d="M71.2213 142.156C69.6202 142.944 68.3494 144.52 67.8919 146.248C67.7902 146.579 67.714 147.316 67.714 147.875C67.714 149.095 67.8919 149.832 68.451 150.899C69.061 152.119 70.7893 153.695 71.5009 153.695C71.6026 153.695 72.0601 153.492 72.5684 153.263C74.1695 152.475 75.5674 150.747 75.9741 149.018C76.152 148.231 76.152 146.756 75.9741 145.994C75.7199 144.952 75.1099 143.859 74.2712 143.02C73.5342 142.258 72.67 141.699 72.2888 141.699C72.1871 141.699 71.7042 141.927 71.2213 142.156Z" fill="#646E4C"/>
<path d="M83.2938 142.436C81.1589 143.046 79.456 144.749 78.8206 146.935C78.719 147.316 78.6173 148.027 78.6173 148.637C78.6173 150.544 79.151 151.891 80.4726 153.212C81.7943 154.534 83.1413 155.068 85.0983 155.068C86.9028 155.068 88.4023 154.407 89.6731 153.009C90.7914 151.789 91.3505 150.391 91.3505 148.688C91.3505 146.858 90.7151 145.333 89.4698 144.088C87.8686 142.461 85.4033 141.826 83.2938 142.436Z" fill="#646E4C"/>
</svg>
