<svg width="55" height="55" viewBox="0 0 36 36" fill="none" xmlns="http://www.w3.org/2000/svg">
  <path d="M11.25 10.125H31.5M11.25 18H31.5M11.25 25.875H31.5" stroke="black" stroke-width="2.25" stroke-linecap="round" stroke-linejoin="round"/>
  <path d="M5.625 11.25C6.24632 11.25 6.75 10.7463 6.75 10.125C6.75 9.50368 6.24632 9 5.625 9C5.00368 9 4.5 9.50368 4.5 10.125C4.5 10.7463 5.00368 11.25 5.625 11.25Z" stroke="black" stroke-width="2.25" stroke-linecap="round" stroke-linejoin="round"/>
  <path d="M5.625 19.125C6.24632 19.125 6.75 18.6213 6.75 18C6.75 17.3787 6.24632 16.875 5.625 16.875C5.00368 16.875 4.5 17.3787 4.5 18C4.5 18.6213 5.00368 19.125 5.625 19.125Z" stroke="black" stroke-width="2.25" stroke-linecap="round" stroke-linejoin="round"/>
  <path d="M5.625 27C6.24632 27 6.75 26.4963 6.75 25.875C6.75 25.2537 6.24632 24.75 5.625 24.75C5.00368 24.75 4.5 25.2537 4.5 25.875C4.5 26.4963 5.00368 27 5.625 27Z" stroke="black" stroke-width="2.25" stroke-linecap="round" stroke-linejoin="round"/>
</svg>