<svg xmlns="http://www.w3.org/2000/svg" width="42" height="41" viewBox="0 0 42 41" fill="none">
	<path d="M17.1875 22.5H1.14583C0.458333 22.5 0 22.95 0 23.625V39.375C0 40.05 0.458333 40.5 1.14583 40.5H17.1875C17.875 40.5 18.3333 40.05 18.3333 39.375V23.625C18.3333 22.95 17.875 22.5 17.1875 22.5ZM16.0417 38.25H2.29167V24.75H16.0417V38.25ZM17.1875 0H1.14583C0.458333 0 0 0.45 0 1.125V16.875C0 17.55 0.458333 18 1.14583 18H17.1875C17.875 18 18.3333 17.55 18.3333 16.875V1.125C18.3333 0.45 17.875 0 17.1875 0ZM16.0417 15.75H2.29167V2.25H16.0417V15.75ZM40.1042 0H24.0625C23.375 0 22.9167 0.45 22.9167 1.125V16.875C22.9167 17.55 23.375 18 24.0625 18H40.1042C40.7917 18 41.25 17.55 41.25 16.875V1.125C41.25 0.45 40.7917 0 40.1042 0ZM38.9583 15.75H25.2083V2.25H38.9583V15.75ZM40.1042 30.375H33.2292V23.625C33.2292 22.95 32.7708 22.5 32.0833 22.5C31.3958 22.5 30.9375 22.95 30.9375 23.625V30.375H24.0625C23.375 30.375 22.9167 30.825 22.9167 31.5C22.9167 32.175 23.375 32.625 24.0625 32.625H30.9375V39.375C30.9375 40.05 31.3958 40.5 32.0833 40.5C32.7708 40.5 33.2292 40.05 33.2292 39.375V32.625H40.1042C40.7917 32.625 41.25 32.175 41.25 31.5C41.25 30.825 40.7917 30.375 40.1042 30.375Z" fill="black" />
</svg>
