<svg width="31" height="32" viewBox="0 0 31 32" fill="none" xmlns="http://www.w3.org/2000/svg">
	<path opacity="0.4" d="M15.5 31.1854C24.0603 31.1854 31 24.2042 31 15.5927C31 6.98109 24.0603 0 15.5 0C6.93958 0 0 6.98109 0 15.5927C0 24.2042 6.93958 31.1854 15.5 31.1854Z" fill="#292D32" />
	<path d="M13.2983 21.175C12.9883 21.175 12.6938 21.0503 12.4768 20.832L8.09018 16.4193C7.64068 15.9671 7.64068 15.2186 8.09018 14.7664C8.53968 14.3142 9.28368 14.3142 9.73318 14.7664L13.2983 18.3528L21.2653 10.3381C21.7148 9.88592 22.4588 9.88592 22.9083 10.3381C23.3578 10.7903 23.3578 11.5387 22.9083 11.9909L14.1198 20.832C13.9028 21.0503 13.6083 21.175 13.2983 21.175Z" fill="#292D32" />
</svg>
