<svg xmlns="http://www.w3.org/2000/svg" width="59" height="70" viewBox="0 0 59 70" fill="none">
	<path d="M18.4375 19.6875H51.625M18.4375 35H51.625M18.4375 50.3125H51.625" stroke="black" stroke-width="2.25" stroke-linecap="round" stroke-linejoin="round" />
	<path d="M9.21875 21.875C10.237 21.875 11.0625 20.8956 11.0625 19.6875C11.0625 18.4794 10.237 17.5 9.21875 17.5C8.20047 17.5 7.375 18.4794 7.375 19.6875C7.375 20.8956 8.20047 21.875 9.21875 21.875Z" stroke="black" stroke-width="2.25" stroke-linecap="round" stroke-linejoin="round" />
	<path d="M9.21875 37.1875C10.237 37.1875 11.0625 36.2081 11.0625 35C11.0625 33.7919 10.237 32.8125 9.21875 32.8125C8.20047 32.8125 7.375 33.7919 7.375 35C7.375 36.2081 8.20047 37.1875 9.21875 37.1875Z" stroke="black" stroke-width="2.25" stroke-linecap="round" stroke-linejoin="round" />
	<path d="M9.21875 52.5C10.237 52.5 11.0625 51.5206 11.0625 50.3125C11.0625 49.1044 10.237 48.125 9.21875 48.125C8.20047 48.125 7.375 49.1044 7.375 50.3125C7.375 51.5206 8.20047 52.5 9.21875 52.5Z" stroke="black" stroke-width="2.25" stroke-linecap="round" stroke-linejoin="round" />
</svg>
