<svg width="35" height="36" viewBox="0 0 35 36" fill="none" xmlns="http://www.w3.org/2000/svg">
<rect width="35" height="36" rx="12" fill="#D9D9D9"/>
<path d="M29.0466 11.8264C29.0209 11.8264 28.9824 11.8264 28.944 11.8264C22.161 11.2629 15.3907 11.0503 8.68461 11.6138L6.06884 11.8264C5.5303 11.869 5.05588 11.55 5.00459 11.1034C4.9533 10.6569 5.33797 10.2741 5.86369 10.2316L8.47945 10.0189C15.301 9.44478 22.2122 9.66806 29.1363 10.2316C29.662 10.2741 30.0467 10.6675 29.9954 11.1034C29.9569 11.5181 29.5338 11.8264 29.0466 11.8264Z" fill="#292D32"/>
<path d="M13.02 10.7527C12.9687 10.7527 12.9174 10.7527 12.8533 10.7421C12.3404 10.6676 11.9814 10.253 12.0711 9.82767L12.3532 8.43482C12.5584 7.41411 12.8405 6 15.828 6H19.1875C22.1879 6 22.47 7.46727 22.6624 8.44545L22.9445 9.82767C23.0342 10.2636 22.6752 10.6783 22.1623 10.7421C21.6366 10.8165 21.1365 10.5188 21.0596 10.0935L20.7775 8.71126C20.598 7.78624 20.5595 7.60549 19.2003 7.60549H15.8409C14.4818 7.60549 14.4561 7.75435 14.2638 8.70063L13.9689 10.0828C13.8919 10.4762 13.4816 10.7527 13.02 10.7527Z" fill="#292D32"/>
<path d="M21.6233 28.8597H13.3913C8.91628 28.8597 8.73676 26.8077 8.59572 25.149L7.76227 14.4421C7.7238 14.0062 8.13411 13.6234 8.65983 13.5915C9.19837 13.5703 9.64715 13.8999 9.68562 14.3358L10.5191 25.0427C10.6601 26.6588 10.7114 27.2648 13.3913 27.2648H21.6233C24.3159 27.2648 24.3672 26.6588 24.4955 25.0427L25.3289 14.3358C25.3674 13.8999 25.829 13.5703 26.3547 13.5915C26.8804 13.6234 27.2907 13.9956 27.2523 14.4421L26.4188 25.149C26.2778 26.8077 26.0983 28.8597 21.6233 28.8597Z" fill="#292D32"/>
<path d="M19.6355 23.0119H15.3656C14.8399 23.0119 14.4039 22.6504 14.4039 22.2144C14.4039 21.7785 14.8399 21.417 15.3656 21.417H19.6355C20.1612 21.417 20.5972 21.7785 20.5972 22.2144C20.5972 22.6504 20.1612 23.0119 19.6355 23.0119Z" fill="#292D32"/>
<path d="M20.7125 18.7589H14.3013C13.7756 18.7589 13.3396 18.3974 13.3396 17.9615C13.3396 17.5256 13.7756 17.1641 14.3013 17.1641H20.7125C21.2382 17.1641 21.6741 17.5256 21.6741 17.9615C21.6741 18.3974 21.2382 18.7589 20.7125 18.7589Z" fill="#292D32"/>
</svg>
