<svg width="89" height="90" viewBox="0 0 89 90" fill="none" xmlns="http://www.w3.org/2000/svg">
	<path d="M27.034 24.275L27.4932 24.6554L68.5088 63.545C69.0464 64.0543 69.4498 64.6765 69.6862 65.3613C69.9227 66.0461 69.9856 66.7741 69.8697 67.4862C69.7539 68.1983 69.4627 68.8745 69.0196 69.4599C68.5766 70.0453 67.9942 70.5234 67.3198 70.8554L66.7592 71.0846L16.565 88.625C7.13033 91.925 -2.05784 83.5146 0.808331 74.5817L1.05 73.9125L19.5423 26.3146C19.7868 25.6841 20.1745 25.1122 20.6778 24.6395C21.1812 24.1669 21.788 23.8049 22.4553 23.5792C23.1226 23.3536 23.834 23.2698 24.5392 23.3338C25.2444 23.3978 25.9261 23.608 26.5362 23.9496L27.034 24.2704V24.275ZM70.6838 44.185C75.087 44.405 81.1238 45.285 86.3728 48.2733C87.437 48.8716 88.2187 49.8339 88.557 50.9623C88.8954 52.0906 88.7646 53.2991 88.1916 54.3387C87.6187 55.3784 86.6471 56.1702 85.4771 56.551C84.307 56.9318 83.0275 56.8727 81.902 56.3858L81.3993 56.1338C78.103 54.2546 73.8883 53.5213 70.1763 53.3379C68.6469 53.254 67.1133 53.2601 65.5847 53.3563L64.0573 53.4983C62.7965 53.6526 61.5223 53.3297 60.5108 52.5994C59.4993 51.8691 58.832 50.7903 58.6534 49.5967C58.4747 48.4031 58.7992 47.1909 59.5565 46.2225C60.3137 45.2542 61.4428 44.6078 62.6992 44.4233C65.3463 44.0991 68.0202 44.0177 70.6838 44.1804V44.185ZM80.4713 31.4158C81.7028 31.4183 82.8869 31.8664 83.7818 32.6687C84.6767 33.471 85.2148 34.567 85.2864 35.7328C85.3579 36.8987 84.9575 38.0465 84.1668 38.9418C83.3762 39.8371 82.2549 40.4125 81.032 40.5504L80.4713 40.5825H77.0493C75.8178 40.5801 74.6337 40.1319 73.7389 39.3296C72.844 38.5273 72.3059 37.4313 72.2343 36.2655C72.1627 35.0997 72.5632 33.9519 73.3538 33.0565C74.1445 32.1612 75.2658 31.5858 76.4887 31.4479L77.0493 31.4158H80.4713ZM65.0917 27.8958C65.9239 28.6851 66.4238 29.7351 66.4976 30.849C66.5715 31.9628 66.2142 33.064 65.4928 33.9458L65.0917 34.3767L59.9635 39.2396C59.0937 40.0616 57.9266 40.5388 56.6991 40.5744C55.4717 40.6099 54.2761 40.2011 53.355 39.431C52.4339 38.6608 51.8565 37.5871 51.7401 36.4278C51.6236 35.2686 51.9768 34.1108 52.728 33.1896L53.1292 32.7588L58.2525 27.9004C58.7014 27.4743 59.2344 27.1362 59.8212 26.9056C60.408 26.6749 61.0369 26.5562 61.6721 26.5562C62.3073 26.5562 62.9362 26.6749 63.523 26.9056C64.1097 27.1362 64.6428 27.4697 65.0917 27.8958ZM52.5878 3.76001C54.7532 9.92917 53.5932 16.685 52.2398 21.4058C51.4265 24.349 50.3094 27.2091 48.9048 29.9446C48.3325 31.0325 47.3278 31.8603 46.1118 32.2458C44.8959 32.6313 43.5682 32.543 42.4209 32.0002C41.2736 31.4575 40.4007 30.5048 39.9942 29.3517C39.5876 28.1986 39.6808 26.9396 40.2532 25.8517C41.374 23.6542 42.2644 21.3576 42.9115 18.995C44.0087 15.1817 44.5597 11.0429 43.7138 7.65126L43.419 6.66126C43.2084 6.08806 43.1199 5.4809 43.1587 4.87502C43.1975 4.26913 43.3629 3.6766 43.6452 3.13181C43.9275 2.58702 44.3211 2.10083 44.8031 1.70146C45.2852 1.30209 45.8461 0.997495 46.4533 0.805363C47.0605 0.61323 47.7019 0.537384 48.3402 0.582227C48.9786 0.62707 49.6012 0.791711 50.1719 1.06659C50.7426 1.34147 51.2501 1.72111 51.6648 2.18347C52.0795 2.64584 52.3933 3.18172 52.5878 3.76001ZM78.7603 14.9342C79.6664 15.7937 80.1755 16.9593 80.1755 18.1746C80.1755 19.3899 79.6664 20.5555 78.7603 21.415L75.3432 24.6554C74.8973 25.0932 74.364 25.4423 73.7743 25.6826C73.1846 25.9228 72.5504 26.0492 71.9086 26.0545C71.2668 26.0598 70.6304 25.9438 70.0364 25.7134C69.4424 25.4829 68.9027 25.1426 68.4489 24.7122C67.9951 24.2819 67.6362 23.7702 67.3932 23.2069C67.1502 22.6436 67.0279 22.0401 67.0335 21.4315C67.039 20.8229 67.1724 20.2215 67.4257 19.6623C67.679 19.1031 68.0472 18.5974 68.5088 18.1746L71.926 14.9342C72.8324 14.0749 74.0615 13.5922 75.3432 13.5922C76.6248 13.5922 77.854 14.0749 78.7603 14.9342Z" fill="#E1AB61" />
</svg>
