<svg width="37" height="34" viewBox="0 0 37 34" fill="none" xmlns="http://www.w3.org/2000/svg">
<rect width="37" height="34" rx="12" fill="#D9D9D9"/>
<path d="M10.7117 25.571C10.0235 25.571 9.38046 25.3554 8.9179 24.9551C8.33123 24.4522 8.04918 23.6927 8.15072 22.8716L8.56815 19.5461C8.64713 18.92 9.06456 18.0887 9.54969 17.6371L18.8123 8.71792C21.1251 6.49069 23.5394 6.42911 25.9877 8.53318C28.4359 10.6372 28.5035 12.8337 26.1907 15.0609L16.9282 23.9801C16.4543 24.4419 15.5743 24.873 14.8861 24.9757L11.2533 25.5401C11.0615 25.5504 10.8923 25.571 10.7117 25.571ZM22.4338 8.52291C21.5651 8.52291 20.8092 9.01557 20.042 9.75456L10.7794 18.6841C10.5538 18.8996 10.2943 19.4128 10.2492 19.7104L9.83174 23.0358C9.78661 23.3745 9.87687 23.6516 10.0799 23.8261C10.283 24.0006 10.5876 24.0622 10.9599 24.0108L14.5928 23.4464C14.9199 23.3951 15.4615 23.1282 15.6871 22.9126L24.9497 13.9935C26.3487 12.6387 26.8564 11.3865 24.8143 9.64166C23.9118 8.85135 23.1333 8.52291 22.4338 8.52291Z" fill="#292D32"/>
<path d="M24.025 16.7748C24.0025 16.7748 23.9686 16.7748 23.946 16.7748C20.426 16.4566 17.5942 14.0242 17.0527 10.8424C16.985 10.4216 17.3009 10.0316 17.7635 9.95972C18.226 9.89814 18.6548 10.1855 18.7337 10.6063C19.1625 13.0902 21.3737 14.9992 24.1266 15.2455C24.5891 15.2866 24.9276 15.6664 24.8825 16.0871C24.826 16.4771 24.4537 16.7748 24.025 16.7748Z" fill="#292D32"/>
<path d="M28.1538 28.8862H7.84615C7.38359 28.8862 7 28.5373 7 28.1165C7 27.6956 7.38359 27.3467 7.84615 27.3467H28.1538C28.6164 27.3467 29 27.6956 29 28.1165C29 28.5373 28.6164 28.8862 28.1538 28.8862Z" fill="#292D32"/>
</svg>
