<svg width="55" height="55" viewBox="0 0 45 45" fill="none" xmlns="http://www.w3.org/2000/svg">
  <path d="M32.3438 4.21875H12.6562C11.1029 4.21875 9.84375 5.47795 9.84375 7.03125V37.9688C9.84375 39.5221 11.1029 40.7812 12.6562 40.7812H32.3438C33.8971 40.7812 35.1562 39.5221 35.1562 37.9688V7.03125C35.1562 5.47795 33.8971 4.21875 32.3438 4.21875Z" stroke="black" stroke-width="2.8125" stroke-linecap="round" stroke-linejoin="round"/>
  <path d="M14.0634 9.84375H30.9375V15.4688H14.0634V9.84375Z" stroke="black" stroke-width="2.8125" stroke-linecap="round" stroke-linejoin="round"/>
  <path d="M14.7656 23.9062C15.9306 23.9062 16.875 22.9619 16.875 21.7969C16.875 20.6319 15.9306 19.6875 14.7656 19.6875C13.6006 19.6875 12.6562 20.6319 12.6562 21.7969C12.6562 22.9619 13.6006 23.9062 14.7656 23.9062Z" fill="black"/>
  <path d="M22.5 23.9062C23.665 23.9062 24.6094 22.9619 24.6094 21.7969C24.6094 20.6319 23.665 19.6875 22.5 19.6875C21.335 19.6875 20.3906 20.6319 20.3906 21.7969C20.3906 22.9619 21.335 23.9062 22.5 23.9062Z" fill="black"/>
  <path d="M30.2344 23.9062C31.3994 23.9062 32.3438 22.9619 32.3438 21.7969C32.3438 20.6319 31.3994 19.6875 30.2344 19.6875C29.0694 19.6875 28.125 20.6319 28.125 21.7969C28.125 22.9619 29.0694 23.9062 30.2344 23.9062Z" fill="black"/>
  <path d="M14.7656 30.9375C15.9306 30.9375 16.875 29.9931 16.875 28.8281C16.875 27.6631 15.9306 26.7188 14.7656 26.7188C13.6006 26.7188 12.6562 27.6631 12.6562 28.8281C12.6562 29.9931 13.6006 30.9375 14.7656 30.9375Z" fill="black"/>
  <path d="M22.5 30.9375C23.665 30.9375 24.6094 29.9931 24.6094 28.8281C24.6094 27.6631 23.665 26.7188 22.5 26.7188C21.335 26.7188 20.3906 27.6631 20.3906 28.8281C20.3906 29.9931 21.335 30.9375 22.5 30.9375Z" fill="black"/>
  <path d="M14.7656 37.9688C15.9306 37.9688 16.875 37.0244 16.875 35.8594C16.875 34.6944 15.9306 33.75 14.7656 33.75C13.6006 33.75 12.6562 34.6944 12.6562 35.8594C12.6562 37.0244 13.6006 37.9688 14.7656 37.9688Z" fill="black"/>
  <path d="M22.5 37.9688C23.665 37.9688 24.6094 37.0244 24.6094 35.8594C24.6094 34.6944 23.665 33.75 22.5 33.75C21.335 33.75 20.3906 34.6944 20.3906 35.8594C20.3906 37.0244 21.335 37.9688 22.5 37.9688Z" fill="black"/>
  <path d="M32.3438 28.8281C32.3438 27.6631 31.3994 26.7188 30.2344 26.7188C29.0694 26.7188 28.125 27.6631 28.125 28.8281V35.8594C28.125 37.0244 29.0694 37.9688 30.2344 37.9688C31.3994 37.9688 32.3438 37.0244 32.3438 35.8594V28.8281Z" fill="black"/>
</svg>