<svg xmlns="http://www.w3.org/2000/svg" width="23" height="23" viewBox="0 0 23 23" fill="none">
	<path d="M15.6926 3.11443C16.8036 3.11775 17.8682 3.56058 18.6538 4.3462C19.4394 5.13183 19.8822 6.19641 19.8856 7.30744V15.6926C19.8822 16.8036 19.4394 17.8682 18.6538 18.6538C17.8682 19.4394 16.8036 19.8822 15.6926 19.8856H7.30744C6.19641 19.8822 5.13183 19.4394 4.3462 18.6538C3.56058 17.8682 3.11775 16.8036 3.11443 15.6926V7.30744C3.11775 6.19641 3.56058 5.13183 4.3462 4.3462C5.13183 3.56058 6.19641 3.11775 7.30744 3.11443H15.6926ZM15.6926 1.4375H7.30744C4.07891 1.4375 1.4375 4.07891 1.4375 7.30744V15.6926C1.4375 18.9211 4.07891 21.5625 7.30744 21.5625H15.6926C18.9211 21.5625 21.5625 18.9211 21.5625 15.6926V7.30744C21.5625 4.07891 18.9211 1.4375 15.6926 1.4375Z" fill="black">
	</path>
	<path d="M16.9504 7.30744C16.7016 7.30744 16.4584 7.23367 16.2516 7.09546C16.0447 6.95725 15.8835 6.76081 15.7883 6.53098C15.6931 6.30114 15.6682 6.04824 15.7167 5.80424C15.7653 5.56025 15.8851 5.33613 16.061 5.16022C16.2369 4.98432 16.461 4.86452 16.705 4.81599C16.949 4.76745 17.2019 4.79236 17.4317 4.88756C17.6616 4.98277 17.858 5.14398 17.9962 5.35083C18.1344 5.55767 18.2082 5.80086 18.2082 6.04963C18.2085 6.21491 18.1762 6.37863 18.1132 6.5314C18.0501 6.68416 17.9574 6.82296 17.8406 6.93983C17.7237 7.0567 17.5849 7.14934 17.4321 7.21242C17.2794 7.27551 17.1157 7.3078 16.9504 7.30744ZM11.5 8.14569C12.1634 8.14569 12.8119 8.34241 13.3636 8.71099C13.9152 9.07957 14.3451 9.60344 14.599 10.2164C14.8529 10.8293 14.9193 11.5037 14.7899 12.1544C14.6604 12.8051 14.341 13.4028 13.8719 13.8719C13.4028 14.341 12.8051 14.6604 12.1544 14.7899C11.5037 14.9193 10.8293 14.8529 10.2164 14.599C9.60344 14.3451 9.07957 13.9152 8.71099 13.3636C8.34241 12.8119 8.14569 12.1634 8.14569 11.5C8.14664 10.6107 8.50034 9.75804 9.12919 9.12919C9.75804 8.50034 10.6107 8.14664 11.5 8.14569ZM11.5 6.46875C10.5049 6.46875 9.53217 6.76383 8.70479 7.31667C7.8774 7.86951 7.23254 8.65529 6.85173 9.57463C6.47093 10.494 6.37129 11.5056 6.56543 12.4816C6.75956 13.4575 7.23874 14.354 7.94237 15.0576C8.646 15.7613 9.54249 16.2404 10.5185 16.4346C11.4944 16.6287 12.506 16.5291 13.4254 16.1483C14.3447 15.7675 15.1305 15.1226 15.6833 14.2952C16.2362 13.4678 16.5313 12.4951 16.5313 11.5C16.5313 10.1656 16.0012 8.88591 15.0576 7.94237C14.1141 6.99883 12.8344 6.46875 11.5 6.46875Z" fill="black">
	</path>
</svg>
