<svg xmlns="http://www.w3.org/2000/svg" width="21" height="21" viewBox="0 0 21 21" fill="none">
	<path d="M18.2179 1.3125H2.88258C2.04463 1.3125 1.3125 1.91543 1.3125 2.74354V18.1129C1.3125 18.9455 2.04463 19.6875 2.88258 19.6875H18.2134C19.0559 19.6875 19.6875 18.9406 19.6875 18.1129V2.74354C19.6924 1.91543 19.0559 1.3125 18.2179 1.3125ZM7.00834 16.629H4.37596V8.4443H7.00834V16.629ZM5.7832 7.19988H5.76434C4.92187 7.19988 4.37637 6.57275 4.37637 5.78771C4.37637 4.98832 4.93623 4.37596 5.79756 4.37596C6.65889 4.37596 7.18594 4.98381 7.2048 5.78771C7.20439 6.57275 6.65889 7.19988 5.7832 7.19988ZM16.629 16.629H13.9966V12.1538C13.9966 11.0816 13.6135 10.3491 12.6611 10.3491C11.9335 10.3491 11.5028 10.8413 11.3113 11.3207C11.2395 11.493 11.2202 11.7276 11.2202 11.9671V16.629H8.58785V8.4443H11.2202V9.5833C11.6033 9.03779 12.2017 8.25275 13.5942 8.25275C15.3222 8.25275 16.6294 9.39176 16.6294 11.8474L16.629 16.629Z" fill="black" />
</svg>
