<?xml version="1.0" standalone="no"?>
<!DOCTYPE svg PUBLIC "-//W3C//DTD SVG 20010904//EN"
 "http://www.w3.org/TR/2001/REC-SVG-20010904/DTD/svg10.dtd">
<svg version="1.0" xmlns="http://www.w3.org/2000/svg"
 width="300.000000pt" height="128.000000pt" viewBox="0 0 300.000000 128.000000"
 preserveAspectRatio="xMidYMid meet">

<g transform="translate(0.000000,128.000000) scale(0.100000,-0.100000)"
fill="#000000" stroke="none">
<path d="M184 1268 c-4 -7 -13 -35 -19 -63 -11 -47 -14 -51 -56 -66 l-44 -17
-3 -70 -3 -70 68 -6 c133 -12 225 -34 310 -75 92 -44 90 -45 62 30 -19 48
-188 129 -272 129 -24 0 -28 3 -17 10 8 5 42 10 75 10 172 0 323 -97 403 -259
35 -71 37 -80 37 -170 0 -53 -3 -108 -8 -123 -7 -26 -10 -27 -51 -22 -68 10
-84 -5 -84 -72 1 -65 -24 -107 -65 -112 -17 -2 -27 -9 -27 -20 0 -32 -39 -81
-82 -104 -37 -20 -57 -23 -138 -22 -83 2 -145 11 -196 31 -12 4 -15 -1 -12
-23 2 -24 10 -32 46 -44 37 -13 44 -20 53 -55 22 -90 16 -86 131 -83 l103 3
14 62 c13 57 17 64 48 74 32 10 36 9 78 -30 25 -23 48 -41 51 -41 17 0 154
112 154 126 0 8 -9 37 -21 64 -20 48 -20 49 -2 75 17 25 21 26 80 20 44 -4 64
-2 70 7 12 19 53 150 53 171 0 10 -19 28 -50 45 -46 25 -50 30 -50 65 0 34 4
40 50 68 28 17 50 36 50 43 0 6 -13 50 -28 96 l-29 85 -65 -3 c-60 -4 -67 -2
-86 22 l-21 27 25 55 c13 30 24 57 24 59 0 9 -149 115 -161 115 -6 0 -31 -18
-54 -39 -40 -37 -45 -39 -77 -29 -31 9 -35 15 -48 71 l-15 62 -97 3 c-69 2
-99 -1 -104 -10z"/>
<path d="M56 951 c-9 -14 -1 -16 99 -31 44 -7 90 -16 103 -21 24 -9 52 3 52
21 0 19 -244 48 -254 31z"/>
<path d="M527 903 c5 -16 8 -47 8 -70 -1 -39 2 -44 31 -53 52 -18 86 -55 79
-87 l-6 -28 20 24 c55 62 0 183 -102 226 l-38 15 8 -27z"/>
<path d="M60 898 c0 -10 25 -19 83 -30 45 -9 90 -19 100 -23 13 -5 17 -2 17
13 0 25 -39 38 -137 48 -51 6 -63 4 -63 -8z"/>
<path d="M327 903 c-4 -3 -7 -19 -7 -34 0 -22 6 -30 26 -35 35 -9 59 15 50 50
-5 20 -13 26 -35 26 -15 0 -31 -3 -34 -7z m63 -24 c0 -5 -7 -9 -15 -9 -15 0
-20 12 -9 23 8 8 24 -1 24 -14z"/>
<path d="M415 846 c-32 -49 -92 -48 -119 2 -14 24 -15 25 -16 6 0 -12 10 -34
21 -49 19 -24 27 -26 63 -21 23 4 63 2 91 -3 27 -5 52 -8 53 -6 2 2 5 18 5 36
2 28 -3 34 -38 49 l-40 17 -20 -31z"/>
<path d="M56 852 c-2 -4 -1 -13 2 -19 10 -16 184 -65 216 -61 25 3 25 3 7 27
-14 18 -39 28 -102 42 -94 21 -116 23 -123 11z"/>
<path d="M1640 820 c-27 -27 -28 -100 -1 -124 24 -22 65 -17 69 7 3 14 -1 17
-21 12 -20 -5 -28 -2 -37 15 -23 43 13 97 46 69 11 -9 14 -7 14 9 0 18 -18 32
-41 32 -5 0 -18 -9 -29 -20z"/>
<path d="M1870 818 c-40 -43 -16 -138 34 -138 34 0 56 30 56 78 0 29 -6 48
-20 62 -26 26 -44 25 -70 -2z m66 -43 c7 -28 -11 -65 -32 -65 -25 0 -37 49
-19 76 18 28 43 22 51 -11z"/>
<path d="M2080 822 c-30 -24 -33 -91 -6 -121 60 -66 132 41 75 113 -24 31 -39
32 -69 8z m60 -69 c0 -37 -21 -53 -45 -33 -20 16 -19 54 1 75 23 22 44 2 44
-42z"/>
<path d="M2210 820 c-14 -14 -20 -33 -20 -63 0 -53 24 -80 67 -75 24 3 28 8
31 41 3 34 1 37 -22 37 -14 0 -26 -4 -26 -10 0 -5 5 -10 10 -10 6 0 10 -7 10
-15 0 -8 -7 -15 -15 -15 -16 0 -35 30 -35 54 0 23 30 47 51 41 24 -8 27 20 3
29 -25 9 -33 7 -54 -14z"/>
<path d="M2380 813 c-17 -22 -21 -37 -17 -66 7 -49 22 -67 58 -67 22 0 29 5
29 19 0 15 -5 18 -21 14 -25 -7 -39 11 -39 48 0 32 21 52 45 43 13 -5 16 -2
13 12 -5 31 -43 29 -68 -3z"/>
<path d="M2490 820 c-27 -27 -28 -100 -2 -123 43 -39 92 -4 92 65 0 40 -27 78
-55 78 -8 0 -24 -9 -35 -20z m65 -51 c8 -23 -11 -59 -30 -59 -16 0 -35 30 -35
54 0 8 7 22 16 31 18 18 39 7 49 -26z"/>
<path d="M1410 815 c0 -8 9 -15 20 -15 18 0 20 -7 20 -60 0 -33 4 -60 10 -60
6 0 10 27 10 60 0 53 2 60 20 60 11 0 20 7 20 15 0 11 -12 15 -50 15 -38 0
-50 -4 -50 -15z"/>
<path d="M1530 755 l0 -75 35 0 c39 0 50 26 13 32 -25 4 -37 28 -14 28 20 0
21 26 1 34 -24 9 -17 26 10 26 16 0 25 6 25 15 0 10 -11 15 -35 15 l-35 0 0
-75z"/>
<path d="M1730 757 c0 -59 3 -78 13 -75 6 3 15 22 18 44 3 21 7 35 8 29 1 -5
15 -26 31 -45 l30 -34 0 77 c0 45 -4 77 -10 77 -5 0 -10 -19 -10 -42 l0 -43
-40 45 -39 45 -1 -78z"/>
<path d="M1980 755 l0 -75 35 0 c24 0 35 5 35 15 0 8 -9 15 -20 15 -18 0 -20
7 -20 60 0 47 -3 60 -15 60 -12 0 -15 -15 -15 -75z"/>
<path d="M2320 755 c0 -43 4 -75 10 -75 6 0 10 32 10 75 0 43 -4 75 -10 75 -6
0 -10 -32 -10 -75z"/>
<path d="M55 790 c-4 -6 -4 -23 0 -39 l6 -28 82 4 c45 3 88 6 95 8 21 7 13 25
-10 25 -21 0 -90 16 -145 34 -12 4 -24 2 -28 -4z"/>
<path d="M305 753 l-50 -17 55 -7 c34 -5 59 -14 68 -26 13 -17 13 -17 24 0 5
11 28 27 50 37 l39 17 -38 7 c-57 9 -93 6 -148 -11z"/>
<path d="M520 756 c0 -9 -12 -19 -27 -22 -23 -6 -24 -8 -10 -19 18 -13 13 -25
-10 -25 -8 0 -11 5 -7 11 4 7 -1 10 -12 7 -11 -1 -27 -20 -37 -40 -16 -33 -17
-40 -3 -72 15 -35 49 -58 73 -49 6 3 15 18 18 34 5 20 13 29 26 29 23 0 24 19
4 67 -18 44 -19 40 6 46 13 4 20 12 17 24 -4 22 -38 31 -38 9z"/>
<path d="M130 711 c-66 -5 -75 -8 -75 -26 0 -18 9 -21 112 -26 61 -4 116 -9
120 -12 5 -3 9 10 9 29 0 30 -3 34 -25 34 -15 0 -35 2 -46 4 -11 1 -54 0 -95
-3z"/>
<path d="M314 685 c-4 -9 0 -23 8 -31 20 -20 50 -7 46 20 -4 26 -45 35 -54 11z
m41 -6 c10 -15 -1 -23 -20 -15 -9 3 -13 10 -10 16 8 13 22 13 30 -1z"/>
<path d="M67 644 c-8 -8 -10 -74 -2 -74 3 0 30 14 61 31 30 17 57 30 59 27 2
-2 -26 -24 -62 -48 -47 -31 -69 -53 -74 -72 -8 -31 0 -108 11 -108 4 0 33 39
64 88 31 48 68 101 82 118 l25 32 -23 1 c-13 1 -48 4 -78 7 -30 3 -58 2 -63
-2z"/>
<path d="M365 628 c-4 -9 -13 -14 -21 -11 -36 13 -2 -129 46 -196 32 -44 83
-81 113 -81 23 0 57 57 57 98 0 32 -1 33 -34 27 -50 -10 -117 23 -155 76 -17
23 -31 49 -31 58 1 9 10 -1 20 -21 38 -71 135 -117 172 -80 9 9 7 12 -9 12
-12 0 -25 5 -28 10 -3 6 -19 10 -35 10 -30 0 -100 52 -100 74 0 6 9 0 20 -14
23 -30 25 -24 6 21 -12 27 -16 30 -21 17z"/>
<path d="M200 563 c-27 -38 -75 -117 -106 -176 -54 -104 -55 -109 -38 -128 19
-21 73 -39 117 -39 26 0 27 2 27 49 0 98 29 249 67 347 14 36 -22 7 -67 -53z"/>
<path d="M286 622 c-17 -28 -37 -153 -42 -268 -7 -129 -7 -132 15 -144 48 -25
162 13 187 63 16 30 16 30 -29 68 -55 47 -87 119 -96 213 -5 63 -20 92 -35 68z"/>
<path d="M1050 528 c0 -63 3 -78 15 -78 11 0 15 11 15 38 l1 37 34 -39 35 -39
0 76 c0 45 -4 77 -10 77 -5 0 -10 -19 -10 -42 l-1 -43 -39 45 -40 45 0 -77z"/>
<path d="M1308 583 c-24 -29 -29 -54 -17 -90 17 -51 89 -70 89 -23 0 13 -5 17
-20 13 -26 -7 -50 13 -50 42 0 29 24 49 51 42 15 -4 19 -1 17 11 -4 24 -51 27
-70 5z"/>
<path d="M1410 526 c0 -62 3 -76 15 -76 13 0 15 12 13 72 -2 46 -7 73 -15 76
-10 3 -13 -16 -13 -72z"/>
<path d="M1477 582 c-17 -19 -23 -76 -11 -107 11 -27 53 -38 80 -20 41 26 41
110 0 137 -20 13 -53 8 -69 -10z m66 -33 c5 -9 7 -28 3 -42 -8 -34 -42 -36
-57 -3 -22 47 27 88 54 45z"/>
<path d="M1590 528 c0 -63 3 -78 15 -78 11 0 15 11 15 38 l1 37 34 -37 c20
-21 38 -38 41 -38 11 0 -1 144 -13 148 -9 2 -13 -10 -13 -40 l-1 -43 -39 45
-39 45 -1 -77z"/>
<path d="M1840 525 l0 -75 40 0 c29 0 40 4 40 15 0 9 -9 15 -25 15 -24 0 -25
3 -25 60 0 47 -3 60 -15 60 -12 0 -15 -15 -15 -75z"/>
<path d="M2010 525 l0 -75 30 0 c65 0 93 78 45 125 -13 14 -36 25 -50 25 -25
0 -25 -1 -25 -75z m58 33 c25 -25 8 -78 -25 -78 -8 0 -13 14 -13 38 0 51 13
65 38 40z"/>
<path d="M2130 525 l0 -75 35 0 c24 0 35 5 35 15 0 9 -9 15 -25 15 -16 0 -25
6 -25 15 0 8 9 15 20 15 11 0 20 7 20 15 0 9 -9 15 -21 15 -27 0 -19 24 9 28
37 6 26 32 -13 32 l-35 0 0 -75z"/>
<path d="M2440 525 l0 -75 35 0 c24 0 35 5 35 15 0 9 -9 15 -25 15 -16 0 -25
6 -25 15 0 8 7 15 15 15 8 0 15 7 15 15 0 8 -7 15 -16 15 -23 0 -11 24 14 28
37 6 26 32 -13 32 l-35 0 0 -75z"/>
<path d="M2540 591 c0 -6 6 -25 14 -40 13 -25 13 -31 -5 -60 -10 -17 -19 -34
-19 -36 0 -13 24 -3 40 17 l17 22 12 -22 c6 -12 18 -22 26 -22 19 0 19 2 -5
43 -20 33 -20 36 -3 65 21 36 8 57 -15 24 l-15 -23 -23 22 c-14 13 -24 17 -24
10z"/>
<path d="M2667 593 c-4 -3 -7 -37 -7 -75 0 -54 3 -68 15 -68 12 0 15 15 15 75
0 69 -6 86 -23 68z"/>
<path d="M2730 580 c-40 -40 -15 -140 34 -140 28 0 46 12 46 31 0 17 -3 18
-22 8 -18 -10 -24 -8 -40 11 -11 13 -16 30 -13 37 3 8 5 18 5 23 0 15 40 22
55 10 12 -10 15 -9 15 8 0 35 -49 43 -80 12z"/>
<path d="M2840 580 c-26 -26 -26 -80 1 -114 24 -31 52 -33 79 -6 43 43 15 140
-40 140 -11 0 -29 -9 -40 -20z m58 -22 c31 -31 0 -105 -33 -78 -25 21 -14 90
15 90 3 0 11 -5 18 -12z"/>
<path d="M1196 524 c-26 -65 -28 -90 -4 -66 15 15 55 16 63 2 3 -5 12 -10 20
-10 10 0 8 15 -12 63 -13 34 -28 66 -33 70 -4 5 -19 -22 -34 -59z m44 -21 c0
-7 -7 -13 -16 -13 -11 0 -14 5 -10 16 3 9 6 21 6 27 0 16 20 -14 20 -30z"/>
<path d="M1742 538 c-11 -29 -23 -61 -27 -70 -5 -13 -2 -18 9 -18 9 0 16 5 16
10 0 6 14 10 30 10 17 0 30 -4 30 -10 0 -5 6 -10 14 -10 11 0 8 16 -12 70 -15
39 -29 70 -33 70 -3 0 -15 -24 -27 -52z m35 -44 c-12 -12 -25 7 -19 28 l5 22
10 -22 c6 -12 7 -25 4 -28z"/>
<path d="M2291 527 c-13 -77 -13 -77 -1 -77 5 0 13 14 18 32 l8 32 13 -32 c17
-40 26 -40 42 1 l13 32 3 -32 c3 -21 10 -33 19 -33 15 0 15 14 -6 110 l-7 35
-18 -42 c-9 -24 -21 -43 -25 -43 -5 0 -14 16 -20 35 -18 54 -27 50 -39 -18z"/>
</g>
</svg>
