<svg xmlns="http://www.w3.org/2000/svg" viewBox="0 0 537.04 981.63"><g id="Capa_2" data-name="Capa 2"><g id="Capa_2-2" data-name="Capa 2"><path d="M114.37,692.28v-3.91h50.69v3.91h-5.39a14.55,14.55,0,0,0-13,7.08q-2.22,3.27-2.22,15.2v58.08q0,21.54-4.27,33.42T123.4,826.44q-12.51,8.5-34.06,8.5-23.45,0-35.59-8.13A44,44,0,0,1,36.54,805q-3.37-9.39-3.38-35.27v-56q0-13.2-3.64-17.32t-11.77-4.12H12.36v-3.91H74.24v3.91H68.75q-8.86,0-12.67,5.6-2.64,3.79-2.64,15.84v62.41A137.61,137.61,0,0,0,55,795.24Q56.5,806,60.51,812A30.24,30.24,0,0,0,72.08,822q7.55,3.9,18.53,3.9a51.13,51.13,0,0,0,25.13-6.12q11.08-6.12,15.16-15.68T135,771.69v-58q0-13.41-3-16.79-4.11-4.65-12.25-4.65Z"/><path d="M170,831.57v-2.74h3.77q6.34,0,9-4.07,1.62-2.43,1.62-10.94V749.07q0-9.39-2.07-11.75-2.88-3.26-8.57-3.25H170v-2.74h40.8q22.47,0,34.19,5.1a40.72,40.72,0,0,1,18.85,17q7.13,11.91,7.13,27.5,0,20.93-12.71,35Q244,831.57,214.76,831.57Zm28.6-7.25a75.53,75.53,0,0,0,15.75,2.07q17.15,0,28.46-12t11.31-32.67q0-20.77-11.31-32.75t-29.05-12a62.74,62.74,0,0,0-15.16,2.14Z"/><path d="M308.34,736.8v39.62h22q8.58,0,11.46-2.59,3.84-3.39,4.29-12h2.73v34.89h-2.73q-1-7.32-2.07-9.39a9.25,9.25,0,0,0-4.36-4.06c-2-1-5.13-1.48-9.32-1.48h-22v33c0,4.44.2,7.13.6,8.09a4.64,4.64,0,0,0,2.07,2.3c1,.56,2.85.85,5.61.85h17q8.5,0,12.35-1.19a18.34,18.34,0,0,0,7.39-4.65q4.59-4.59,9.39-13.83h3l-8.65,25.14H279.81v-2.74h3.55a14.1,14.1,0,0,0,6.73-1.7,6.24,6.24,0,0,0,3.21-3.55q.85-2.36.85-9.68V748.78q0-9.54-1.92-11.76-2.66-3-8.87-2.95h-3.55v-2.74h77.25l1.11,21.95h-2.89q-1.54-7.9-3.43-10.86a11.82,11.82,0,0,0-5.58-4.51c-2-.74-5.45-1.11-10.43-1.11Z"/><path d="M499.38,685.1l3.28,48.68h-3.28q-6.54-21.85-18.69-31.47t-29.14-9.61a47.35,47.35,0,0,0-25.77,7.24q-11.5,7.23-18.11,23.07t-6.6,39.39q0,19.43,6.23,33.68a46.61,46.61,0,0,0,18.75,21.86,53.88,53.88,0,0,0,28.56,7.61q13.93,0,24.6-6t23.45-23.71l3.27,2.11q-10.77,19.13-25.13,28t-34.11,8.87q-35.58,0-55.12-26.4Q377,788.79,377,762.19a82.23,82.23,0,0,1,9.61-39.39A69.61,69.61,0,0,1,413.06,695a71.45,71.45,0,0,1,36.8-9.87,67.42,67.42,0,0,1,30.62,7.6q4.44,2.32,6.34,2.33a7,7,0,0,0,5-2,16.5,16.5,0,0,0,3.91-7.92Z"/><path d="M30.2,875.55v-1.16h15v1.16h-1.6a4.3,4.3,0,0,0-3.84,2.09c-.44.65-.66,2.15-.66,4.51v17.19a30.28,30.28,0,0,1-1.27,9.9,12.42,12.42,0,0,1-5,6q-3.7,2.52-10.08,2.52-6.94,0-10.53-2.41a13,13,0,0,1-5.1-6.47q-1-2.79-1-10.44V881.9q0-3.92-1.08-5.13a4.45,4.45,0,0,0-3.49-1.22H0v-1.16H18.32v1.16H16.69a4.19,4.19,0,0,0-3.75,1.66c-.52.75-.78,2.31-.78,4.69v18.47a40.92,40.92,0,0,0,.45,5.66,12,12,0,0,0,1.65,5,8.88,8.88,0,0,0,3.42,2.94,11.86,11.86,0,0,0,5.49,1.16,15.13,15.13,0,0,0,7.44-1.82,9.67,9.67,0,0,0,4.48-4.64c.81-1.88,1.21-5.08,1.21-9.58V881.9c0-2.65-.3-4.31-.88-5a4.58,4.58,0,0,0-3.63-1.38Z"/><path d="M45.05,874.39h11.5l25.92,31.8V881.74c0-2.61-.29-4.23-.87-4.88a4.65,4.65,0,0,0-3.66-1.31H76.47v-1.16H91.23v1.16H89.72a4.29,4.29,0,0,0-3.81,1.63q-.69,1-.69,4.56v35.73H84.1L56.15,883.33v26.11c0,2.6.28,4.23.84,4.88a4.71,4.71,0,0,0,3.66,1.31h1.5v1.16H47.39v-1.16h1.47A4.33,4.33,0,0,0,52.71,914q.69-1,.69-4.56V880a19.7,19.7,0,0,0-2.8-2.85,10.43,10.43,0,0,0-2.8-1.28,9.85,9.85,0,0,0-2.75-.28Z"/><path d="M111.89,915.63v1.16H93.73v-1.16h1.5A4.52,4.52,0,0,0,99,914.1c.5-.67.75-2.27.75-4.82V881.9a14.2,14.2,0,0,0-.4-4.26,2.84,2.84,0,0,0-1.29-1.34,5.89,5.89,0,0,0-2.87-.75h-1.5v-1.16h18.16v1.16h-1.53a4.48,4.48,0,0,0-3.78,1.53c-.53.67-.79,2.27-.79,4.82v27.38a14,14,0,0,0,.41,4.25,2.82,2.82,0,0,0,1.31,1.35,5.78,5.78,0,0,0,2.85.75Z"/><path d="M158.91,874.39v1.16A6.86,6.86,0,0,0,155.5,877a13.05,13.05,0,0,0-2.94,4.69l-14.78,36.07h-1.16l-15.88-36.54a20.16,20.16,0,0,0-1.72-3.44,5.49,5.49,0,0,0-1.92-1.52,9,9,0,0,0-3.08-.7v-1.16h17.32v1.16c-2,.19-3.24.52-3.82,1a2.28,2.28,0,0,0-.87,1.84,14.23,14.23,0,0,0,1.43,4.88l10.79,24.86,10-24.55a16.43,16.43,0,0,0,1.47-5,2.37,2.37,0,0,0-.9-1.73,5.94,5.94,0,0,0-3.07-1.18l-.53-.09v-1.16Z"/><path d="M173.07,876.71v16.75h9.32c2.42,0,4-.36,4.84-1.09,1.09-1,1.69-2.65,1.82-5.07h1.15v14.76h-1.15a16.06,16.06,0,0,0-.88-4,3.91,3.91,0,0,0-1.84-1.72,9.41,9.41,0,0,0-3.94-.62h-9.32v14a12.74,12.74,0,0,0,.25,3.42,2,2,0,0,0,.88,1,5.28,5.28,0,0,0,2.37.36h7.19A19.17,19.17,0,0,0,189,914a7.71,7.71,0,0,0,3.13-2,24,24,0,0,0,4-5.84h1.25l-3.66,10.63H161v-1.16h1.5a5.94,5.94,0,0,0,2.85-.72,2.6,2.6,0,0,0,1.36-1.5,14.72,14.72,0,0,0,.36-4.1V881.77c0-2.69-.27-4.34-.81-5a4.86,4.86,0,0,0-3.76-1.25H161v-1.16h32.67l.47,9.29h-1.22a14.6,14.6,0,0,0-1.45-4.6,5,5,0,0,0-2.36-1.9,13.9,13.9,0,0,0-4.41-.47Z"/><path d="M242.07,916.79H230.75L216.4,897c-1.06,0-1.93.07-2.59.07l-.88,0c-.31,0-.63,0-1,0v12.32c0,2.67.29,4.33.88,5a4.44,4.44,0,0,0,3.56,1.38h1.66v1.16H199.9v-1.16h1.59a4.28,4.28,0,0,0,3.85-1.75c.43-.65.65-2.18.65-4.6V881.9c0-2.67-.29-4.33-.87-5a4.6,4.6,0,0,0-3.63-1.38H199.9v-1.16h15.44a36.59,36.59,0,0,1,10,1,11.37,11.37,0,0,1,5.44,3.62,9.47,9.47,0,0,1,2.23,6.3,9.9,9.9,0,0,1-2.55,6.79c-1.69,1.92-4.33,3.27-7.89,4.06l8.75,12.16a21.67,21.67,0,0,0,5.16,5.57,13,13,0,0,0,5.63,1.75ZM212,895h1l.71,0q6.07,0,9.15-2.63a8.41,8.41,0,0,0,3.08-6.69,8.73,8.73,0,0,0-2.49-6.46,8.91,8.91,0,0,0-6.58-2.48,28.16,28.16,0,0,0-4.91.59Z"/><path d="M270.86,873.42v14.67h-1.15a18.36,18.36,0,0,0-2-6.73,10.56,10.56,0,0,0-4.14-4,11.57,11.57,0,0,0-5.57-1.47,7.59,7.59,0,0,0-5.38,2,6.06,6.06,0,0,0-2.12,4.52,5.37,5.37,0,0,0,1.34,3.53q1.94,2.34,9.23,6.25a63.56,63.56,0,0,1,8.11,4.9,11.82,11.82,0,0,1,3.34,4,10.52,10.52,0,0,1,1.18,4.85,11,11,0,0,1-3.74,8.3,13.53,13.53,0,0,1-9.61,3.48,20.07,20.07,0,0,1-3.47-.28,33.37,33.37,0,0,1-4-1.14,18.3,18.3,0,0,0-3.86-1,1.64,1.64,0,0,0-1.24.47,3.79,3.79,0,0,0-.67,1.93h-1.15V903.22h1.15a20.44,20.44,0,0,0,2.19,6.83,10.57,10.57,0,0,0,4.2,3.77,13.07,13.07,0,0,0,6.21,1.5,8.85,8.85,0,0,0,6.18-2.07,6.37,6.37,0,0,0,2.26-4.87,6.51,6.51,0,0,0-.86-3.16,9.41,9.41,0,0,0-2.67-3,73.53,73.53,0,0,0-6.66-4,63.84,63.84,0,0,1-7.74-4.86,13.08,13.08,0,0,1-3.48-4,9.83,9.83,0,0,1-1.19-4.81,10.46,10.46,0,0,1,3.5-7.87,12.46,12.46,0,0,1,8.91-3.3,18,18,0,0,1,7.16,1.66,7.39,7.39,0,0,0,2.47.78,1.89,1.89,0,0,0,1.33-.48,4,4,0,0,0,.83-2Z"/><path d="M296.87,915.63v1.16H278.71v-1.16h1.5A4.52,4.52,0,0,0,284,914.1c.5-.67.75-2.27.75-4.82V881.9a14.2,14.2,0,0,0-.4-4.26,2.87,2.87,0,0,0-1.28-1.34,6,6,0,0,0-2.88-.75h-1.5v-1.16h18.16v1.16h-1.53a4.48,4.48,0,0,0-3.78,1.53c-.52.67-.78,2.27-.78,4.82v27.38a14.07,14.07,0,0,0,.4,4.25,2.8,2.8,0,0,0,1.32,1.35,5.72,5.72,0,0,0,2.84.75Z"/><path d="M299.53,916.79v-1.16h1.6a4.2,4.2,0,0,0,3.81-1.72c.46-.69.69-2.23.69-4.63V881.9c0-2.65-.29-4.31-.88-5a4.57,4.57,0,0,0-3.62-1.38h-1.6v-1.16h17.26q9.49,0,14.46,2.16a17.25,17.25,0,0,1,8,7.19,22.2,22.2,0,0,1,3,11.63,21.24,21.24,0,0,1-5.38,14.79q-6,6.63-18.38,6.63Zm12.1-3.07a31.6,31.6,0,0,0,6.66.88,15.82,15.82,0,0,0,12-5.1q4.77-5.1,4.78-13.82t-4.78-13.85A16.18,16.18,0,0,0,318,876.77a26.29,26.29,0,0,0-6.41.91Z"/><path d="M374,902.59H357.55l-2.87,6.69a10.58,10.58,0,0,0-1.06,3.69,2.13,2.13,0,0,0,.92,1.71c.61.49,1.94.8,4,1v1.16H345.17v-1.16a7.13,7.13,0,0,0,3.44-1.22c1.07-1,2.24-3,3.54-6.1l14.91-34.89h1.09l14.76,35.27q1.79,4.24,3.24,5.52a6.55,6.55,0,0,0,4,1.42v1.16H373.47v-1.16a6.2,6.2,0,0,0,3.42-.85,2.17,2.17,0,0,0,.89-1.75,13.07,13.07,0,0,0-1.25-4.34Zm-.88-2.31-7.19-17.13-7.38,17.13Z"/><path d="M392,916.79v-1.16h1.59a4.23,4.23,0,0,0,3.82-1.72c.45-.69.68-2.23.68-4.63V881.9c0-2.65-.29-4.31-.87-5a4.6,4.6,0,0,0-3.63-1.38H392v-1.16h17.25q9.51,0,14.46,2.16a17.2,17.2,0,0,1,8,7.19,22.11,22.11,0,0,1,3,11.63,21.19,21.19,0,0,1-5.38,14.79q-6,6.63-18.38,6.63Zm12.1-3.07a31.44,31.44,0,0,0,6.65.88,15.81,15.81,0,0,0,12-5.1q4.79-5.1,4.78-13.82t-4.78-13.85a16.17,16.17,0,0,0-12.29-5.06,26.22,26.22,0,0,0-6.4.91Z"/><path d="M454.25,916.79v-1.16h1.6a4.2,4.2,0,0,0,3.81-1.72c.46-.69.69-2.23.69-4.63V881.9c0-2.65-.29-4.31-.88-5a4.57,4.57,0,0,0-3.62-1.38h-1.6v-1.16h17.26c6.34,0,11.15.72,14.46,2.16a17.25,17.25,0,0,1,8,7.19,22.2,22.2,0,0,1,3,11.63,21.24,21.24,0,0,1-5.38,14.79q-6,6.63-18.38,6.63Zm12.1-3.07a31.6,31.6,0,0,0,6.66.88,15.81,15.81,0,0,0,12-5.1q4.77-5.1,4.78-13.82t-4.78-13.85a16.18,16.18,0,0,0-12.29-5.06,26.29,26.29,0,0,0-6.41.91Z"/><path d="M512.78,876.71v16.75h9.31c2.42,0,4-.36,4.85-1.09,1.08-1,1.69-2.65,1.81-5.07h1.16v14.76h-1.16a16.21,16.21,0,0,0-.87-4,3.94,3.94,0,0,0-1.85-1.72,9.38,9.38,0,0,0-3.94-.62h-9.31v14a12.74,12.74,0,0,0,.25,3.42,1.9,1.9,0,0,0,.87,1,5.33,5.33,0,0,0,2.38.36h7.19a19.27,19.27,0,0,0,5.22-.5,7.75,7.75,0,0,0,3.12-2,23.71,23.71,0,0,0,4-5.84H537l-3.66,10.63H500.71v-1.16h1.5a5.9,5.9,0,0,0,2.84-.72,2.6,2.6,0,0,0,1.36-1.5,14.72,14.72,0,0,0,.36-4.1V881.77c0-2.69-.27-4.34-.81-5a4.85,4.85,0,0,0-3.75-1.25h-1.5v-1.16h32.67l.47,9.29h-1.22a14.55,14.55,0,0,0-1.46-4.6,5,5,0,0,0-2.36-1.9,13.87,13.87,0,0,0-4.4-.47Z"/><path d="M44.38,937.26l1,14.42h-1q-1.93-6.48-5.54-9.32a13.44,13.44,0,0,0-8.62-2.85,14,14,0,0,0-7.63,2.15,14.1,14.1,0,0,0-5.36,6.83,30.24,30.24,0,0,0-2,11.66,24.74,24.74,0,0,0,1.85,10,13.83,13.83,0,0,0,5.55,6.47,15.94,15.94,0,0,0,8.45,2.25,14.79,14.79,0,0,0,7.29-1.76q3.15-1.77,6.94-7l1,.62A22.28,22.28,0,0,1,38.88,979a18.88,18.88,0,0,1-10.1,2.62q-10.55,0-16.32-7.81a22.33,22.33,0,0,1-4.32-13.69A24.31,24.31,0,0,1,11,948.42a20.64,20.64,0,0,1,7.83-8.23,21.16,21.16,0,0,1,10.9-2.93,20,20,0,0,1,9.06,2.25,4.92,4.92,0,0,0,1.88.69,2.1,2.1,0,0,0,1.47-.59,4.9,4.9,0,0,0,1.15-2.35Z"/><path d="M79.08,939.39v-1.16h15v1.16h-1.6a4.3,4.3,0,0,0-3.84,2.09c-.44.65-.66,2.15-.66,4.51v17.19a30.28,30.28,0,0,1-1.27,9.9,12.42,12.42,0,0,1-5,6q-3.7,2.52-10.08,2.52-6.94,0-10.54-2.41A13.08,13.08,0,0,1,56,972.75Q55,970,55,962.3V945.74q0-3.91-1.08-5.13a4.45,4.45,0,0,0-3.49-1.22H48.88v-1.16H67.2v1.16H65.57a4.19,4.19,0,0,0-3.75,1.66c-.52.75-.78,2.31-.78,4.69v18.47a41,41,0,0,0,.45,5.66,12,12,0,0,0,1.65,5,8.88,8.88,0,0,0,3.42,2.94,11.86,11.86,0,0,0,5.49,1.16,15.13,15.13,0,0,0,7.44-1.82A9.67,9.67,0,0,0,84,972.48c.8-1.89,1.21-5.08,1.21-9.58V945.74c0-2.65-.3-4.31-.88-5a4.61,4.61,0,0,0-3.63-1.37Z"/><path d="M93.93,938.23h11.5L131.35,970V945.58c0-2.61-.29-4.23-.87-4.88a4.65,4.65,0,0,0-3.66-1.31h-1.47v-1.16h14.76v1.16H138.6a4.31,4.31,0,0,0-3.81,1.62c-.46.67-.69,2.19-.69,4.57v35.73H133L105,947.17v26.11c0,2.6.28,4.23.84,4.88a4.71,4.71,0,0,0,3.66,1.31H111v1.16H96.27v-1.16h1.47a4.33,4.33,0,0,0,3.85-1.63c.46-.66.69-2.19.69-4.56V943.8a19.7,19.7,0,0,0-2.8-2.85,10.43,10.43,0,0,0-2.8-1.28,9.85,9.85,0,0,0-2.75-.28Z"/><path d="M142.11,980.63v-1.16h1.59a4.2,4.2,0,0,0,3.81-1.72c.46-.69.69-2.23.69-4.63V945.74q0-4-.87-5a4.62,4.62,0,0,0-3.63-1.37h-1.59v-1.16h17.25q9.51,0,14.46,2.16a17.15,17.15,0,0,1,8,7.19,22.11,22.11,0,0,1,3,11.63A21.19,21.19,0,0,1,179.43,974q-6,6.63-18.38,6.63Zm12.09-3.07a31.6,31.6,0,0,0,6.66.88,15.81,15.81,0,0,0,12-5.1q4.78-5.1,4.78-13.82t-4.78-13.85a16.17,16.17,0,0,0-12.29-5.06,26.36,26.36,0,0,0-6.41.91Z"/><path d="M207,979.47v1.16H188.84v-1.16h1.5a4.53,4.53,0,0,0,3.82-1.53c.5-.67.75-2.27.75-4.82V945.74a14.09,14.09,0,0,0-.41-4.26,2.78,2.78,0,0,0-1.28-1.34,6,6,0,0,0-2.88-.75h-1.5v-1.16H207v1.16h-1.53a4.5,4.5,0,0,0-3.79,1.53c-.52.67-.78,2.27-.78,4.82v27.38a14,14,0,0,0,.41,4.25,2.78,2.78,0,0,0,1.31,1.35,5.78,5.78,0,0,0,2.85.75Z"/><path d="M207.73,938.23h11.5L245.15,970V945.58c0-2.61-.29-4.23-.88-4.88a4.64,4.64,0,0,0-3.65-1.31h-1.47v-1.16H253.9v1.16h-1.5a4.31,4.31,0,0,0-3.81,1.62c-.46.67-.69,2.19-.69,4.57v35.73h-1.13l-27.94-34.14v26.11c0,2.6.28,4.23.84,4.88a4.71,4.71,0,0,0,3.66,1.31h1.5v1.16H210.07v-1.16h1.47a4.34,4.34,0,0,0,3.85-1.63c.45-.66.68-2.19.68-4.56V943.8a19.78,19.78,0,0,0-2.79-2.85,10.43,10.43,0,0,0-2.8-1.28,9.9,9.9,0,0,0-2.75-.28Z"/><path d="M284.1,966.43H267.69l-2.88,6.69a10.58,10.58,0,0,0-1.06,3.69,2.13,2.13,0,0,0,.92,1.7q.93.74,4,1v1.16H255.31v-1.16a7.17,7.17,0,0,0,3.44-1.22q1.59-1.5,3.53-6.1l14.91-34.89h1.1L293,972.53q1.79,4.25,3.24,5.52a6.66,6.66,0,0,0,4.05,1.42v1.16H283.6v-1.16a6.27,6.27,0,0,0,3.43-.85,2.17,2.17,0,0,0,.89-1.75,13.07,13.07,0,0,0-1.25-4.34Zm-.87-2.31L276,947l-7.38,17.13Z"/><path d="M327.25,980.63,310.86,945v28.33c0,2.6.29,4.23.85,4.88a4.65,4.65,0,0,0,3.66,1.31h1.5v1.16H302.11v-1.16h1.5a4.32,4.32,0,0,0,3.82-1.63c.45-.66.68-2.19.68-4.56v-27.7a9.77,9.77,0,0,0-.62-4.06,3.46,3.46,0,0,0-1.61-1.52,8.59,8.59,0,0,0-3.77-.61v-1.16h12L329.5,971.4l15.13-33.17h12v1.16h-1.47a4.34,4.34,0,0,0-3.84,1.62c-.46.67-.69,2.19-.69,4.57v27.7c0,2.6.29,4.23.88,4.88a4.64,4.64,0,0,0,3.65,1.31h1.47v1.16h-18v-1.16h1.5a4.24,4.24,0,0,0,3.81-1.63c.46-.66.69-2.19.69-4.56V945l-16.35,35.68Z"/><path d="M387.27,966.43H370.86L368,973.12a10.58,10.58,0,0,0-1.06,3.69,2.13,2.13,0,0,0,.92,1.7q.92.74,4,1v1.16H358.48v-1.16a7.17,7.17,0,0,0,3.44-1.22q1.59-1.5,3.53-6.1l14.91-34.89h1.1l14.75,35.27q1.79,4.25,3.24,5.52a6.66,6.66,0,0,0,4.05,1.42v1.16H386.77v-1.16a6.2,6.2,0,0,0,3.42-.85,2.14,2.14,0,0,0,.89-1.75,12.83,12.83,0,0,0-1.25-4.34Zm-.87-2.31L379.2,947l-7.37,17.13Z"/><path d="M447.48,980.63H436.17L421.82,960.8c-1.07.05-1.93.07-2.6.07l-.87,0c-.32,0-.64,0-1-.05v12.32c0,2.67.29,4.33.87,5a4.45,4.45,0,0,0,3.57,1.38h1.65v1.16H405.31v-1.16h1.59a4.25,4.25,0,0,0,3.85-1.75c.44-.65.66-2.18.66-4.6V945.74c0-2.67-.3-4.33-.88-5a4.61,4.61,0,0,0-3.63-1.37h-1.59v-1.16h15.44a36.54,36.54,0,0,1,10,1,11.32,11.32,0,0,1,5.44,3.62,9.46,9.46,0,0,1,2.24,6.3,9.9,9.9,0,0,1-2.55,6.79q-2.55,2.88-7.9,4.06l8.76,12.16a21.67,21.67,0,0,0,5.16,5.57,13,13,0,0,0,5.62,1.75Zm-30.1-21.8,1,0,.72,0q6.06,0,9.14-2.63a8.41,8.41,0,0,0,3.08-6.69,8.77,8.77,0,0,0-2.48-6.46,8.92,8.92,0,0,0-6.58-2.48,28.06,28.06,0,0,0-4.91.59Z"/><path d="M485.47,937.26l1,14.42h-1q-1.94-6.48-5.54-9.32a13.44,13.44,0,0,0-8.62-2.85,13.39,13.39,0,0,0-13,9,30.24,30.24,0,0,0-2,11.66,24.74,24.74,0,0,0,1.85,10,13.83,13.83,0,0,0,5.55,6.47,15.94,15.94,0,0,0,8.45,2.25,14.79,14.79,0,0,0,7.29-1.76q3.15-1.77,6.94-7l1,.62A22.28,22.28,0,0,1,480,979a18.88,18.88,0,0,1-10.1,2.62q-10.55,0-16.32-7.81a22.33,22.33,0,0,1-4.32-13.69,24.31,24.31,0,0,1,2.85-11.67,20.64,20.64,0,0,1,7.83-8.23,21.16,21.16,0,0,1,10.9-2.93,20,20,0,0,1,9.06,2.25,4.92,4.92,0,0,0,1.88.69,2.1,2.1,0,0,0,1.47-.59,4.9,4.9,0,0,0,1.15-2.35Z"/><path d="M518.92,966.43H502.51l-2.88,6.69a10.58,10.58,0,0,0-1.06,3.69,2.1,2.1,0,0,0,.92,1.7q.92.74,4,1v1.16H490.13v-1.16a7.12,7.12,0,0,0,3.43-1.22q1.6-1.5,3.54-6.1L512,937.26h1.09l14.76,35.27q1.78,4.25,3.24,5.52a6.61,6.61,0,0,0,4,1.42v1.16H518.42v-1.16a6.2,6.2,0,0,0,3.42-.85,2.14,2.14,0,0,0,.89-1.75,12.83,12.83,0,0,0-1.25-4.34Zm-.88-2.31L510.85,947l-7.37,17.13Z"/><path d="M267,0C148.7,0,52.2,126,52.2,280.44c0,100.09,40.52,188.21,101.24,237.85l31.7,13.92c-24.16-13.68-45.94-33-64.74-57.58-19.31-25.2-34.48-54.54-45.1-87.22a352.79,352.79,0,0,1,0-213.95c10.62-32.67,25.79-62,45.1-87.22s41.51-44.74,66.29-58.46C212.19,13.65,239.22,6.49,267,6.49s54.84,7.16,80.34,21.29c24.78,13.72,47.08,33.39,66.29,58.46s34.48,54.55,45.09,87.22a352.79,352.79,0,0,1,0,214c-10.61,32.68-25.78,62-45.09,87.22s-41.51,44.75-66.29,58.47c-.94.52-1.89,1-2.84,1.52l34.05-14.68c61.85-49.33,103.28-138.3,103.28-239.5C481.85,126,385.34,0,267,0Z"/><path d="M107.4,280.44q0,8,.45,15.94l6.23-5.84c-.13-3.35-.19-6.71-.19-10.1a267.32,267.32,0,0,1,3.62-43.94l-3.84-5.61,5.18-1.8C136,142,195.78,77.36,266.53,77.36s130.7,64.81,147.76,152.14l7,2.49-5.24,7.55a268.17,268.17,0,0,1,3.12,40.9c0,3.29-.07,6.55-.18,9.8l6.22,5.93q.45-7.79.45-15.73c0-115.56-71.39-209.57-159.13-209.57S107.4,164.88,107.4,280.44Z"/><path d="M218.32,546.78l29.59,13a165.57,165.57,0,0,0,38.28,0l31.73-13.68a160.13,160.13,0,0,1-99.6.69Z"/><path d="M406.48,361.36l.59,1.42-1.11.14c-23.84,70.94-77.41,120.59-139.43,120.59-78.36,0-143.24-79.25-151.7-180.58l-6.82-4.2C115.07,405.75,183.46,490,266.53,490c82.52,0,150.57-83.16,158.38-189.19L418.05,305A255.09,255.09,0,0,1,406.48,361.36Z"/><path d="M266.11,601.12a126.82,126.82,0,0,1-33.68-4.5l-1.64,3.75a131.31,131.31,0,0,0,35.32,4.81c1.26,0,2.53,0,3.79,0A130.69,130.69,0,0,0,302.65,600L301,596.27a126.43,126.43,0,0,1-31.24,4.8C268.56,601.1,267.34,601.12,266.11,601.12Z"/><path d="M345.79,629.65q-6.06-11.86-12.11-23.76h0Z"/><path d="M199,605.07l-3.17,6.23,3.17-6.22Z"/><path d="M340.17,627.57l.48.94-.57.28a172.23,172.23,0,0,1-62.86,16.35l-.71,0a12.32,12.32,0,0,0-2.93.31H258.86a4.52,4.52,0,0,0-1.38-.21h0l-.38,0c-4.12-.24-7.85-.56-11.4-1A172.36,172.36,0,0,1,211,636.45a174.88,174.88,0,0,1-19.46-7.92l.51-1-5.61,2c-.43.65-.21.89.41,1.2a180.21,180.21,0,0,0,22.84,9.54,176.31,176.31,0,0,0,35.5,8c4,.48,7.93.8,11.91,1h0l.31,0a.34.34,0,0,1,.34.21h16.36a11.51,11.51,0,0,1,3.31-.34,175.82,175.82,0,0,0,64.33-16.73c1.23-.59,2.43-1.23,3.67-1.79.59-.26.56-.52.3-1Z"/><path d="M483.8,540v.05l.06-.06Z"/><path d="M442.07,613.24c8.49-25.43,21.11-49.27,39.72-70.84-17.93,7.37-56.58,24-56.58,24C427,592.91,432.94,600.72,442.07,613.24ZM429.47,569c6.62-2.84,24.36-10.46,39.27-16.76a210.18,210.18,0,0,0-27.91,52.29C434.85,595.83,431.05,587.68,429.47,569Z"/><path d="M317.92,546.09l-31.73,13.68-.75.32L301,596.27l1.62,3.75,7,16.23,24-10.35h0l148.06-63.83L457.52,485.9l-78.95,34-34.05,14.68ZM455.4,491.23l21,48.71-164.63,71-21-48.71Z"/><path d="M92,611.52c9.15-12.52,15-19.56,16.77-46.06,0,0-42.2-18.53-56.48-24.78C70.85,562.25,83.48,586.09,92,611.52Zm1.26-8.66A210.11,210.11,0,0,0,65.61,551l38.86,17C102.9,586.63,99.14,594.36,93.22,602.86Z"/><polygon points="50.17 538.31 50.23 538.37 50.24 538.32 50.17 538.31 50.17 538.31"/><path d="M199,605.08,223.91,616l6.88-15.66,1.64-3.75L248.5,560l-.59-.26-29.59-13-33.18-14.57-31.7-13.92L76.91,484.7l-24.59,56L199,605.07ZM57.67,538.61,79,490l164.16,72.08-21.32,48.56Z"/><polygon points="81.13 521.92 88.79 525.37 90.55 521.44 82.89 518 84.64 514.12 92.3 517.56 94.09 513.56 82.38 508.3 72.73 529.76 84.44 535.02 86.25 531.01 78.59 527.57 81.13 521.92"/><polygon points="110.13 520.77 102.52 525.63 101.1 516.72 96.51 514.65 98.64 528.11 86.41 535.91 91.03 537.99 99.36 532.66 100.91 542.42 105.5 544.49 103.23 530.18 114.72 522.84 110.13 520.77"/><path d="M141,534.63l-4.1-1.84-6,13.37a10.27,10.27,0,0,1-1.62,2.79,2.8,2.8,0,0,1-1.64.77,3.66,3.66,0,0,1-2.09-.34,3.49,3.49,0,0,1-1.54-1.23,2.76,2.76,0,0,1-.5-1.65,7.8,7.8,0,0,1,.83-2.68L130.53,530l-4.1-1.85-5.75,12.8a15.35,15.35,0,0,0-1.7,5.78,6.84,6.84,0,0,0,1.26,3.8,8.33,8.33,0,0,0,3.58,2.9,9,9,0,0,0,3.38.84,7.24,7.24,0,0,0,3.15-.67,7,7,0,0,0,2.48-1.79,20.38,20.38,0,0,0,2.38-4.33Z"/><polygon points="161.76 543.98 150.01 556.7 151.77 539.49 147.79 537.7 134.43 557.49 138.41 559.28 146.86 546.79 145.28 562.37 148.88 563.99 159.53 552.49 155.74 567.07 159.69 568.85 165.74 545.77 161.76 543.98"/><path d="M182,559.73a5.45,5.45,0,0,0,.32-3.78,6.3,6.3,0,0,0-2.21-3.27,19.26,19.26,0,0,0-4.12-2.31l-3.38-1.52L163,570.31l6,2.71a10.13,10.13,0,0,0,4.41,1.09,6.75,6.75,0,0,0,5.82-4,6.3,6.3,0,0,0,.57-3.66,7.38,7.38,0,0,0-1.83-3.59,6.21,6.21,0,0,0,2.53-1.11A5.3,5.3,0,0,0,182,559.73Zm-6.73,8.41a2.36,2.36,0,0,1-1.73,1.47,6.77,6.77,0,0,1-3.71-.9l-1-.46,2.47-5.5.85.38a6.29,6.29,0,0,1,3.09,2.36A2.85,2.85,0,0,1,175.25,568.14Zm2.53-9.64a2.33,2.33,0,0,1-1.49,1.38,3.63,3.63,0,0,1-2.5-.37l-.9-.4,2-4.53,1,.48a3.44,3.44,0,0,1,1.83,1.53A2.21,2.21,0,0,1,177.78,558.5Z"/><path d="M197.53,571.8a6.54,6.54,0,0,0,2.61-3.08,7.11,7.11,0,0,0,.65-3.9,5.83,5.83,0,0,0-1.48-3.2,16,16,0,0,0-4.78-2.91l-4.33-1.94-9.65,21.46,4.09,1.83,4.08-9.08.38.16.74,11.26,4.46,2-.79-11.83A6.66,6.66,0,0,0,197.53,571.8Zm-5.74-4.23-1.28-.58,2-4.4,1.12.5a8.26,8.26,0,0,1,2.14,1.23,2.24,2.24,0,0,1,.46,2.57,2.13,2.13,0,0,1-1.5,1.37A5.53,5.53,0,0,1,191.79,567.57Z"/><path d="M212.61,587.33l-.3,5.17,4.24,1.91,1.39-25.17-4.14-1.86-17.92,17.74,4.24,1.91,3.74-3.64Zm.73-13.32-.45,8.65-5.74-2.58Z"/><rect x="317.8" y="566.26" width="4.45" height="23.53" transform="translate(-192.23 160.75) rotate(-21.86)"/><polygon points="335.73 559.05 341.49 573.42 326.38 562.8 322.39 564.4 331.16 586.23 335.31 584.57 329.56 570.24 344.64 580.82 348.64 579.22 339.88 557.38 335.73 559.05"/><path d="M359.83,553.36q1.68-.68,4.21.93l2-3.95a12.23,12.23,0,0,0-4.31-1.48,7.35,7.35,0,0,0-3.42.49,6.48,6.48,0,0,0-3.62,3.34,5.57,5.57,0,0,0-.17,4.6,6.13,6.13,0,0,0,2.31,2.73,25.79,25.79,0,0,0,6.41,2.64,16.76,16.76,0,0,1,3.33,1.3,2.67,2.67,0,0,1,1.15,1.27,2,2,0,0,1-.15,1.73A2.87,2.87,0,0,1,366,568.3c-1.37.55-3,.07-4.79-1.44l-2.65,3.51a9.72,9.72,0,0,0,4.41,2.41,7.86,7.86,0,0,0,4.52-.49,7.29,7.29,0,0,0,4.14-3.7,6.28,6.28,0,0,0,.08-5.18,6.56,6.56,0,0,0-1.55-2.33,9.43,9.43,0,0,0-2.77-1.73c-.48-.21-1.77-.66-3.89-1.35a30.07,30.07,0,0,1-4.18-1.58,1.87,1.87,0,0,1-.79-.89,1.41,1.41,0,0,1,.13-1.2A2.18,2.18,0,0,1,359.83,553.36Z"/><path d="M379,563.74a12.28,12.28,0,0,0,16.19-6.39,12.53,12.53,0,0,0-6.57-16.25,11.67,11.67,0,0,0-9.32-.16,12.35,12.35,0,0,0-7.59,9.66A12.59,12.59,0,0,0,379,563.74Zm-2.36-14.56a7.69,7.69,0,0,1,10.21-4,8.28,8.28,0,0,1,4.25,10.54,7.29,7.29,0,0,1-4.18,4.16,7.67,7.67,0,0,1-5.3.21,7.54,7.54,0,0,1-4.9-4.69A7.9,7.9,0,0,1,376.61,549.18Z"/><polygon points="413.69 553.12 412.1 549.15 406.05 551.58 398.87 533.71 394.72 535.38 403.48 557.22 413.69 553.12"/><polygon points="428.79 547.06 427.15 542.98 419.36 546.11 417.05 540.36 424.85 537.23 423.24 533.24 415.45 536.37 413.87 532.42 421.66 529.29 420.03 525.22 408.11 530.01 416.87 551.84 428.79 547.06"/><polygon points="435.05 544.55 431.92 529.79 442.05 541.74 445.71 540.27 444.82 524.62 452.69 537.47 456.71 535.86 444.29 515.49 440.24 517.11 441.24 534.39 430.07 521.2 426.02 522.82 431 546.17 435.05 544.55"/><path d="M192.08,627.53,223.91,616,199,605.08h0l-3.17,6.22-9.32,18.26Zm2.67-5.28,6.09-11.92L213,615.66Z"/><path d="M333.67,605.9l-24,10.35,30.52,11.32,5.62,2.08L333.67,605.9ZM320.56,616l11.22-4.84,5.67,11.1Z"/><path d="M112.08,174.46a10.12,10.12,0,0,0,5.63-1.92,12.27,12.27,0,0,0,4.28-5.35,13.27,13.27,0,0,0,1.23-5,10.52,10.52,0,0,0-1-4.67,10.28,10.28,0,0,0-2.69-3.68,30.36,30.36,0,0,0-6.45-3.51L94,141.87,91.29,148l19.92,8.82a14.92,14.92,0,0,1,4.15,2.38,4.22,4.22,0,0,1,1.17,2.44,5.5,5.5,0,0,1-.49,3.1,5.31,5.31,0,0,1-1.81,2.3,4.11,4.11,0,0,1-2.46.76,11.84,11.84,0,0,1-4-1.21l-20.68-9.16-2.71,6.11L103.47,172C107.28,173.66,110.15,174.48,112.08,174.46Z"/><polygon points="134.1 141.5 114.76 129.15 142.15 128.9 145.59 123.5 116.11 104.68 112.53 110.29 131.93 122.68 104.47 122.91 101.04 128.29 130.52 147.11 134.1 141.5"/><rect x="137.54" y="84.47" width="6.61" height="34.98" transform="translate(-27.79 144.33) rotate(-50.01)"/><polygon points="174.75 92.22 160.72 57.8 155.64 62.37 165.63 86.81 142.46 74.23 137.37 78.81 169.98 96.52 174.75 92.22"/><polygon points="206.43 70.29 203.06 64.69 192.36 71.12 187.62 63.24 198.31 56.8 195.02 51.32 184.32 57.76 181.06 52.34 191.76 45.9 188.4 40.32 172.04 50.16 190.07 80.14 206.43 70.29"/><path d="M220.05,64.59l-5-14,.58-.2L228,61.74l6.85-2.45-13-11.85a10,10,0,0,0,3.5-5,9.7,9.7,0,0,0-.38-6,10.59,10.59,0,0,0-3.32-4.85,8.5,8.5,0,0,0-4.88-1.9c-1.78-.1-4.48.5-8.12,1.8L202,33.9l11.77,32.93Zm-9.59-26.82,1.72-.61a11.86,11.86,0,0,1,3.56-.88,3.24,3.24,0,0,1,1.91.61,3.33,3.33,0,0,1,1.22,1.67,3.13,3.13,0,0,1-.19,3,8.16,8.16,0,0,1-3.84,2.26l-2,.7Z"/><path d="M238.84,36.33q2,2.31,8.25,6.19a25.13,25.13,0,0,1,4.31,3.11,3.94,3.94,0,0,1,1.18,2.24,2.93,2.93,0,0,1-.86,2.44A4.26,4.26,0,0,1,249,51.67q-3.26.42-6.36-3.85l-5.11,4.07A14.44,14.44,0,0,0,243,57a11.56,11.56,0,0,0,6.69,1A10.83,10.83,0,0,0,257,54.18a9.33,9.33,0,0,0,2-7.43,9.78,9.78,0,0,0-1.36-3.94,14.07,14.07,0,0,0-3.35-3.51q-.91-.72-5.1-3.39a44.49,44.49,0,0,1-5.42-3.83,2.68,2.68,0,0,1-.8-1.57,2,2,0,0,1,.62-1.68,3.23,3.23,0,0,1,2-1q2.67-.34,5.7,2.91l4.34-4.95A18.24,18.24,0,0,0,250,22.09a10.83,10.83,0,0,0-5.1-.56A9.64,9.64,0,0,0,238.48,25a8.23,8.23,0,0,0-1.94,6.55A9.08,9.08,0,0,0,238.84,36.33Z"/><rect x="254.53" y="35.29" width="34.98" height="6.61" transform="translate(222.89 308.91) rotate(-87.78)"/><path d="M300.92,59.77a13.15,13.15,0,0,0,5.7-1.81,15.41,15.41,0,0,0,4.92-4.6,19.92,19.92,0,0,0,3-6.91,19.86,19.86,0,0,0,0-10.22,14.85,14.85,0,0,0-4.49-7.41q-3.16-2.7-10.58-4.49l-7.66-1.84-8.2,34,7.79,1.87C295.84,59.43,299,59.89,300.92,59.77Zm-4.15-29.49,2.19.52q6,1.45,8.12,4.8,2.31,3.72,1,9.13a12.84,12.84,0,0,1-2.7,5.62A7.87,7.87,0,0,1,301.29,53q-2.25.54-6.68-.53l-3-.72Z"/><path d="M320.54,67.55l5.92-5L339,69.34,338,77l6.08,3.29,4.79-37.17-5.94-3.21L314.45,64.26Zm21-17.87-1.6,12.78L331.7,58Z"/><path d="M354.89,89.55Q360,94,362.64,95.21a13.08,13.08,0,0,0,5.88,1.05,15.41,15.41,0,0,0,6.5-1.78,21.55,21.55,0,0,0,10.66-13.75,14.82,14.82,0,0,0-.53-8.65q-1.54-3.85-7.27-8.89L372,58,348.88,84.27Zm17.8-22.38,1.69,1.49q4.67,4.09,4.95,8,.32,4.36-3.36,8.55a12.89,12.89,0,0,1-5,3.71,7.89,7.89,0,0,1-4.85.43q-2.24-.57-5.67-3.58l-2.32-2Z"/><path d="M390.24,128.53q3.74,5.68,6,7.51a13.08,13.08,0,0,0,5.39,2.58,15.47,15.47,0,0,0,6.74,0,21.56,21.56,0,0,0,13.93-10.43,14.73,14.73,0,0,0,1.77-8.48q-.45-4.14-4.65-10.51l-4.34-6.58-29.21,19.23Zm23.09-16.86,1.24,1.88q3.4,5.19,2.65,9-.86,4.29-5.51,7.35a12.87,12.87,0,0,1-5.81,2.26,7.93,7.93,0,0,1-4.79-.87c-1.34-.76-2.84-2.42-4.52-5l-1.69-2.58Z"/><polygon points="413.23 170.18 419.14 167.37 413.77 156.1 422.08 152.15 427.45 163.42 433.22 160.67 427.86 149.4 433.57 146.68 438.93 157.95 444.82 155.15 436.61 137.91 405.03 152.94 413.23 170.18"/><path d="M96.78,397.44a12.58,12.58,0,0,1,5-3.94,11.72,11.72,0,0,1,15.71,5.95q2.44,5.42-.18,11.81l6,2.42a20.15,20.15,0,0,0,.14-16.78,19,19,0,0,0-6.16-7.65,17.68,17.68,0,0,0-8.75-3.49,18.11,18.11,0,0,0-9.44,1.67,17.88,17.88,0,0,0-9.95,10.18,18.14,18.14,0,0,0,.77,14.3,20,20,0,0,0,4.57,6.57,24.65,24.65,0,0,0,7.79,4.52l2.44-6.05A19,19,0,0,1,99,413.76a12.59,12.59,0,0,1-3.16-4.38,12.4,12.4,0,0,1-1.13-6.27A10.94,10.94,0,0,1,96.78,397.44Z"/><path d="M145.94,437.61,142.28,432,124.05,444a15,15,0,0,1-4.25,2.2,4.26,4.26,0,0,1-2.69-.34,5.6,5.6,0,0,1-2.33-2.1,5.24,5.24,0,0,1-1-2.77,4.06,4.06,0,0,1,.69-2.47,11.75,11.75,0,0,1,3.18-2.7l18.92-12.39L133,417.79l-17.44,11.43q-5.23,3.42-6.77,5.88a10.2,10.2,0,0,0-1.45,5.76,12.27,12.27,0,0,0,2.17,6.5,13,13,0,0,0,3.55,3.76,10.62,10.62,0,0,0,4.47,1.69,10.33,10.33,0,0,0,4.55-.27,29.67,29.67,0,0,0,6.45-3.51Z"/><polygon points="166.29 460.95 149.49 476.68 156.06 450.03 151.7 445.37 126.17 469.27 130.72 474.13 147.47 458.45 140.93 485.04 145.31 489.72 170.84 465.81 166.29 460.95"/><path d="M192.54,484.48q-1.95-3.68-8.21-8l-6.46-4.52-20,28.67,6.56,4.58q5.56,3.9,8.32,4.77a13,13,0,0,0,6,.4,15.46,15.46,0,0,0,6.26-2.48,20.17,20.17,0,0,0,5.35-5.32A19.89,19.89,0,0,0,194,493,14.75,14.75,0,0,0,192.54,484.48Zm-7.67,14.07a12.88,12.88,0,0,1-4.57,4.25,8,8,0,0,1-4.77,1c-1.53-.21-3.53-1.19-6-2.94L167,499.05,179.61,481l1.85,1.29q5.08,3.56,5.8,7.43Q188.06,494,184.87,498.55Z"/><rect x="185.87" y="504.82" width="34.98" height="6.61" transform="translate(-343.04 476.55) rotate(-64.88)"/><polygon points="237.09 525.21 228.12 499.26 221.92 497.73 213.48 531.67 219.94 533.27 225.48 511.01 234.45 536.88 240.66 538.42 249.1 504.48 242.64 502.88 237.09 525.21"/><path d="M267.82,504.92l-12.17,35.46,6.91-.26,2.58-7.31,14.26-.53,3,7.1,6.92-.26-14.75-34.45Zm-.48,21.32,4.24-12.18,5.11,11.82Z"/><polygon points="317.51 494.55 318 520.27 302.17 500.02 296.06 502.2 302.11 537.18 308.22 535 304.42 512.9 318.77 531.23 324.3 529.26 323.88 505.96 334.83 525.5 340.9 523.34 323.62 492.37 317.51 494.55"/><path d="M342.31,480.71l9.23,36.34,5.64-4-1.84-7.52L367,497.27l6.4,4.29,5.64-4-31.2-20.75Zm18.9,12.69-7.63,5.41-3.12-12.51Z"/><path d="M388.39,460.9a9.71,9.71,0,0,0-3-5.18,10.59,10.59,0,0,0-5.15-2.83,8.49,8.49,0,0,0-5.22.49c-1.63.72-3.77,2.47-6.44,5.27l-4.86,5.11L389,487.88l4.59-4.83-10.72-10.21.42-.44,16.15,4.52,5-5.28-17-4.72A10,10,0,0,0,388.39,460.9ZM382,463.11c-.14,1-.95,2.21-2.41,3.74l-1.44,1.51-5.2-4.95,1.26-1.32A12,12,0,0,1,377,459.7a3.29,3.29,0,0,1,2-.31,3.39,3.39,0,0,1,1.85.94A3.12,3.12,0,0,1,382,463.11Z"/><path d="M419.4,432.61a18.93,18.93,0,0,1,.34,6.58,13.28,13.28,0,0,1-6.76,9.28,10.88,10.88,0,0,1-5.93,1.21,12.42,12.42,0,0,1-6-2.19A11.7,11.7,0,0,1,397.77,431q3.3-4.95,10.11-6.1l-1.1-6.34a20.12,20.12,0,0,0-14.31,8.77,19,19,0,0,0-3.22,9.27,17.51,17.51,0,0,0,1.67,9.27,18.13,18.13,0,0,0,6.41,7.13,18,18,0,0,0,13.91,3.05A18.15,18.15,0,0,0,423,447.84a20,20,0,0,0,3.16-7.36,24.72,24.72,0,0,0-.3-9Z"/><path d="M409.56,398.42l26.36,26.65,2.84-6.31-5.4-5.55,5.86-13,7.69.47,2.84-6.31-37.42-2.09Zm22.72,1.36-3.84,8.53-9-9.2Z"/><path d="M425.42,298.61l-31.53-30,24.85-35.76-41-14.62,8.16-42.77-43.42,3.33-9.95-42.4-38.31,20.7-26.33-34.68-26.58,34.49-38.16-21-10.25,42.32-43.4-3.64,7.86,42.83-41.13,14.33,24.59,35.93-31.74,29.82,37.09,22.82-16.88,40.15,43.17,5.77.91,43.54,41.78-12.29,18.54,39.4,33.17-28.21,33,28.45,18.83-39.27,41.69,12.59,1.22-43.53,43.21-5.46-16.59-40.27ZM266.86,405.45,234.52,433l-18.08-38.41-40.72,12-.89-42.44-42.08-5.62,16.45-39.14-36.15-22.25L144,268l-24-35,40.09-14-7.66-41.76,42.3,3.55,10-41.26L242,160l25.91-33.62,25.66,33.81L330.87,140l9.69,41.32,42.33-3.24-7.95,41.7,40,14.25L390.7,268.9l30.73,29.28-36.3,22,16.16,39.25-42.11,5.32L358,407.18l-40.64-12.27L299,433.19Z"/><path d="M396,268.36l20-28.82,5.24-7.55-7-2.49-34.71-12.37,8.29-43.49L343.72,177l-10.11-43.11-39,21.05L267.88,119.7l-27,35.07-38.8-21.33-10.42,43-44.12-3.71,8,43.56-36.64,12.76-5.18,1.8,3.84,5.61,21.17,30.93-24.6,23.11-6.23,5.84-1.45,1.37,1.61,1,6.82,4.2,29.28,18L127,361.78l43.89,5.86.93,44.27,42.48-12.49,18.86,40.07,33.73-28.69,33.52,28.93L319.5,399.8l42.39,12.79,1.25-44.26L406,362.92l1.11-.14-.59-1.42L390.2,321.84,418.05,305l6.86-4.15,3.17-1.92-2.87-2.73L419,290.24Zm8.74,93.08-43.21,5.46-1.22,43.53-41.69-12.59-18.83,39.27-33-28.45-33.17,28.21-18.54-39.4-41.78,12.29-.91-43.54-43.17-5.77,16.88-40.15-37.09-22.82,31.74-29.82-24.59-35.93,41.13-14.33-7.86-42.83,43.4,3.64,10.25-42.32,38.16,21,26.58-34.49,26.33,34.68,38.31-20.7,9.95,42.4,43.42-3.33-8.16,42.77,41,14.62-24.85,35.76,31.53,30-37.25,22.56Z"/><path d="M358,407.18l1.2-42.44,42.11-5.32-16.16-39.25,36.3-22L390.7,268.9,414.93,234l-40-14.25,7.95-41.7-42.33,3.24L330.87,140l-37.35,20.18-25.66-33.81L242,160l-37.2-20.45-10,41.26-42.3-3.55L160.11,219,120,233l24,35-30.94,29.06,36.15,22.25-16.45,39.14,42.08,5.62.89,42.44,40.72-12L234.52,433l32.34-27.51L299,433.19l18.35-38.28ZM115.71,296.8l30.41-28.56-23.56-34.43L162,220.09l-7.52-41L196,182.55,205.82,142l36.56,20.09,25.47-33,25.22,33.23,36.7-19.84,9.53,40.62,41.6-3.19-7.82,41,39.3,14-23.81,34.26,30.21,28.78L383.1,319.5,399,358.08l-41.39,5.23L356.42,405,316.48,393l-18,37.62-31.59-27.26-31.77,27L217.32,392.6l-40,11.77-.88-41.71-41.35-5.53,16.17-38.46Z"/><path d="M266.37,388.29c60.45,0,109.77-48.38,109.77-107.69S326.82,172.92,266.37,172.92,156.59,221.29,156.59,280.6,205.9,388.29,266.37,388.29Zm0-208.88c56.94,0,103.27,45.4,103.27,101.19S323.31,381.8,266.37,381.8,163.08,336.4,163.08,280.6,209.42,179.41,266.37,179.41Z"/><path d="M281.39,317.17c4.14-1.07,6-6.12,7.78-11a48,48,0,0,1,2-4.93l.13-.24.19.18c8.22,7.87,13.72,9.27,27.18,9.71,2.18.07,3.92.19,5.32.29,3.67.25,5.88.4,7.6-1.35s1.47-3.89,1.2-6.89c-.11-1.11-.23-2.47-.31-4.13a115.67,115.67,0,0,1,0-11.69c.15-4,.24-6.39-1.58-8.26s-4.34-1.85-8.5-1.79c-2.28,0-5.09.06-8.87-.11-7.56-.33-9.85-.43-10.09-19.24a3.37,3.37,0,0,0-.51-1.72l0-.06v-.06a3.21,3.21,0,0,0-.06-.85c-2.58-12.4-8.35-22.53-14.05-24.64a5.54,5.54,0,0,0-5.41.67c-2.27,1.74-14.2,7.54-22.85,4.63-4.33-1.45-7.21-4.86-8.81-10.4v-.07c.06-.92.45-3.22.68-4.59.8-4.78,1.1-6.57-1.35-7.75l-2.34-1.07-1.7,1.88c-7.12,7.89-18.28,8-21.53,7.79l-.08,0a3.35,3.35,0,0,0-1.85-.39,3.39,3.39,0,0,0-3.1,3.67l.35,4c1.46,17.26,3.91,46.16,3,61.2V290c-.21.66-1,2.37-1.64,3.74-4.29,9.29-7.55,17.34-3.92,22,1.23,1.56,3.72,3.23,8.6,2.26a43.69,43.69,0,0,0,7.57-2.54c2.37-1,4.69-1.86,5.75-1.86h.25l.05.1a4.66,4.66,0,0,1,.39,1.44c.34,2.35.86,5.3,1.41,8.43l.06.34c.7,4,3,17.42,3,23.85a3.39,3.39,0,0,0,6.78,0v-.13a4.33,4.33,0,0,0,.09-.8C252,334.16,271.26,319.81,281.39,317.17Zm-30.57,14.42-.29.42-.08-.5c-.41-2.76-.9-5.71-1.44-8.77s-1.09-6.17-1.44-8.57c-.45-3.11-1.72-5.28-3.76-6.44-3.5-2-7.61-.33-12,1.44a37.33,37.33,0,0,1-6.32,2.17,5.6,5.6,0,0,1-1.86.13l-.12,0,0-.12c-.52-1.77,1.06-6.58,4.81-14.7,1.55-3.34,2.18-4.75,2.25-6,1-15.47-1.52-44.67-3-62.12l0-.22h.22a36.53,36.53,0,0,0,16.92-4.24l.34-.19,0,.38a6.51,6.51,0,0,0,.07,2.45c2.72,10,8.73,13.89,13.3,15.42,11.11,3.73,24.52-2.6,28.34-5.12l.11-.07.11.07c2,1.31,6.85,7.78,9.27,19.41a3.62,3.62,0,0,0,.44,1.1l0,.05v.07a.31.31,0,0,0,0,.1.19.19,0,0,0,0,.08c.26,20.26,3.51,25.35,16.57,25.93,4,.18,7,.14,9.24.11,1.14,0,2.3,0,3.11,0h.19v.19c0,.74,0,1.73-.07,2.69v.1c-.1,2.68-.26,6.73,0,12.32.09,1.8.23,3.3.33,4.4l.09,1-.24,0-1.41-.09c-1.46-.1-3.26-.22-5.58-.3-12.18-.4-16.18-1.42-23.24-8.34-2.24-2.2-4.34-2.3-5.71-2-3.77.85-5.41,5.32-7.15,10.05-1.06,2.88-2.27,6-3.2,6.78l-.08,0C271,312.92,258,321.38,250.82,331.59Z"/></g></g></svg>