<svg xmlns="http://www.w3.org/2000/svg" viewBox="0 0 1002.86 467.54"><defs><style>.cls-1{fill:#007b3e;}</style></defs><g id="Capa_2" data-name="Capa 2"><g id="Capa_2-2" data-name="Capa 2"><path class="cls-1" d="M491.42,56.69V52h61.34v4.72h-6.52a17.6,17.6,0,0,0-15.72,8.57q-2.68,4-2.68,18.4v70.27q0,26.07-5.18,40.45T502.35,219q-15.15,10.28-41.21,10.28-28.36,0-43.06-9.84A53.2,53.2,0,0,1,397.25,193q-4.1-11.37-4.09-42.67V82.63q0-16-4.41-20.95t-14.25-5H368V52h74.87v4.72h-6.64q-10.73,0-15.33,6.78-3.19,4.59-3.2,19.16v75.52a165.83,165.83,0,0,0,1.86,23.13q1.84,13,6.7,20.31a36.44,36.44,0,0,0,14,12q9.13,4.72,22.42,4.72a61.83,61.83,0,0,0,30.41-7.41q13.43-7.41,18.34-19t4.92-39.17V82.63q0-16.22-3.58-20.31-5-5.62-14.82-5.63Z"/><path class="cls-1" d="M558.7,225.23v-3.31h4.56q7.69,0,10.91-4.91,2-3,2-13.24V125.41q0-11.35-2.51-14.22-3.48-3.93-10.37-3.93H558.7V104h49.37q27.2,0,41.37,6.17t22.81,20.57q8.63,14.4,8.63,33.27,0,25.32-15.38,42.31-17.26,19-52.6,19Zm34.61-8.76a91.39,91.39,0,0,0,19.05,2.5q20.76,0,34.44-14.58t13.69-39.53q0-25.14-13.69-39.63t-35.15-14.49a76,76,0,0,0-18.34,2.6Z"/><path class="cls-1" d="M726.14,110.57v47.94h26.65q10.38,0,13.87-3.13,4.65-4.11,5.19-14.49h3.31v42.22h-3.31q-1.26-8.87-2.51-11.36a11.14,11.14,0,0,0-5.28-4.92Q760.4,165,752.79,165H726.14v40q0,8.05.72,9.79a5.6,5.6,0,0,0,2.5,2.78c1.19.68,3.46,1,6.8,1h20.57q10.29,0,14.94-1.44a22.22,22.22,0,0,0,8.94-5.63Q786.16,206,792,194.82h3.58l-10.47,30.41H691.61v-3.31h4.3a17,17,0,0,0,8.14-2,7.59,7.59,0,0,0,3.89-4.3q1-2.85,1-11.71v-78.8q0-11.55-2.33-14.23-3.23-3.57-10.73-3.57h-4.3V104h93.47l1.35,26.56h-3.49q-1.87-9.57-4.16-13.15a14.28,14.28,0,0,0-6.75-5.45q-3.59-1.35-12.62-1.34Z"/><path class="cls-1" d="M957.3,48l4,58.91h-4q-7.92-26.44-22.61-38.08T899.42,57.2A57.37,57.37,0,0,0,868.24,66q-13.92,8.75-21.91,27.92t-8,47.66q0,23.51,7.54,40.76t22.68,26.45q15.15,9.19,34.57,9.2,16.86,0,29.77-7.22t28.37-28.68l4,2.55q-13,23.13-30.41,33.86T893.54,229.2q-43.06,0-66.7-31.95-17.62-23.76-17.63-56a99.3,99.3,0,0,1,11.63-47.66,84.15,84.15,0,0,1,32-33.67,86.51,86.51,0,0,1,44.53-12,81.63,81.63,0,0,1,37,9.2Q939.8,60,942.1,60a8.45,8.45,0,0,0,6-2.43A20,20,0,0,0,952.83,48Z"/><path class="cls-1" d="M389.57,278.46v-1.4h18.16v1.4H405.8a5.19,5.19,0,0,0-4.65,2.53q-.79,1.17-.8,5.45v20.81q0,7.71-1.53,12a15,15,0,0,1-6,7.3q-4.49,3-12.2,3.05-8.4,0-12.75-2.92a15.76,15.76,0,0,1-6.17-7.83q-1.21-3.36-1.21-12.63V286.14c0-3.16-.43-5.22-1.3-6.21a5.39,5.39,0,0,0-4.22-1.47H353v-1.4H375.2v1.4h-2a5.1,5.1,0,0,0-4.54,2q-.94,1.37-.95,5.68v22.35a50.1,50.1,0,0,0,.55,6.85,14.66,14.66,0,0,0,2,6,10.86,10.86,0,0,0,4.14,3.55,14.24,14.24,0,0,0,6.64,1.4,18.31,18.31,0,0,0,9-2.19,11.75,11.75,0,0,0,5.43-5.62q1.45-3.42,1.46-11.59V286.14c0-3.21-.35-5.21-1.06-6a5.56,5.56,0,0,0-4.39-1.66Z"/><path class="cls-1" d="M407.54,277.06h13.92l31.36,38.47V286q0-4.72-1.06-5.9a5.58,5.58,0,0,0-4.42-1.59h-1.78v-1.4h17.85v1.4H461.6q-3.25,0-4.62,2-.83,1.21-.83,5.53v43.24h-1.36L421,287.88v31.59q0,4.72,1,5.9a5.73,5.73,0,0,0,4.43,1.59h1.81v1.39H410.38V327h1.78q3.29,0,4.65-2,.82-1.22.83-5.52V283.79a23.19,23.19,0,0,0-3.38-3.44,12.63,12.63,0,0,0-3.39-1.55,11.94,11.94,0,0,0-3.33-.34Z"/><path class="cls-1" d="M488.42,327v1.39h-22V327h1.82a5.46,5.46,0,0,0,4.61-1.86q.92-1.22.91-5.82V286.14a17,17,0,0,0-.49-5.15,3.38,3.38,0,0,0-1.55-1.62,7.12,7.12,0,0,0-3.48-.91h-1.82v-1.4h22v1.4h-1.85a5.44,5.44,0,0,0-4.58,1.85q-.94,1.21-.95,5.83v33.14a16.81,16.81,0,0,0,.5,5.14,3.42,3.42,0,0,0,1.58,1.63,7.06,7.06,0,0,0,3.45.91Z"/><path class="cls-1" d="M545.32,277.06v1.4a8.41,8.41,0,0,0-4.13,1.74,15.71,15.71,0,0,0-3.55,5.67l-17.9,43.66h-1.4L499.13,285.3a25.88,25.88,0,0,0-2.08-4.16,6.73,6.73,0,0,0-2.33-1.83,10.65,10.65,0,0,0-3.73-.85v-1.4h21v1.4c-2.37.22-3.91.63-4.61,1.21a2.74,2.74,0,0,0-1.06,2.23,17.07,17.07,0,0,0,1.74,5.9l13.05,30.08,12.1-29.7q1.79-4.4,1.78-6.09a2.88,2.88,0,0,0-1.1-2.1,7.19,7.19,0,0,0-3.7-1.42l-.65-.11v-1.4Z"/><path class="cls-1" d="M562.45,279.86v20.27h11.28c2.92,0,4.88-.44,5.86-1.32q2-1.74,2.19-6.13h1.4v17.86h-1.4a19.11,19.11,0,0,0-1.06-4.81,4.72,4.72,0,0,0-2.23-2.08,11.45,11.45,0,0,0-4.76-.75H562.45v16.9a15.21,15.21,0,0,0,.31,4.15,2.37,2.37,0,0,0,1,1.17,6.5,6.5,0,0,0,2.88.43h8.7a23.79,23.79,0,0,0,6.32-.6,9.43,9.43,0,0,0,3.78-2.38,29.26,29.26,0,0,0,4.81-7.08h1.51l-4.43,12.86H547.85V327h1.82a7.2,7.2,0,0,0,3.44-.87,3.18,3.18,0,0,0,1.64-1.82,17.78,17.78,0,0,0,.44-5V286c0-3.26-.33-5.26-1-6-.91-1-2.43-1.51-4.54-1.51h-1.82v-1.4h39.53l.57,11.23h-1.48a17.59,17.59,0,0,0-1.75-5.56,6.09,6.09,0,0,0-2.86-2.31,17.46,17.46,0,0,0-5.33-.56Z"/><path class="cls-1" d="M645.94,328.35H632.25l-17.37-24c-1.28.05-2.33.08-3.14.08l-1,0-1.18-.06v14.91c0,3.22.36,5.23,1.06,6a5.4,5.4,0,0,0,4.31,1.67h2v1.39h-22V327h1.93a5.15,5.15,0,0,0,4.65-2.12q.79-1.18.8-5.56V286.14c0-3.23-.36-5.24-1.06-6a5.57,5.57,0,0,0-4.39-1.66h-1.93v-1.4H613.6q8.17,0,12,1.19a13.77,13.77,0,0,1,6.58,4.39,11.42,11.42,0,0,1,2.7,7.62,12,12,0,0,1-3.08,8.21q-3.09,3.48-9.55,4.92l10.59,14.71q3.63,5.07,6.24,6.74a15.82,15.82,0,0,0,6.81,2.12ZM609.51,302c.48,0,.9,0,1.25,0l.87,0q7.33,0,11.07-3.18a10.19,10.19,0,0,0,3.72-8.1,10.56,10.56,0,0,0-3-7.81,10.76,10.76,0,0,0-8-3,33.4,33.4,0,0,0-5.94.72Z"/><path class="cls-1" d="M680.78,275.88v17.75h-1.4a21.91,21.91,0,0,0-2.44-8.14,12.74,12.74,0,0,0-5-4.8,13.81,13.81,0,0,0-6.73-1.78,9.17,9.17,0,0,0-6.51,2.4,7.35,7.35,0,0,0-2.57,5.47,6.43,6.43,0,0,0,1.63,4.27q2.34,2.85,11.15,7.57a76.66,76.66,0,0,1,9.82,5.92,14.64,14.64,0,0,1,4,4.86,12.77,12.77,0,0,1,1.42,5.87,13.29,13.29,0,0,1-4.52,10A16.4,16.4,0,0,1,668,329.53a25.3,25.3,0,0,1-4.19-.34,43.66,43.66,0,0,1-4.86-1.38,21.65,21.65,0,0,0-4.68-1.2,2,2,0,0,0-1.49.57,4.44,4.44,0,0,0-.81,2.35h-1.4V311.94H652a24.73,24.73,0,0,0,2.64,8.26,12.73,12.73,0,0,0,5.09,4.56,15.79,15.79,0,0,0,7.51,1.82,10.71,10.71,0,0,0,7.47-2.5,7.71,7.71,0,0,0,2.74-5.9,7.91,7.91,0,0,0-1-3.82,11.34,11.34,0,0,0-3.23-3.6q-1.47-1.12-8.06-4.82a78.17,78.17,0,0,1-9.36-5.88,16,16,0,0,1-4.22-4.84,12,12,0,0,1-1.44-5.83,12.64,12.64,0,0,1,4.24-9.51,15.1,15.1,0,0,1,10.78-4,21.54,21.54,0,0,1,8.66,2,9,9,0,0,0,3,.95,2.25,2.25,0,0,0,1.61-.59,4.63,4.63,0,0,0,1-2.37Z"/><path class="cls-1" d="M712.26,327v1.39h-22V327h1.81a5.48,5.48,0,0,0,4.62-1.86q.91-1.22.91-5.82V286.14a17.29,17.29,0,0,0-.49-5.15,3.4,3.4,0,0,0-1.56-1.62,7.12,7.12,0,0,0-3.48-.91h-1.81v-1.4h22v1.4H710.4a5.42,5.42,0,0,0-4.57,1.85q-.95,1.21-1,5.83v33.14a16.92,16.92,0,0,0,.49,5.14,3.4,3.4,0,0,0,1.59,1.63,7,7,0,0,0,3.44.91Z"/><path class="cls-1" d="M715.47,328.35V327h1.93q3.26,0,4.62-2.09.83-1.25.83-5.59V286.14c0-3.21-.35-5.21-1.06-6a5.56,5.56,0,0,0-4.39-1.66h-1.93v-1.4h20.89q11.49,0,17.49,2.61a20.84,20.84,0,0,1,9.65,8.7,26.87,26.87,0,0,1,3.65,14.07q0,10.71-6.51,17.9-7.3,8-22.24,8Zm14.64-3.7a39.13,39.13,0,0,0,8.06,1.06,19.15,19.15,0,0,0,14.57-6.17q5.78-6.17,5.78-16.72t-5.78-16.76a19.57,19.57,0,0,0-14.87-6.13,32.24,32.24,0,0,0-7.76,1.1Z"/><path class="cls-1" d="M805.54,311.18H785.68l-3.48,8.1a12.93,12.93,0,0,0-1.28,4.46A2.59,2.59,0,0,0,782,325.8c.75.59,2.36,1,4.83,1.16v1.39H770.7V327c2.15-.38,3.53-.87,4.16-1.48q1.93-1.82,4.28-7.38l18-42.22h1.33l17.85,42.68q2.16,5.15,3.92,6.67a7.94,7.94,0,0,0,4.9,1.73v1.39H804.94V327c2-.11,3.42-.45,4.14-1a2.62,2.62,0,0,0,1.08-2.11,15.84,15.84,0,0,0-1.51-5.26Zm-1-2.8-8.71-20.73-8.92,20.73Z"/><path class="cls-1" d="M827.37,328.35V327h1.93q3.26,0,4.62-2.09.83-1.25.83-5.59V286.14c0-3.21-.35-5.21-1.06-6a5.56,5.56,0,0,0-4.39-1.66h-1.93v-1.4h20.88q11.5,0,17.5,2.61a20.84,20.84,0,0,1,9.65,8.7,26.87,26.87,0,0,1,3.65,14.07q0,10.71-6.51,17.9-7.31,8-22.24,8Zm14.64-3.7a39,39,0,0,0,8.06,1.06,19.11,19.11,0,0,0,14.56-6.17q5.79-6.17,5.79-16.72t-5.79-16.76a19.54,19.54,0,0,0-14.86-6.13A32.24,32.24,0,0,0,842,281Z"/><path class="cls-1" d="M902.69,328.35V327h1.93q3.25,0,4.62-2.09.82-1.25.83-5.59V286.14c0-3.21-.36-5.21-1.06-6a5.56,5.56,0,0,0-4.39-1.66h-1.93v-1.4h20.88q11.5,0,17.5,2.61a20.84,20.84,0,0,1,9.65,8.7,26.87,26.87,0,0,1,3.65,14.07q0,10.71-6.51,17.9-7.3,8-22.24,8Zm14.64-3.7a39,39,0,0,0,8.06,1.06A19.13,19.13,0,0,0,940,319.54q5.79-6.17,5.79-16.72T940,286.06a19.55,19.55,0,0,0-14.86-6.13,32.24,32.24,0,0,0-7.76,1.1Z"/><path class="cls-1" d="M973.51,279.86v20.27h11.27q4.4,0,5.86-1.32,2-1.74,2.2-6.13h1.4v17.86h-1.4a19.59,19.59,0,0,0-1.06-4.81,4.77,4.77,0,0,0-2.23-2.08,11.53,11.53,0,0,0-4.77-.75H973.51v16.9a15.85,15.85,0,0,0,.3,4.15,2.35,2.35,0,0,0,1.06,1.17,6.42,6.42,0,0,0,2.87.43h8.71a23.7,23.7,0,0,0,6.31-.6,9.46,9.46,0,0,0,3.79-2.38,29.26,29.26,0,0,0,4.8-7.08h1.51l-4.42,12.86H958.91V327h1.81a7.17,7.17,0,0,0,3.44-.87,3.2,3.2,0,0,0,1.65-1.82,17.9,17.9,0,0,0,.43-5V286c0-3.26-.32-5.26-1-6q-1.37-1.52-4.54-1.51h-1.81v-1.4h39.53l.56,11.23h-1.47a17.8,17.8,0,0,0-1.76-5.56,6,6,0,0,0-2.86-2.31,17.42,17.42,0,0,0-5.33-.56Z"/><path class="cls-1" d="M406.73,353.13l1.17,17.44h-1.17q-2.36-7.83-6.7-11.27a16.33,16.33,0,0,0-10.44-3.44,17,17,0,0,0-9.23,2.59,17.17,17.17,0,0,0-6.49,8.26,37,37,0,0,0-2.36,14.11,29.89,29.89,0,0,0,2.23,12.07,16.72,16.72,0,0,0,6.71,7.83,19.29,19.29,0,0,0,10.24,2.73,17.79,17.79,0,0,0,8.81-2.14q3.83-2.15,8.4-8.49l1.17.75a26.89,26.89,0,0,1-9,10,22.77,22.77,0,0,1-12.22,3.18q-12.75,0-19.75-9.46a27.05,27.05,0,0,1-5.22-16.57,29.38,29.38,0,0,1,3.45-14.11,24.88,24.88,0,0,1,9.47-10A25.59,25.59,0,0,1,389,353.13a24.15,24.15,0,0,1,11,2.73,6,6,0,0,0,2.27.83A2.47,2.47,0,0,0,404,356a5.8,5.8,0,0,0,1.4-2.84Z"/><path class="cls-1" d="M448.72,355.71v-1.4h18.16v1.4H465a5.22,5.22,0,0,0-4.66,2.53q-.8,1.17-.79,5.45v20.8q0,7.72-1.53,12a15.05,15.05,0,0,1-6,7.3q-4.49,3-12.2,3-8.4,0-12.75-2.91a15.74,15.74,0,0,1-6.16-7.83q-1.21-3.36-1.21-12.64V363.38q0-4.72-1.31-6.2a5.37,5.37,0,0,0-4.22-1.47h-1.93v-1.4h22.17v1.4h-2c-2.12,0-3.64.66-4.54,2q-.94,1.37-.95,5.67v22.36a48.67,48.67,0,0,0,.55,6.85,14.41,14.41,0,0,0,2,6,10.65,10.65,0,0,0,4.14,3.56,14.33,14.33,0,0,0,6.64,1.4,18.34,18.34,0,0,0,9-2.19,11.79,11.79,0,0,0,5.43-5.62q1.46-3.42,1.45-11.6V363.38q0-4.8-1-6a5.57,5.57,0,0,0-4.39-1.66Z"/><path class="cls-1" d="M466.69,354.31h13.92L512,392.78V363.2c0-3.16-.35-5.12-1.06-5.91a5.64,5.64,0,0,0-4.43-1.58h-1.77v-1.4h17.85v1.4h-1.81q-3.25,0-4.62,2-.82,1.21-.83,5.53v43.23h-1.36l-33.82-41.3v31.58c0,3.16.34,5.12,1,5.9a5.67,5.67,0,0,0,4.42,1.59h1.82v1.4H469.53v-1.4h1.77q3.3,0,4.66-2,.82-1.22.83-5.53V361a23.11,23.11,0,0,0-3.39-3.44,12.38,12.38,0,0,0-3.38-1.55,12,12,0,0,0-3.33-.34Z"/><path class="cls-1" d="M525,405.6v-1.4h1.93q3.26,0,4.62-2.08.83-1.25.83-5.6V363.38q0-4.8-1.06-6a5.56,5.56,0,0,0-4.39-1.66H525v-1.4h20.88q11.5,0,17.5,2.61a20.84,20.84,0,0,1,9.65,8.7,26.87,26.87,0,0,1,3.65,14.07q0,10.71-6.51,17.89-7.3,8-22.24,8Zm14.64-3.7a38.94,38.94,0,0,0,8.06,1.05,19.11,19.11,0,0,0,14.56-6.16q5.79-6.17,5.79-16.72t-5.79-16.76a19.5,19.5,0,0,0-14.86-6.13,32.24,32.24,0,0,0-7.76,1.1Z"/><path class="cls-1" d="M603.52,404.2v1.4h-22v-1.4h1.81c2.12,0,3.66-.61,4.62-1.85.6-.81.91-2.75.91-5.83V363.38a16.81,16.81,0,0,0-.5-5.14,3.44,3.44,0,0,0-1.55-1.63,7.22,7.22,0,0,0-3.48-.9h-1.81v-1.4h22v1.4h-1.86a5.4,5.4,0,0,0-4.57,1.85c-.64.81-1,2.75-1,5.82v33.14a17,17,0,0,0,.49,5.15,3.4,3.4,0,0,0,1.59,1.63,7,7,0,0,0,3.44.9Z"/><path class="cls-1" d="M604.39,354.31h13.92l31.36,38.47V363.2c0-3.16-.35-5.12-1.06-5.91a5.64,5.64,0,0,0-4.43-1.58H642.4v-1.4h17.86v1.4h-1.81q-3.26,0-4.62,2-.83,1.21-.83,5.53v43.23h-1.36l-33.82-41.3v31.58c0,3.16.34,5.12,1,5.9a5.67,5.67,0,0,0,4.42,1.59h1.82v1.4H607.22v-1.4H609q3.3,0,4.65-2,.84-1.22.84-5.53V361a23.11,23.11,0,0,0-3.39-3.44,12.38,12.38,0,0,0-3.38-1.55,12,12,0,0,0-3.33-.34Z"/><path class="cls-1" d="M696.8,388.43H676.94l-3.48,8.09a13,13,0,0,0-1.28,4.47,2.59,2.59,0,0,0,1.11,2.06c.75.59,2.35,1,4.83,1.15v1.4H662v-1.4c2.15-.38,3.53-.87,4.16-1.47,1.29-1.21,2.71-3.67,4.28-7.38l18-42.22h1.33l17.85,42.67q2.16,5.15,3.92,6.68a7.93,7.93,0,0,0,4.9,1.72v1.4H696.2v-1.4q3.06-.15,4.14-1a2.62,2.62,0,0,0,1.08-2.12,15.91,15.91,0,0,0-1.51-5.26Zm-1.06-2.8L687,364.9l-8.92,20.73Z"/><path class="cls-1" d="M749,405.6l-19.82-43.16v34.27c0,3.16.34,5.12,1,5.9a5.6,5.6,0,0,0,4.42,1.59h1.82v1.4H718.59v-1.4h1.82q3.26,0,4.62-2,.83-1.22.83-5.53V363.2a11.8,11.8,0,0,0-.76-4.92,4.17,4.17,0,0,0-2-1.84,10.47,10.47,0,0,0-4.56-.73v-1.4h14.53l18.61,40.13L770,354.31h14.53v1.4h-1.78q-3.28,0-4.65,2c-.56.81-.83,2.65-.83,5.53v33.51c0,3.16.35,5.12,1.05,5.9a5.62,5.62,0,0,0,4.43,1.59h1.78v1.4H762.78v-1.4h1.81q3.3,0,4.62-2,.82-1.22.83-5.53V362.44L750.26,405.6Z"/><path class="cls-1" d="M821.64,388.43H801.78l-3.48,8.09A12.82,12.82,0,0,0,797,401a2.6,2.6,0,0,0,1.12,2.06c.74.59,2.35,1,4.82,1.15v1.4H786.8v-1.4c2.14-.38,3.53-.87,4.16-1.47,1.29-1.21,2.71-3.67,4.28-7.38l18-42.22h1.33l17.85,42.67c1.44,3.43,2.74,5.66,3.92,6.68a7.93,7.93,0,0,0,4.89,1.72v1.4H821v-1.4q3.06-.15,4.14-1a2.62,2.62,0,0,0,1.08-2.12,15.74,15.74,0,0,0-1.52-5.26Zm-1.06-2.8-8.7-20.73L803,385.63Z"/><path class="cls-1" d="M894.5,405.6H880.81l-17.37-24c-1.28.05-2.33.07-3.14.07h-1.06l-1.17-.06v14.9q0,4.85,1.06,6a5.39,5.39,0,0,0,4.31,1.66h2v1.4h-22v-1.4h1.93c2.17,0,3.72-.7,4.65-2.12q.8-1.17.8-5.56V363.38c0-3.22-.36-5.23-1.06-6a5.57,5.57,0,0,0-4.39-1.66h-1.93v-1.4h18.69q8.16,0,12,1.19a13.79,13.79,0,0,1,6.59,4.39,11.42,11.42,0,0,1,2.7,7.62,12,12,0,0,1-3.08,8.21q-3.09,3.48-9.55,4.91l10.59,14.72q3.63,5.07,6.24,6.73a15.68,15.68,0,0,0,6.81,2.12Zm-36.43-26.36h1.25c.35,0,.64,0,.87,0q7.34,0,11.06-3.17A10.16,10.16,0,0,0,875,368a10.54,10.54,0,0,0-3-7.81,10.74,10.74,0,0,0-8-3,33.4,33.4,0,0,0-5.94.72Z"/><path class="cls-1" d="M940.46,353.13l1.18,17.44h-1.18q-2.34-7.83-6.69-11.27a16.33,16.33,0,0,0-10.44-3.44,16.93,16.93,0,0,0-9.23,2.59,17.11,17.11,0,0,0-6.49,8.26,36.77,36.77,0,0,0-2.37,14.11,29.89,29.89,0,0,0,2.24,12.07,16.61,16.61,0,0,0,6.71,7.83,19.28,19.28,0,0,0,10.23,2.73,17.83,17.83,0,0,0,8.82-2.14q3.81-2.15,8.4-8.49l1.17.75a26.89,26.89,0,0,1-9,10,22.79,22.79,0,0,1-12.22,3.18q-12.75,0-19.75-9.46a27.05,27.05,0,0,1-5.22-16.57,29.48,29.48,0,0,1,3.44-14.11,25,25,0,0,1,9.48-10,25.56,25.56,0,0,1,13.18-3.54,24.09,24.09,0,0,1,11,2.73,6.05,6.05,0,0,0,2.27.83,2.49,2.49,0,0,0,1.78-.72,5.89,5.89,0,0,0,1.4-2.84Z"/><path class="cls-1" d="M980.94,388.43H961.08l-3.48,8.09a12.82,12.82,0,0,0-1.29,4.47,2.6,2.6,0,0,0,1.12,2.06c.74.59,2.35,1,4.82,1.15v1.4H946.1v-1.4c2.14-.38,3.53-.87,4.16-1.47,1.29-1.21,2.71-3.67,4.28-7.38l18-42.22h1.32l17.86,42.67c1.44,3.43,2.74,5.66,3.92,6.68a7.93,7.93,0,0,0,4.89,1.72v1.4H980.34v-1.4q3.06-.15,4.14-1a2.62,2.62,0,0,0,1.08-2.12A15.74,15.74,0,0,0,984,395.8Zm-1.06-2.8-8.7-20.73-8.93,20.73Z"/><path class="cls-1" d="M156.09,0C70.92,0,1.46,90.68,1.46,201.86c0,72.05,29.16,135.48,72.87,171.21l22.82,10c-17.39-9.84-33.07-23.77-46.6-41.44a208.78,208.78,0,0,1-32.46-62.79,253.85,253.85,0,0,1,0-154A208.73,208.73,0,0,1,50.55,62.08C64.37,44,80.43,29.87,98.26,20a116.81,116.81,0,0,1,115.66,0c17.84,9.88,33.89,24,47.72,42.09a208.93,208.93,0,0,1,32.45,62.78,253.85,253.85,0,0,1,0,154,209,209,0,0,1-32.45,62.79c-13.83,18-29.88,32.2-47.72,42.08-.68.38-1.36.73-2,1.1l24.52-10.57c44.51-35.51,74.33-99.55,74.33-172.4C310.72,90.68,241.26,0,156.09,0Z"/><path class="cls-1" d="M41.19,201.86c0,3.87.11,7.69.33,11.48L46,209.13q-.14-3.62-.14-7.27a192.41,192.41,0,0,1,2.61-31.63l-2.76-4,3.73-1.3C61.8,102.19,104.81,55.69,155.73,55.69s94.08,46.64,106.36,109.51l5,1.79-3.77,5.43a192.91,192.91,0,0,1,2.25,29.44c0,2.37-.05,4.72-.13,7.06l4.48,4.27q.32-5.61.32-11.33C270.28,118.69,218.89,51,155.73,51S41.19,118.69,41.19,201.86Z"/><path class="cls-1" d="M121,393.58l21.3,9.35a119.08,119.08,0,0,0,27.56,0l22.84-9.85a115.26,115.26,0,0,1-71.7.5Z"/><path class="cls-1" d="M256.47,260.11l.43,1-.8.1C238.94,312.3,200.38,348,155.73,348c-56.4,0-103.1-57.05-109.19-130l-4.91-3c5.08,77,54.31,137.68,114.1,137.68,59.41,0,108.39-59.86,114-136.18l-4.94,3A183.1,183.1,0,0,1,256.47,260.11Z"/><path class="cls-1" d="M155.44,432.69a91,91,0,0,1-24.25-3.24l-1.18,2.7a94.38,94.38,0,0,0,25.43,3.46c.9,0,1.82,0,2.72,0a94.09,94.09,0,0,0,23.58-3.68l-1.17-2.7a91.05,91.05,0,0,1-22.49,3.46Z"/><path class="cls-1" d="M212.79,453.23l-8.72-17.1h0Z"/><path class="cls-1" d="M107.1,435.54,104.81,440l2.29-4.48Z"/><path class="cls-1" d="M208.74,451.73l.35.68-.41.2a124.05,124.05,0,0,1-45.25,11.77h-.51a8.65,8.65,0,0,0-2.11.23H150.22a3.32,3.32,0,0,0-1-.15H149c-3-.17-5.65-.4-8.2-.71a124.45,124.45,0,0,1-25-5.64,128.83,128.83,0,0,1-14-5.7l.36-.72-4,1.45c-.31.47-.15.65.29.87a129.16,129.16,0,0,0,16.45,6.86,126.3,126.3,0,0,0,25.54,5.78c2.85.35,5.72.58,8.58.73h.25a.24.24,0,0,1,.25.15h11.77a8.31,8.31,0,0,1,2.38-.25,126.3,126.3,0,0,0,46.31-12c.89-.42,1.75-.88,2.64-1.28.43-.19.4-.38.22-.74Z"/><path class="cls-1" d="M312.13,388.73v0l0,0Z"/><path class="cls-1" d="M282.09,441.42a149.08,149.08,0,0,1,28.59-51c-12.9,5.3-40.73,17.29-40.73,17.29C271.26,426.79,275.52,432.41,282.09,441.42ZM273,409.58c4.76-2.05,17.53-7.53,28.26-12.06a151.16,151.16,0,0,0-20.09,37.64C276.89,428.88,274.16,423,273,409.58Z"/><path class="cls-1" d="M192.73,393.08l-22.84,9.85-.54.23,11.22,26,1.17,2.7,5,11.69,17.29-7.46h0l106.57-45.95-17.42-40.42-56.83,24.5-24.52,10.57Zm99-39.49,15.12,35.07L188.3,439.75l-15.12-35.06Z"/><path class="cls-1" d="M30.08,440.18c6.58-9,10.77-14.08,12.07-33.15,0,0-30.37-13.34-40.66-17.84A149,149,0,0,1,30.08,440.18Zm.91-6.24a151.7,151.7,0,0,0-19.87-37.35l28,12.28C38,422.26,35.25,427.83,31,433.94Z"/><polygon class="cls-1" points="0 387.48 0.04 387.52 0.05 387.49 0 387.48 0 387.48"/><path class="cls-1" d="M107.1,435.54l18,7.89L130,432.15l1.18-2.7,11.57-26.33-.43-.19L121,393.58,97.15,383.09l-22.82-10L19.24,348.89,1.55,389.2,107.1,435.54ZM5.4,387.7l15.34-35,118.17,51.88-15.35,35Z"/><polygon class="cls-1" points="22.28 375.69 27.79 378.16 29.06 375.34 23.55 372.86 24.81 370.07 30.32 372.55 31.61 369.67 23.18 365.88 16.24 381.33 24.67 385.12 25.97 382.23 20.45 379.75 22.28 375.69"/><polygon class="cls-1" points="43.16 374.86 37.68 378.36 36.66 371.94 33.35 370.45 34.89 380.14 26.08 385.75 29.41 387.25 35.41 383.41 36.52 390.44 39.83 391.93 38.2 381.63 46.46 376.35 43.16 374.86"/><path class="cls-1" d="M65.35,384.84l-2.95-1.33-4.32,9.62a7.67,7.67,0,0,1-1.16,2,2.11,2.11,0,0,1-1.19.56,2.71,2.71,0,0,1-1.5-.25,2.55,2.55,0,0,1-1.11-.88,2,2,0,0,1-.36-1.19,5.78,5.78,0,0,1,.59-1.93l4.49-10-3-1.33-4.14,9.21a11.31,11.31,0,0,0-1.22,4.17,4.92,4.92,0,0,0,.91,2.73A6,6,0,0,0,53,398.33a6.37,6.37,0,0,0,2.42.6,5.1,5.1,0,0,0,2.27-.48,4.86,4.86,0,0,0,1.79-1.29,15,15,0,0,0,1.71-3.11Z"/><polygon class="cls-1" points="80.32 391.57 71.87 400.72 73.13 388.33 70.26 387.04 60.65 401.29 63.51 402.58 69.59 393.58 68.46 404.8 71.05 405.97 78.72 397.69 75.99 408.19 78.83 409.46 83.19 392.85 80.32 391.57"/><path class="cls-1" d="M94.87,402.9a3.9,3.9,0,0,0,.24-2.72,4.62,4.62,0,0,0-1.59-2.36,14.33,14.33,0,0,0-3-1.66l-2.43-1.09-7,15.45,4.34,1.94a7.08,7.08,0,0,0,3.17.79,4.69,4.69,0,0,0,2.45-.82,4.76,4.76,0,0,0,1.74-2.07,4.51,4.51,0,0,0,.4-2.64A5.21,5.21,0,0,0,92,405.14a4.43,4.43,0,0,0,1.82-.8A3.77,3.77,0,0,0,94.87,402.9ZM90,409A1.69,1.69,0,0,1,88.79,410a4.94,4.94,0,0,1-2.68-.64l-.73-.33,1.78-4,.61.27a4.52,4.52,0,0,1,2.22,1.7A2,2,0,0,1,90,409ZM91.85,402a1.7,1.7,0,0,1-1.07,1,2.66,2.66,0,0,1-1.8-.27l-.64-.29,1.46-3.25.76.34a2.47,2.47,0,0,1,1.31,1.1A1.54,1.54,0,0,1,91.85,402Z"/><path class="cls-1" d="M106.07,411.59a4.63,4.63,0,0,0,1.87-2.22,5,5,0,0,0,.47-2.8,4.12,4.12,0,0,0-1.06-2.31,11.49,11.49,0,0,0-3.44-2.09l-3.12-1.4-6.94,15.45,2.94,1.32L99.73,411l.27.13.53,8.1,3.22,1.44-.58-8.51A4.82,4.82,0,0,0,106.07,411.59Zm-4.13-3-.92-.41,1.42-3.17.81.36a5.77,5.77,0,0,1,1.54.89,1.59,1.59,0,0,1,.46.85,1.68,1.68,0,0,1-.13,1,1.53,1.53,0,0,1-1.08,1A3.93,3.93,0,0,1,101.94,408.54Z"/><path class="cls-1" d="M116.93,422.76l-.23,3.73,3.06,1.37,1-18.11-3-1.35-12.9,12.77,3.06,1.38,2.68-2.62Zm.52-9.58-.32,6.23L113,417.55Z"/><rect class="cls-1" x="192.64" y="407.6" width="3.2" height="16.94" transform="translate(-140.97 102.26) rotate(-21.86)"/><polygon class="cls-1" points="205.54 402.41 209.69 412.75 198.82 405.11 195.95 406.26 202.25 421.98 205.25 420.78 201.11 410.46 211.96 418.08 214.84 416.93 208.53 401.21 205.54 402.41"/><path class="cls-1" d="M222.9,398.31a3.38,3.38,0,0,1,3,.67l1.43-2.84a8.75,8.75,0,0,0-3.1-1.06,5.29,5.29,0,0,0-2.46.35,4.61,4.61,0,0,0-2.6,2.41,4,4,0,0,0-.13,3.3,4.48,4.48,0,0,0,1.66,2,19.16,19.16,0,0,0,4.62,1.9,12.21,12.21,0,0,1,2.4.94,1.94,1.94,0,0,1,.83.91,1.45,1.45,0,0,1-.11,1.24,2.08,2.08,0,0,1-1.12,1c-1,.4-2.13.05-3.45-1l-1.9,2.53a6.92,6.92,0,0,0,3.17,1.73,5.56,5.56,0,0,0,3.26-.35,5.29,5.29,0,0,0,3-2.66,4.53,4.53,0,0,0,0-3.73,4.79,4.79,0,0,0-1.11-1.68,6.8,6.8,0,0,0-2-1.24c-.34-.15-1.27-.48-2.8-1a24.05,24.05,0,0,1-3-1.14,1.29,1.29,0,0,1-.57-.64,1,1,0,0,1,.09-.87A1.53,1.53,0,0,1,222.9,398.31Z"/><path class="cls-1" d="M236.67,405.79a8.86,8.86,0,0,0,11.66-4.61,8.56,8.56,0,0,0,0-6.77,8.66,8.66,0,0,0-4.76-4.92,8.42,8.42,0,0,0-6.71-.12,8.94,8.94,0,0,0-.22,16.42ZM235,395.3a5.54,5.54,0,0,1,7.36-2.9,6,6,0,0,1,3,7.58,5.23,5.23,0,0,1-3,3,5.55,5.55,0,0,1-3.81.15,5.42,5.42,0,0,1-3.53-3.37A5.76,5.76,0,0,1,235,395.3Z"/><polygon class="cls-1" points="261.66 398.14 260.52 395.29 256.16 397.04 251 384.17 248.01 385.37 254.31 401.09 261.66 398.14"/><polygon class="cls-1" points="272.53 393.78 271.35 390.84 265.74 393.09 264.08 388.96 269.69 386.71 268.54 383.83 262.93 386.08 261.79 383.24 267.4 380.99 266.23 378.06 257.64 381.5 263.95 397.22 272.53 393.78"/><polygon class="cls-1" points="277.04 391.97 274.78 381.35 282.08 389.95 284.71 388.89 284.07 377.63 289.74 386.88 292.63 385.72 283.69 371.06 280.77 372.23 281.5 384.66 273.45 375.16 270.54 376.33 274.12 393.14 277.04 391.97"/><path class="cls-1" d="M102.14,451.71l22.92-8.28-18-7.89h0L104.81,440l-6.7,13.14Zm1.93-3.81,4.38-8.58,8.74,3.84Z"/><path class="cls-1" d="M204.06,436.13l-17.29,7.46,22,8.14,4,1.5-8.73-17.1Zm-9.43,7.25,8.08-3.48,4.07,8Z"/><path class="cls-1" d="M44.56,125.57a7.32,7.32,0,0,0,4-1.37,8.86,8.86,0,0,0,3.09-3.85,9.62,9.62,0,0,0,.88-3.62,7.61,7.61,0,0,0-.73-3.36,7.51,7.51,0,0,0-1.94-2.65,22,22,0,0,0-4.64-2.52l-13.73-6.08-1.95,4.4,14.34,6.35a10.87,10.87,0,0,1,3,1.71,3,3,0,0,1,.83,1.75,4,4,0,0,1-.35,2.23,3.81,3.81,0,0,1-1.3,1.66,3,3,0,0,1-1.77.55,8.37,8.37,0,0,1-2.87-.87l-14.88-6.59-1.95,4.4,13.72,6.07C41.11,125,43.17,125.6,44.56,125.57Z"/><polygon class="cls-1" points="60.41 101.85 46.49 92.97 66.2 92.78 68.68 88.9 47.46 75.35 44.88 79.39 58.85 88.31 39.09 88.47 36.61 92.34 57.83 105.89 60.41 101.85"/><rect class="cls-1" x="62.89" y="60.8" width="4.76" height="25.18" transform="translate(-32.91 76.22) rotate(-50.01)"/><polygon class="cls-1" points="89.67 66.38 79.57 41.6 75.92 44.89 83.1 62.49 66.43 53.43 62.77 56.73 86.24 69.47 89.67 66.38"/><polygon class="cls-1" points="112.47 50.6 110.05 46.56 102.35 51.2 98.93 45.52 106.63 40.89 104.26 36.94 96.56 41.58 94.22 37.67 101.92 33.04 99.5 29.02 87.72 36.11 100.7 57.68 112.47 50.6"/><path class="cls-1" d="M122.28,46.5l-3.59-10,.41-.14L128,44.44,133,42.68l-9.39-8.53a7.24,7.24,0,0,0,2.53-3.59,7,7,0,0,0-.28-4.31,7.66,7.66,0,0,0-2.39-3.49,6.11,6.11,0,0,0-3.51-1.37,17,17,0,0,0-5.85,1.3l-4.78,1.71,8.48,23.71Zm-6.9-19.31,1.23-.44a8.94,8.94,0,0,1,2.57-.64,2.38,2.38,0,0,1,1.37.44,2.44,2.44,0,0,1,.88,1.21,2.21,2.21,0,0,1-.14,2.16,5.78,5.78,0,0,1-2.76,1.63l-1.41.5Z"/><path class="cls-1" d="M135.8,26.15a28,28,0,0,0,5.94,4.46,18.78,18.78,0,0,1,3.11,2.23,2.92,2.92,0,0,1,.85,1.62,2.14,2.14,0,0,1-.62,1.75,3.06,3.06,0,0,1-2,1c-1.56.2-3.09-.72-4.57-2.77l-3.69,2.93A10.48,10.48,0,0,0,138.78,41a8.29,8.29,0,0,0,4.81.7A7.77,7.77,0,0,0,148.87,39a6.76,6.76,0,0,0,1.47-5.35,7.17,7.17,0,0,0-1-2.83A10,10,0,0,0,147,28.29q-.66-.52-3.67-2.44a32.23,32.23,0,0,1-3.9-2.76A1.85,1.85,0,0,1,138.8,22a1.44,1.44,0,0,1,.45-1.21,2.31,2.31,0,0,1,1.46-.69q1.92-.25,4.11,2.09l3.12-3.57a13.29,13.29,0,0,0-4.07-2.68,7.84,7.84,0,0,0-3.68-.4A6.93,6.93,0,0,0,135.55,18a5.92,5.92,0,0,0-1.4,4.71A6.5,6.5,0,0,0,135.8,26.15Z"/><rect class="cls-1" x="147.1" y="25.4" width="25.18" height="4.76" transform="translate(125.73 186.27) rotate(-87.78)"/><path class="cls-1" d="M180.49,43a9.44,9.44,0,0,0,4.11-1.3,11.08,11.08,0,0,0,3.54-3.31,14.67,14.67,0,0,0,2.19-5,14.32,14.32,0,0,0,0-7.36,10.65,10.65,0,0,0-3.24-5.33c-1.52-1.3-4.05-2.38-7.61-3.23L174,16.19l-5.9,24.47,5.6,1.35A26,26,0,0,0,180.49,43Zm-3-21.23,1.58.38c2.9.7,4.84,1.85,5.84,3.45a8.38,8.38,0,0,1,.73,6.58,9.37,9.37,0,0,1-2,4,5.69,5.69,0,0,1-2.94,1.9,11.06,11.06,0,0,1-4.82-.39l-2.16-.52Z"/><path class="cls-1" d="M194.61,48.62,198.88,45l9,4.88-.74,5.5,4.39,2.37L215,31l-4.28-2.31-20.5,17.53Zm15.12-12.86L208.57,45l-5.92-3.2Z"/><path class="cls-1" d="M219.34,64.46a26.23,26.23,0,0,0,5.57,4.07,9.47,9.47,0,0,0,4.24.76A11.12,11.12,0,0,0,233.83,68a14.64,14.64,0,0,0,4.25-3.38,14.28,14.28,0,0,0,3.42-6.52,10.53,10.53,0,0,0-.38-6.22c-.74-1.86-2.48-4-5.23-6.41l-4.27-3.74L215,60.66Zm12.81-16.11,1.22,1.07q3.36,3,3.56,5.77a8.33,8.33,0,0,1-2.42,6.16,9.27,9.27,0,0,1-3.6,2.67,5.72,5.72,0,0,1-3.49.31,11.1,11.1,0,0,1-4.08-2.58l-1.67-1.47Z"/><path class="cls-1" d="M244.78,92.52a26.57,26.57,0,0,0,4.3,5.4A9.42,9.42,0,0,0,253,99.78a11,11,0,0,0,4.85,0,15.49,15.49,0,0,0,10-7.51,10.64,10.64,0,0,0,1.28-6.1q-.33-3-3.35-7.56l-3.12-4.75-21,13.85ZM261.4,80.38l.9,1.36c1.63,2.49,2.27,4.66,1.9,6.51a8.34,8.34,0,0,1-4,5.29,9.25,9.25,0,0,1-4.18,1.63,5.68,5.68,0,0,1-3.45-.63A11.15,11.15,0,0,1,249.36,91l-1.23-1.86Z"/><polygon class="cls-1" points="261.33 122.5 265.58 120.48 261.72 112.36 267.7 109.52 271.57 117.63 275.72 115.65 271.86 107.54 275.97 105.58 279.83 113.7 284.07 111.68 278.16 99.27 255.43 110.09 261.33 122.5"/><path class="cls-1" d="M33.55,286.08a9,9,0,0,1,3.63-2.83,8.43,8.43,0,0,1,11.31,4.28,10.38,10.38,0,0,1-.14,8.5l4.29,1.74a14.48,14.48,0,0,0,.1-12.08,13.69,13.69,0,0,0-4.43-5.5A12.64,12.64,0,0,0,42,277.68a13,13,0,0,0-6.8,1.19,12.92,12.92,0,0,0-7.17,7.33,13.09,13.09,0,0,0,.56,10.3,14.4,14.4,0,0,0,3.29,4.73,17.84,17.84,0,0,0,5.61,3.25l1.75-4.35a13.66,13.66,0,0,1-4.14-2.3,9.14,9.14,0,0,1-2.28-3.16,9,9,0,0,1-.81-4.51A7.82,7.82,0,0,1,33.55,286.08Z"/><path class="cls-1" d="M68.93,315l-2.63-4-13.12,8.59a11.21,11.21,0,0,1-3.06,1.59,3.09,3.09,0,0,1-1.94-.25,4.07,4.07,0,0,1-1.68-1.51,3.9,3.9,0,0,1-.68-2,3,3,0,0,1,.5-1.78,8.41,8.41,0,0,1,2.29-1.94l13.62-8.91-2.64-4L47,309c-2.51,1.64-4.14,3.05-4.87,4.23a7.26,7.26,0,0,0-1.05,4.15A8.89,8.89,0,0,0,42.68,322a9.38,9.38,0,0,0,2.56,2.7,7.61,7.61,0,0,0,3.22,1.22,7.5,7.5,0,0,0,3.27-.19,22.14,22.14,0,0,0,4.64-2.53Z"/><polygon class="cls-1" points="83.58 331.8 71.49 343.12 76.22 323.94 73.08 320.58 54.7 337.78 57.98 341.28 70.03 330 65.33 349.14 68.48 352.5 86.86 335.3 83.58 331.8"/><path class="cls-1" d="M102.48,348.73q-1.41-2.64-5.91-5.78l-4.65-3.26L77.49,360.33l4.73,3.3a26,26,0,0,0,6,3.43,9.44,9.44,0,0,0,4.3.29,11.17,11.17,0,0,0,4.5-1.79,15.48,15.48,0,0,0,6.54-10.68A10.68,10.68,0,0,0,102.48,348.73ZM97,358.87a9.26,9.26,0,0,1-3.28,3.05,5.7,5.7,0,0,1-3.44.69,11.16,11.16,0,0,1-4.34-2.11l-1.82-1.28,9.1-13,1.33.93c2.44,1.7,3.84,3.49,4.18,5.34A8.33,8.33,0,0,1,97,358.87Z"/><rect class="cls-1" x="97.68" y="363.38" width="25.18" height="4.76" transform="translate(-267.71 310.32) rotate(-64.88)"/><polygon class="cls-1" points="134.54 378.05 128.09 359.38 123.63 358.27 117.55 382.7 122.2 383.86 126.19 367.83 132.64 386.45 137.12 387.56 143.19 363.13 138.54 361.98 134.54 378.05"/><path class="cls-1" d="M156.66,363.45,147.9,389l5-.19,1.85-5.25,10.27-.39,2.16,5.11,5-.19-10.62-24.79Zm-.34,15.34,3.05-8.76,3.68,8.51Z"/><polygon class="cls-1" points="192.44 355.98 192.79 374.5 181.39 359.92 176.99 361.49 181.34 386.67 185.75 385.1 183.01 369.19 193.34 382.39 197.32 380.97 197.02 364.19 204.9 378.26 209.27 376.71 196.83 354.41 192.44 355.98"/><path class="cls-1" d="M210.29,346l6.64,26.16L221,369.3l-1.33-5.42,8.38-5.94,4.61,3.09,4.06-2.88-22.46-14.94Zm13.6,9.13-5.49,3.9-2.25-9Z"/><path class="cls-1" d="M243.46,331.76a7,7,0,0,0-2.19-3.72,7.52,7.52,0,0,0-3.71-2,6,6,0,0,0-3.75.35,16.91,16.91,0,0,0-4.64,3.79l-3.5,3.68,18.24,17.36,3.3-3.47-7.72-7.36.3-.31,11.63,3.25,3.61-3.8-12.22-3.39A7.29,7.29,0,0,0,243.46,331.76Zm-4.58,1.59a6,6,0,0,1-1.74,2.7l-1,1.08-3.75-3.56.91-.95a8.39,8.39,0,0,1,2-1.72,2.37,2.37,0,0,1,1.43-.23,2.47,2.47,0,0,1,1.33.68A2.28,2.28,0,0,1,238.88,333.35Z"/><path class="cls-1" d="M265.77,311.4a13.44,13.44,0,0,1,.25,4.73,9.26,9.26,0,0,1-1.47,3.61,9,9,0,0,1-3.4,3.07,7.75,7.75,0,0,1-4.26.87,8.93,8.93,0,0,1-4.33-1.57,8.45,8.45,0,0,1-2.36-11.86,10.4,10.4,0,0,1,7.28-4.39l-.79-4.56a14.49,14.49,0,0,0-10.3,6.31,13.71,13.71,0,0,0-2.32,6.67,12.65,12.65,0,0,0,1.2,6.67,13.07,13.07,0,0,0,4.62,5.14,12.87,12.87,0,0,0,10,2.19,13.06,13.06,0,0,0,8.44-5.92,14.57,14.57,0,0,0,2.27-5.3,18.09,18.09,0,0,0-.21-6.48Z"/><path class="cls-1" d="M258.69,286.78l19,19.19,2-4.54-3.89-4,4.22-9.37,5.54.34,2-4.54-26.93-1.51Zm16.36,1-2.77,6.14-6.49-6.63Z"/><path class="cls-1" d="M270.11,214.94l-22.7-21.62,17.89-25.74-29.53-10.52,5.87-30.79-31.25,2.39-7.16-30.51-27.58,14.9-19-25-19.13,24.83L110.1,97.81l-7.38,30.47-31.23-2.62,5.65,30.83L47.53,166.8l17.71,25.87L42.39,214.13l26.69,16.43-12.14,28.9L88,263.61,88.67,295l30.07-8.85,13.35,28.37L156,294.16l23.73,20.48,13.55-28.27,30,9.06.88-31.33,31.1-3.93-11.94-29ZM156,291.85l-23.27,19.8-13-27.65-29.31,8.62-.64-30.55L59.44,258l11.84-28.17-26-16,22.27-20.92L50.28,167.7l28.85-10L73.62,127.6l30.45,2.55,7.19-29.7L138,115.17,156.69,91l18.48,24.33,26.88-14.52,7,29.75,30.46-2.34-5.72,30,28.78,10.26-17.43,25.09,22.12,21.08L241.1,230.46l11.64,28.25-30.32,3.84-.86,30.54-29.25-8.83L179.1,311.81Z"/><path class="cls-1" d="M248.94,193.17l14.42-20.75,3.77-5.43-5-1.79-25-8.91,6-31.31-31.78,2.44-7.28-31-28,15.15L156.71,86.16l-19.46,25.25L109.32,96.05l-7.5,31-31.76-2.66,5.75,31.35L49.44,164.9l-3.73,1.3,2.76,4L63.71,192.5,46,209.13l-4.48,4.21-1,1,1.15.71,4.91,3,21.08,13L55.27,260.41l31.59,4.22.67,31.87,30.58-9,13.57,28.84L156,295.7l24.13,20.82,13.77-28.74L224.38,297l.89-31.86,30.83-3.9.8-.1-.43-1-11.71-28.45,20-12.14,4.94-3,2.28-1.38-2.06-2-4.48-4.27Zm6.29,67-31.1,3.93-.88,31.33-30-9.06-13.55,28.27L156,294.16l-23.87,20.31L118.74,286.1,88.67,295,88,263.61l-31.07-4.15,12.14-28.9L42.39,214.13l22.85-21.46L47.53,166.8l29.61-10.31-5.65-30.83,31.23,2.62,7.38-30.47,27.47,15.1L156.7,88.08l19,25,27.58-14.9,7.16,30.51,31.25-2.39-5.87,30.79,29.53,10.52-17.89,25.74,22.7,21.62-26.82,16.24Z"/><path class="cls-1" d="M221.56,293.09l.86-30.54,30.32-3.84L241.1,230.46l26.14-15.83-22.12-21.08,17.43-25.09L233.77,158.2l5.72-30L209,130.53l-7-29.75L175.17,115.3,156.69,91,138,115.17l-26.78-14.72-7.19,29.7L73.62,127.6l5.51,30.05-28.85,10,17.25,25.22L45.26,213.84l26,16L59.44,258l30.29,4.05.64,30.55L119.68,284l13,27.65L156,291.85l23.13,20,13.21-27.55ZM47.17,213.64l21.89-20.56-17-24.78,28.36-9.88-5.41-29.53L105,131.4,112,102.21l26.32,14.47,18.32-23.79,18.16,23.92,26.42-14.28,6.86,29.24,29.94-2.3L232.43,159l28.29,10.08-17.14,24.66,21.75,20.71L239.64,230l11.44,27.77-29.8,3.76-.84,30-28.75-8.68-13,27.08L156,290.31,133.1,309.77,120.32,282.6l-28.81,8.47-.64-30-29.76-4,11.64-27.69Z"/><path class="cls-1" d="M155.62,279.49c43.52,0,79-34.82,79-77.51s-35.49-77.51-79-77.51-79,34.82-79,77.51S112.1,279.49,155.62,279.49Zm0-150.35c41,0,74.34,32.68,74.34,72.84s-33.35,72.84-74.34,72.84S81.27,242.15,81.27,202,114.62,129.14,155.62,129.14Z"/><path class="cls-1" d="M166.43,228.3c3-.77,4.31-4.4,5.6-7.91a36.33,36.33,0,0,1,1.46-3.56l.09-.17.14.14c5.91,5.66,9.87,6.66,19.56,7,1.57.05,2.83.14,3.83.21,2.64.18,4.23.29,5.47-1s1.06-2.8.86-5c-.07-.8-.16-1.78-.22-3a83.47,83.47,0,0,1,0-8.42c.11-2.87.17-4.6-1.14-5.94s-3.12-1.33-6.11-1.29c-1.64,0-3.67,0-6.39-.08-5.44-.24-7.09-.31-7.26-13.85a2.42,2.42,0,0,0-.37-1.24l0,0v0a2.39,2.39,0,0,0,0-.62c-1.86-8.92-6-16.21-10.12-17.73a4,4,0,0,0-3.89.48c-1.63,1.25-10.22,5.43-16.45,3.33-3.12-1-5.19-3.49-6.34-7.48v0c0-.66.32-2.32.49-3.31.57-3.44.79-4.73-1-5.58l-1.68-.77-1.22,1.36c-5.13,5.68-13.16,5.72-15.5,5.6h-.06a2.44,2.44,0,0,0-3.56,2.36l.25,2.92c1,12.42,2.82,33.22,2.18,44.05v0c-.16.47-.73,1.7-1.19,2.69-3.09,6.68-5.43,12.48-2.82,15.79.89,1.13,2.68,2.33,6.19,1.63a30.59,30.59,0,0,0,5.45-1.83,16.64,16.64,0,0,1,4.14-1.33h.18l0,.07a3.62,3.62,0,0,1,.28,1c.24,1.69.62,3.82,1,6.07l0,.24c.5,2.86,2.15,12.54,2.15,17.17a2.44,2.44,0,0,0,4.88,0v-.09a2.59,2.59,0,0,0,.06-.58C145.25,240.53,159.14,230.2,166.43,228.3Zm-22,10.38-.21.3-.06-.36c-.3-2-.65-4.11-1-6.31s-.79-4.44-1-6.16a6,6,0,0,0-2.71-4.65c-2.52-1.44-5.48-.23-8.6,1a26.22,26.22,0,0,1-4.56,1.56,4.13,4.13,0,0,1-1.33.1h-.09l0-.09c-.37-1.27.76-4.74,3.46-10.58,1.12-2.41,1.57-3.42,1.62-4.32.69-11.13-1.09-32.15-2.16-44.71v-.16h.16A26.29,26.29,0,0,0,140,161.28l.25-.14,0,.28a4.63,4.63,0,0,0,.05,1.76c2,7.17,6.29,10,9.57,11.1,8,2.69,17.65-1.87,20.4-3.68l.08-.06.08.06c1.43.94,4.94,5.6,6.68,14a2.35,2.35,0,0,0,.32.79l0,0v0s0,.05,0,.07v.06c.19,14.59,2.53,18.25,11.93,18.67,2.86.13,5.05.1,6.65.08.82,0,1.65,0,2.23,0h.14v.14c0,.53,0,1.25-.05,1.94v.07c-.07,1.93-.18,4.85,0,8.87.07,1.3.17,2.38.24,3.16l.06.7h-.17l-1-.07c-1.06-.07-2.35-.16-4-.22-8.77-.29-11.65-1-16.73-6a4.31,4.31,0,0,0-4.11-1.43c-2.71.61-3.9,3.82-5.15,7.23-.76,2.08-1.63,4.34-2.3,4.88l-.05,0C159,225.24,149.58,231.33,144.43,238.68Z"/></g></g></svg>