<svg width="105" height="105" viewBox="0 0 105 105" fill="none" xmlns="http://www.w3.org/2000/svg">
<path d="M55.3964 0.519376C54.6789 0.707311 54.098 1.0661 53.5 1.66407C52.6116 2.55249 52.2357 3.45799 52.2357 4.72228C52.2357 5.9524 52.6458 6.96041 53.4829 7.78049C55.2085 9.45481 57.8396 9.4719 59.5139 7.78049C61.8716 5.42276 60.7953 1.35654 57.6004 0.519376C57.0708 0.365612 55.9261 0.365612 55.3964 0.519376Z" fill="#E1AB61"/>
<path d="M46.7856 1.74936C45.5896 2.56944 44.8892 3.90206 44.8892 5.37137C44.8892 6.5844 45.2992 7.57533 46.1535 8.44667C46.6831 8.9763 47.674 9.52302 48.0841 9.52302C48.2036 9.52302 48.5112 9.36925 48.7845 9.16423C50.1513 8.15622 50.8006 6.49898 50.493 4.85882C50.2368 3.57745 49.3996 2.43276 48.272 1.85187C47.4519 1.40766 47.2981 1.40766 46.7856 1.74936Z" fill="#E1AB61"/>
<path d="M37.9185 2.29606C36.7397 2.60359 35.6462 3.49201 35.1166 4.58545C34.7578 5.35427 34.587 6.15727 34.6553 6.87484C34.8945 9.14714 36.7568 10.8385 39.0291 10.8385C40.1737 10.8385 41.1647 10.4114 42.0189 9.57426C42.8903 8.68584 43.3345 7.48989 43.249 6.20852C43.1294 4.48294 42.0018 3.01363 40.3788 2.43274C39.7637 2.21064 38.5165 2.1423 37.9185 2.29606Z" fill="#E1AB61"/>
<path d="M65.374 3.13339C63.9218 3.52634 62.6917 4.75646 62.2987 6.22577C62.1449 6.7554 62.162 7.90009 62.2987 8.4639C62.4696 9.16438 62.8283 9.76235 63.358 10.3262C63.9389 10.9241 64.1097 10.9583 64.964 10.6508C66.382 10.1382 67.3388 9.13021 67.7659 7.72924C67.9709 7.02876 67.9367 5.88407 67.6976 5.1665C67.4413 4.44893 66.9971 3.76553 66.5187 3.33841C66.1257 2.96254 66.0232 2.94545 65.374 3.13339Z" fill="#E1AB61"/>
<path d="M72.4643 5.16637C70.2945 5.74726 68.9106 7.89997 69.2694 10.0868C69.5598 11.7783 70.9437 13.2476 72.601 13.5893C74.8562 14.0506 77.1285 12.6325 77.7094 10.3773C78.2732 8.13916 76.8722 5.74726 74.617 5.16637C74.019 4.99552 73.0622 5.01261 72.4643 5.16637Z" fill="#E1AB61"/>
<path d="M29.0685 6.96042C28.163 7.93426 27.8213 9.77944 28.2826 11.1121C28.9147 12.8889 30.5378 14.0848 32.3659 14.0848C32.8955 14.0848 32.9126 14.0848 33.1518 13.7944C33.6985 13.1281 34.0573 12.0688 34.0573 11.1121C34.0573 9.9332 33.6473 8.95936 32.793 8.08803C32.1438 7.42171 31.4775 7.06293 30.589 6.87499C29.6835 6.68706 29.3248 6.70414 29.0685 6.96042Z" fill="#E1AB61"/>
<path d="M22.5591 10.2577C21.6365 10.4115 20.6456 10.9411 20.0476 11.6074C19.6717 12.0516 19.1934 12.9229 19.0567 13.4697C18.9029 14.1018 18.9371 15.1782 19.125 15.7932C19.4325 16.7671 20.2014 17.7409 21.1069 18.2705C22.747 19.2444 25.2243 18.8685 26.4374 17.4675C27.172 16.6133 27.5308 15.6736 27.5308 14.5289C27.5308 13.6063 27.3429 12.9229 26.8816 12.2395C25.9248 10.7702 24.2334 10.0014 22.5591 10.2577Z" fill="#E1AB61"/>
<path d="M80.8189 11.1974C78.9054 11.6929 77.5557 13.4185 77.5557 15.4003C77.5557 16.5279 78.017 17.7751 78.4612 17.8776C80.0501 18.2022 81.4169 17.7922 82.5274 16.6817C83.4158 15.7933 83.7746 14.9219 83.7746 13.6576C83.7746 12.6496 83.3646 11.3683 82.9887 11.2145C82.7153 11.0778 81.3144 11.0778 80.8189 11.1974Z" fill="#E1AB61"/>
<path d="M86.474 15.7078C84.3555 16.3912 83.0741 18.4585 83.45 20.5771C84.0479 24.0111 88.2337 25.3438 90.7281 22.8835C91.6507 21.978 92.0608 20.8846 91.9924 19.552C91.8899 17.758 90.7452 16.2546 89.0026 15.7249C88.3363 15.5028 87.1232 15.5028 86.474 15.7078Z" fill="#E1AB61"/>
<path d="M15.2297 17.946C14.3754 18.1852 14.2729 18.2706 14.1192 18.7832C13.6408 20.4404 14.3242 22.4052 15.7593 23.4303C17.0065 24.3187 18.4246 24.5066 19.8939 23.9599C20.3552 23.7891 20.3552 23.772 20.4919 23.3278C20.5773 23.0544 20.6285 22.5931 20.6285 22.1318C20.6285 20.1671 19.313 18.4756 17.3824 17.9802C16.8186 17.8093 15.7252 17.8093 15.2297 17.946Z" fill="#E1AB61"/>
<path d="M10.4288 23.4986C8.22482 24.0283 6.78968 26.3006 7.25098 28.5045C7.60976 30.2301 8.90822 31.5456 10.6167 31.9044C11.3685 32.0753 11.8127 32.0582 12.5473 31.8703C13.3845 31.6652 13.9825 31.3065 14.6146 30.6743C15.4347 29.8371 15.7764 28.9658 15.7764 27.7015C15.7935 24.8996 13.1624 22.8323 10.4288 23.4986Z" fill="#E1AB61"/>
<path d="M92.1633 24.3187C90.3181 24.8312 89.0026 26.5397 89.0026 28.4533C89.0026 29.4442 89.0026 29.4442 89.7714 29.8201C91.0869 30.4693 92.3 30.4864 93.6326 29.8371C94.726 29.3246 95.6486 28.1628 95.9391 26.9669C96.0928 26.3176 96.0757 25.2071 95.9049 25.0192C95.717 24.8142 94.9823 24.4554 94.4698 24.3187C93.923 24.1649 92.6929 24.1649 92.1633 24.3187Z" fill="#E1AB61"/>
<path d="M96.5029 30.4693C95.4778 30.6402 94.6235 31.1185 93.9743 31.8532C92.7613 33.1858 92.5221 35.1164 93.3251 36.7395C93.6326 37.3375 94.4868 38.1917 95.119 38.5334C98.0234 40.054 101.509 37.9867 101.509 34.7235C101.509 32.4682 99.7661 30.6231 97.4596 30.4522C97.135 30.418 96.7079 30.4351 96.5029 30.4693Z" fill="#E1AB61"/>
<path d="M6.63597 33.1174C5.98674 33.2883 5.37169 33.6471 4.89331 34.0913L4.4491 34.5013L4.53452 35.1164C4.82497 37.0299 6.34553 38.5163 8.25905 38.8067C9.45499 38.9776 10.7705 38.5846 11.7102 37.7475C12.1886 37.3374 12.2228 37.1495 12.0007 36.2952C11.6077 34.7576 10.463 33.5616 8.95953 33.1174C8.41281 32.9808 7.19978 32.9637 6.63597 33.1174Z" fill="#E1AB61"/>
<path d="M4.61989 39.9344C1.52751 40.4469 -0.027224 43.881 1.6471 46.5121C2.41593 47.7251 3.61187 48.4085 5.11535 48.4768C6.34547 48.5281 7.28514 48.1864 8.20773 47.3663C9.74538 45.9824 10.07 43.6247 8.94239 41.9162C7.98563 40.4469 6.27713 39.661 4.61989 39.9344Z" fill="#E1AB61"/>
<path d="M98.2455 40.6177C96.7249 40.9935 95.4606 42.2407 95.0335 43.7784C94.931 44.1372 94.9481 44.1714 95.136 44.4276C95.6998 45.1623 96.4345 45.6919 97.2887 46.0165C97.9721 46.2557 99.151 46.2899 99.8515 46.0849C101.201 45.6919 102.26 44.6839 102.773 43.3342C103.029 42.6166 103.012 42.5312 102.414 41.899C101.338 40.7544 99.7319 40.2589 98.2455 40.6177Z" fill="#E1AB61"/>
<path d="M99.4586 47.896C97.9893 48.2889 96.7762 49.502 96.3833 50.9884C96.3149 51.2105 96.2637 51.6888 96.2637 52.0476C96.2637 53.2607 96.6908 54.2516 97.5621 55.1058C98.4335 55.9601 99.356 56.3359 100.586 56.3359C101.816 56.3359 102.79 55.9259 103.644 55.0717C105.968 52.7481 104.926 48.8356 101.731 47.9131C101.184 47.7251 100.057 47.7251 99.4586 47.896Z" fill="#E1AB61"/>
<path d="M4.1586 50.322C2.94557 50.6466 1.78379 51.6717 1.3225 52.7651C1.2029 53.0556 1.2029 53.0726 1.45918 53.5681C1.95464 54.542 3.06516 55.4133 4.14152 55.7037C4.68824 55.8575 5.85001 55.8575 6.37965 55.7037C7.47309 55.4133 8.58361 54.5249 9.09616 53.5169L9.3866 52.9701L9.14741 52.5088C8.80571 51.8425 7.90021 50.937 7.2339 50.6295C6.94345 50.4928 6.53341 50.3391 6.34548 50.2878C5.81584 50.1682 4.67115 50.2024 4.1586 50.322Z" fill="#E1AB61"/>
<path d="M4.3978 57.6685C2.17676 58.2665 0.775788 60.4876 1.23708 62.6744C1.57878 64.2633 2.74056 65.5105 4.31238 65.9889C4.89327 66.1598 6.00379 66.1598 6.61885 65.9889C8.31026 65.4935 9.50621 64.1267 9.76248 62.4011C10.0871 60.2825 8.66904 58.2153 6.53342 57.6685C5.93545 57.5148 4.97869 57.5148 4.3978 57.6685Z" fill="#E1AB61"/>
<path d="M97.9381 57.9932C97.6647 58.0615 97.2205 58.2153 96.9471 58.352C96.4004 58.6253 95.5633 59.36 95.2899 59.7871C95.1361 60.0263 95.119 60.1117 95.2045 60.4192C95.4437 61.3418 96.2125 62.3669 97.0496 62.9307C98.8948 64.1608 101.509 63.6995 102.824 61.9398L103.183 61.4785L103.046 61.0514C102.517 59.2575 100.962 58.0273 99.0828 57.9419C98.6898 57.8907 98.2285 57.9248 97.9381 57.9932Z" fill="#E1AB61"/>
<path d="M96.3491 65.2542C95.6657 65.4251 94.9652 65.8522 94.4014 66.416C91.7362 69.0813 93.718 73.7284 97.5109 73.7113C99.1169 73.7113 100.603 72.8229 101.321 71.4219C101.68 70.7043 101.833 70.1405 101.816 69.3034C101.799 66.9798 99.8515 65.1005 97.5109 65.1175C97.1179 65.1346 96.6054 65.1859 96.3491 65.2542Z" fill="#E1AB61"/>
<path d="M8.36148 67.2019C6.72133 67.5436 5.42287 68.7908 4.99574 70.4651C4.80781 71.2169 4.8249 71.5757 5.09826 71.8319C5.49121 72.1907 6.0721 72.5495 6.6359 72.7716C7.42181 73.0791 8.65193 73.0962 9.45492 72.8058C10.1383 72.5666 10.8559 72.0882 11.3514 71.5586C11.9664 70.8752 12.4448 69.6792 12.4448 68.8421C12.4448 68.62 12.3765 68.5004 12.1031 68.2441C11.1634 67.3557 9.64286 66.9456 8.36148 67.2019Z" fill="#E1AB61"/>
<path d="M10.7363 74.1214C8.87406 74.7536 7.72937 76.3254 7.72937 78.256C7.72937 79.9303 8.61779 81.3654 10.1213 82.083C12.4107 83.1764 15.0588 82.1684 16.0327 79.8107C16.1352 79.5715 16.2548 79.0931 16.306 78.7343C16.4769 77.4871 16.0327 76.1374 15.1101 75.1978C14.2558 74.3264 13.2307 73.9335 11.9664 73.9335C11.471 73.9335 11.1122 73.9847 10.7363 74.1214Z" fill="#E1AB61"/>
<path d="M91.3261 74.053C90.8307 74.1555 90.1473 74.463 89.7201 74.7706C89.498 74.9243 89.498 74.9414 89.498 75.6932C89.498 77.675 90.694 79.2981 92.5904 79.879C93.8205 80.2548 95.6486 79.9302 96.4004 79.1785C96.5712 79.0076 96.5883 78.9051 96.5883 78.3413C96.5883 76.6157 95.6486 75.0952 94.1281 74.3776C93.1884 73.9334 92.3171 73.8309 91.3261 74.053Z" fill="#E1AB61"/>
<path d="M87.2257 80.3403C84.68 81.0237 83.3474 83.894 84.475 86.2859C84.8509 87.0718 85.3122 87.6185 85.9614 88.0627C86.9694 88.7461 88.1141 88.9682 89.2247 88.7461C92.2145 88.114 93.5984 84.8678 92.0095 82.2196C91.4799 81.3312 90.4719 80.6137 89.4468 80.3403C88.8659 80.1865 87.8066 80.1865 87.2257 80.3403Z" fill="#E1AB61"/>
<path d="M17.9291 81.6217C16.3573 82.0147 15.0418 83.3644 14.7172 84.902C14.5976 85.4658 14.6488 86.6959 14.8197 87.1743C15.0076 87.6869 15.7252 87.9431 16.9724 87.9431C18.9371 87.9431 20.5431 86.696 21.1069 84.7141C21.2778 84.1503 21.2436 82.8006 21.0557 82.2709C20.9532 81.9805 20.8848 81.9122 20.4577 81.7413C19.8768 81.5363 18.6125 81.4509 17.9291 81.6217Z" fill="#E1AB61"/>
<path d="M79.3324 86.6447C78.9566 86.7301 78.8882 86.7984 78.7003 87.2085C78.3073 88.0969 78.2048 89.2587 78.444 90.1471C78.8541 91.7018 80.1867 92.9661 81.7243 93.2907C82.4077 93.4445 82.7665 93.4445 83.4499 93.3249L83.9796 93.2395L84.2017 92.7269C84.6117 91.8043 84.7142 90.8134 84.4921 89.8396C84.1333 88.3532 82.8861 87.0889 81.3997 86.6959C80.8872 86.5763 79.7937 86.5422 79.3324 86.6447Z" fill="#E1AB61"/>
<path d="M22.935 86.9693C21.517 87.3793 20.4236 88.4044 19.9281 89.8225C19.6718 90.54 19.6889 91.8043 19.9623 92.5902C20.8507 95.0676 23.5501 96.161 25.9591 94.9992C26.5912 94.6917 27.5822 93.7008 27.8726 93.0857C28.7098 91.326 28.4022 89.4124 27.0696 88.0798C25.9933 86.9864 24.3531 86.5592 22.935 86.9693Z" fill="#E1AB61"/>
<path d="M73.2844 91.1039C72.5326 91.2918 71.9517 91.6335 71.3879 92.1973C69.6624 93.9058 69.6624 96.5881 71.3879 98.3137C73.6773 100.603 77.4702 99.7147 78.4953 96.6736C79.2983 94.3159 77.8802 91.7189 75.4371 91.1039C74.8391 90.933 73.8653 90.9501 73.2844 91.1039Z" fill="#E1AB61"/>
<path d="M32.2804 91.4968C31.5116 91.6847 30.794 92.0948 30.2132 92.6927C28.7268 94.1962 28.5217 96.4173 29.7006 98.177C30.1277 98.8262 30.2815 98.8775 31.1357 98.7237C32.6734 98.4845 33.8181 97.6474 34.4673 96.3147C35.202 94.7942 35.0311 93.1028 34.006 91.7531L33.7156 91.3772H33.203C32.9468 91.3943 32.5196 91.4455 32.2804 91.4968Z" fill="#E1AB61"/>
<path d="M64.2635 94.5037C61.9571 96.9981 63.2043 100.945 66.5358 101.696C67.0996 101.833 67.0996 101.833 67.3559 101.628C67.5097 101.526 67.7659 101.235 67.9539 100.996C69.0132 99.6121 69.1669 97.784 68.3468 96.2464C67.8343 95.2896 66.7238 94.4012 65.6474 94.1108C64.8957 93.9058 64.7932 93.9399 64.2635 94.5037Z" fill="#E1AB61"/>
<path d="M39.0291 94.6062C37.0472 95.0333 35.6121 96.8102 35.6121 98.8433C35.6121 100.688 36.8251 102.38 38.619 102.978C39.217 103.183 40.4471 103.2 41.0622 103.012C42.2752 102.653 43.2149 101.85 43.7616 100.74C44.3937 99.4584 44.3937 98.1257 43.7616 96.8444C43.4028 96.0926 42.5827 95.3067 41.7968 94.9308C40.8401 94.4866 40.0371 94.3841 39.0291 94.6062Z" fill="#E1AB61"/>
<path d="M48.2379 95.9218C47.1615 96.4514 46.3072 97.5107 45.9997 98.6725C45.9314 98.8946 45.8801 99.39 45.8801 99.7659C45.8801 100.586 45.9997 101.081 46.3756 101.799C46.7856 102.619 47.9474 103.678 48.4258 103.678C48.4941 103.678 48.8017 103.542 49.1434 103.388C50.2197 102.858 51.1594 101.697 51.4327 100.535C51.5523 100.005 51.5523 99.0142 51.4327 98.5016C51.2619 97.8011 50.8519 97.0665 50.288 96.5027C49.7926 95.9901 49.2117 95.6143 48.9554 95.6143C48.8871 95.6143 48.5625 95.768 48.2379 95.9218Z" fill="#E1AB61"/>
<path d="M56.3532 96.1098C54.9181 96.5198 53.7734 97.6645 53.3463 99.1338C53.2779 99.3901 53.2096 99.8685 53.2096 100.279C53.2096 101.56 53.5684 102.465 54.4568 103.354C55.3452 104.242 56.2507 104.601 57.5663 104.601C58.7793 104.601 59.7873 104.157 60.6416 103.217C61.3933 102.397 61.7692 101.457 61.7692 100.313C61.7692 99.0826 61.342 98.0575 60.5049 97.2203C59.4285 96.1269 57.7713 95.6997 56.3532 96.1098Z" fill="#E1AB61"/>
</svg>
